{"glyphs":{"0":{"ha":992,"x_min":31,"x_max":961,"o":"m 961 546 q 854 124 961 260 l 854 125 q 496 -17 746 -17 q 138 125 249 -17 q 58 298 85 193 q 31 546 31 403 q 138 968 31 832 q 496 1110 247 1110 q 854 967 744 1110 l 854 968 q 961 546 961 833 m 606 546 q 586 776 606 714 q 496 814 574 814 q 406 776 415 814 q 388 546 388 718 q 392 403 388 461 q 406 315 397 344 q 496 278 418 278 q 586 315 574 278 q 606 546 606 376 "},"1":{"ha":606,"x_min":31,"x_max":575,"o":"m 536 0 l 286 0 q 259 13 271 0 q 247 42 247 25 l 247 721 q 167 682 207 697 q 81 653 128 667 q 46 659 61 646 q 31 694 31 672 l 31 913 q 40 939 31 928 q 63 953 50 950 q 152 976 114 964 q 217 1000 190 988 q 267 1034 240 1011 q 326 1089 294 1057 l 536 1089 q 564 1076 553 1089 q 575 1047 575 1064 l 575 42 q 564 13 575 25 q 536 0 553 0 "},"2":{"ha":939,"x_min":31,"x_max":908,"o":"m 31 42 l 31 172 q 35 188 31 178 q 44 203 40 199 l 432 563 l 431 563 q 503 647 463 594 q 531 719 531 683 q 502 789 531 764 q 424 814 474 814 q 258 757 342 814 q 139 656 171 697 q 117 640 131 643 q 93 640 104 636 q 74 655 82 644 q 65 681 65 665 l 65 938 q 69 955 65 944 q 78 968 74 965 q 138 1009 97 988 q 240 1057 178 1031 q 499 1108 367 1108 q 783 1029 676 1108 q 900 797 900 946 q 799 540 900 661 q 712 440 750 482 q 646 369 674 397 l 646 371 q 613 338 629 353 q 582 308 597 324 l 867 308 q 896 296 883 308 q 908 265 908 283 l 908 42 q 896 13 908 25 q 867 0 883 0 l 72 0 q 43 13 56 0 q 31 42 31 25 "},"3":{"ha":954,"x_min":28,"x_max":922,"o":"m 78 838 l 76 1049 q 89 1078 76 1065 q 118 1090 101 1090 l 817 1090 q 847 1078 833 1090 q 860 1049 860 1065 l 860 878 q 855 860 860 871 q 847 847 850 850 l 646 658 q 852 550 782 629 q 922 344 922 471 q 808 72 922 160 q 478 -17 694 -17 q 199 39 322 -17 q 97 89 138 67 q 42 126 57 111 q 30 149 32 135 q 32 175 28 164 l 114 372 q 140 397 122 392 q 174 392 158 403 q 218 367 189 382 q 292 329 247 353 q 475 290 371 290 q 547 307 519 290 q 574 356 574 324 q 538 417 574 389 q 347 451 497 447 q 317 464 329 451 q 306 494 306 476 l 306 636 q 310 652 306 642 q 318 665 314 663 l 488 796 l 119 796 q 90 808 103 796 q 78 838 78 819 "},"4":{"ha":1029,"x_min":31,"x_max":999,"o":"m 553 1089 l 814 1089 q 843 1076 831 1089 q 856 1047 856 1064 l 856 461 l 957 461 q 987 449 975 461 q 999 419 999 436 l 999 210 q 987 181 999 193 q 957 168 975 168 l 856 167 l 856 42 q 843 13 856 25 q 814 0 831 0 l 544 0 q 515 13 528 0 q 503 42 503 25 l 503 167 l 72 167 q 43 179 56 167 q 31 208 31 192 l 31 464 l 519 1074 q 535 1084 524 1079 q 553 1089 546 1089 m 293 461 l 503 461 l 503 719 l 293 461 "},"5":{"ha":997,"x_min":28,"x_max":967,"o":"m 913 1049 l 913 850 q 900 821 913 833 q 871 808 888 808 l 400 808 l 389 719 q 448 728 417 726 q 510 731 479 731 q 701 706 617 731 q 845 632 786 681 q 935 513 904 583 q 967 351 967 443 q 840 75 967 167 q 479 -17 713 -17 q 214 14 326 -17 q 116 43 156 29 q 56 68 76 57 q 34 91 40 75 q 33 122 28 107 l 110 326 q 134 352 117 346 q 168 347 151 358 q 202 334 175 344 q 275 306 229 324 q 368 280 322 288 q 463 272 414 272 q 572 297 529 272 q 614 367 614 322 q 579 432 614 407 q 488 457 544 457 q 354 436 410 457 q 335 435 347 433 q 318 440 324 436 l 140 553 q 124 572 131 560 q 118 594 117 583 l 168 1053 q 182 1079 169 1068 q 210 1090 194 1090 l 869 1090 q 899 1078 886 1090 q 913 1049 913 1065 "},"6":{"ha":982,"x_min":31,"x_max":951,"o":"m 951 350 q 833 75 951 167 q 492 -17 714 -17 q 146 110 263 -17 q 31 536 31 238 q 167 982 31 854 q 526 1110 303 1110 q 726 1092 638 1110 q 860 1051 815 1075 q 874 1036 867 1047 q 881 1015 881 1025 l 881 814 q 863 777 881 789 q 822 776 846 765 q 758 804 790 792 q 694 828 726 817 q 525 850 633 850 q 393 772 426 850 q 381 735 386 754 q 372 694 376 717 q 544 719 447 719 q 845 624 739 719 q 951 350 951 528 m 397 451 q 378 430 386 443 q 365 396 371 417 q 388 282 375 306 l 386 282 q 492 242 407 242 q 583 272 550 242 q 615 357 615 303 q 490 478 615 478 q 396 451 435 478 l 397 451 "},"7":{"ha":967,"x_min":31,"x_max":936,"o":"m 936 1047 l 936 851 q 825 689 879 779 q 719 490 771 599 q 626 269 668 383 q 549 31 585 154 q 533 9 546 18 q 508 0 521 0 l 196 0 q 160 17 172 0 q 157 58 147 35 q 354 465 243 274 q 449 620 399 543 q 558 776 500 697 l 72 776 q 43 789 56 776 q 31 818 31 801 l 31 1047 q 43 1076 31 1064 q 72 1089 56 1089 l 894 1089 q 924 1076 911 1089 q 936 1047 936 1064 "},"8":{"ha":999,"x_min":31,"x_max":968,"o":"m 31 333 q 65 490 31 425 q 176 600 99 554 q 96 694 119 640 q 72 806 72 747 q 197 1032 72 950 q 499 1110 313 1110 q 797 1032 678 1110 q 925 804 925 946 q 898 691 925 744 q 818 600 871 638 q 896 538 861 574 l 894 538 q 968 343 968 461 q 844 74 968 165 q 499 -17 721 -17 q 302 6 389 -17 q 155 74 215 29 q 63 183 94 118 q 31 333 31 249 m 499 463 q 369 356 369 463 q 500 249 369 249 q 594 276 561 249 q 626 356 626 303 q 594 435 626 408 q 499 463 561 463 m 499 843 q 427 826 454 843 q 400 776 400 810 q 426 728 400 744 q 499 711 453 711 q 569 728 543 711 q 596 776 596 744 q 569 826 596 808 q 499 843 543 843 "},"9":{"ha":982,"x_min":31,"x_max":951,"o":"m 31 742 q 150 1017 31 925 q 492 1110 269 1110 q 836 982 719 1110 q 951 557 951 854 q 919 287 951 397 q 817 111 886 176 q 457 -15 682 -15 q 256 1 344 -15 q 125 42 168 17 q 110 58 118 46 q 103 78 103 69 l 103 279 q 121 316 103 304 q 163 317 139 328 q 226 288 194 301 q 290 264 258 275 l 289 264 q 363 248 321 253 q 458 243 406 243 q 590 328 568 243 q 599 360 596 344 q 606 394 603 376 q 528 378 569 383 q 439 372 486 372 q 138 468 244 372 q 31 742 31 564 m 578 639 q 599 664 590 646 q 615 708 608 682 q 606 773 610 749 q 594 810 601 797 q 492 850 575 850 q 401 819 433 850 q 368 735 368 789 q 492 614 368 614 q 578 639 536 614 "},"\u0007":{"ha":694,"x_min":0,"x_max":0,"o":""},"\u0005":{"ha":767,"x_min":29,"x_max":738,"o":"m 382 872 q 153 946 256 872 q 32 1175 50 1021 q 42 1203 29 1192 q 72 1214 54 1214 l 208 1214 q 234 1205 222 1214 q 249 1183 246 1196 q 297 1103 261 1124 q 382 1083 332 1083 q 471 1103 435 1083 q 519 1185 507 1124 q 533 1206 522 1197 q 558 1214 544 1214 l 694 1214 q 726 1203 714 1214 q 735 1175 738 1192 q 614 944 715 1018 q 382 872 515 872 "},"\u0006":{"ha":310,"x_min":31,"x_max":279,"o":"m 65 1089 l 244 1089 q 269 1079 258 1089 q 279 1056 279 1069 l 279 878 q 269 854 279 864 q 246 844 260 844 l 65 844 q 41 854 51 844 q 31 878 31 864 l 31 1056 q 40 1079 31 1069 q 65 1089 50 1089 "},"\b":{"ha":536,"x_min":31,"x_max":506,"o":"m 268 1393 q 435 1322 364 1393 l 435 1324 q 506 1156 506 1254 q 435 986 506 1057 l 435 988 q 268 918 363 918 q 100 988 169 918 q 31 1156 31 1057 q 100 1322 31 1253 q 268 1393 171 1393 m 268 1221 q 222 1202 240 1221 q 203 1156 203 1183 q 222 1109 203 1128 q 268 1090 240 1090 q 315 1109 296 1090 q 333 1156 333 1128 q 315 1202 333 1183 q 268 1221 296 1221 "},"\n":{"ha":940,"x_min":25,"x_max":917,"o":"m 38 926 l 208 1196 q 225 1208 214 1203 q 246 1214 236 1214 l 506 1214 q 544 1194 533 1214 q 538 1156 556 1175 l 279 886 q 265 877 275 882 q 247 872 254 872 l 74 872 q 37 890 49 872 q 38 926 25 907 m 401 926 l 572 1196 q 588 1208 576 1203 q 608 1214 600 1214 l 868 1214 q 906 1194 896 1214 q 899 1156 917 1175 l 643 886 q 628 877 639 882 q 611 872 618 872 l 438 872 q 401 890 413 872 q 401 926 389 907 "},"\u000b":{"ha":658,"x_min":33,"x_max":632,"o":"m 576 -57 l 576 -82 q 569 -104 576 -93 q 550 -118 561 -115 q 444 -162 492 -137 q 358 -219 397 -187 q 290 -332 290 -272 q 309 -381 290 -364 q 354 -397 328 -397 q 428 -374 382 -397 q 521 -314 474 -350 q 553 -306 536 -303 q 579 -325 569 -310 l 624 -397 q 630 -424 632 -410 q 617 -449 628 -439 q 461 -540 546 -501 q 285 -578 376 -578 q 193 -564 236 -578 q 114 -521 150 -550 q 33 -364 33 -460 q 164 -135 33 -215 q 526 -18 282 -64 q 561 -26 546 -15 q 576 -57 576 -37 "},"\f":{"ha":782,"x_min":25,"x_max":757,"o":"m 74 1214 l 254 1214 q 273 1210 261 1214 q 288 1200 285 1206 l 392 1075 l 493 1200 q 508 1210 497 1206 q 526 1214 519 1214 l 708 1214 q 746 1197 735 1214 q 743 1160 757 1179 l 557 890 q 541 878 551 883 q 522 872 531 872 l 261 872 q 242 878 253 872 q 226 890 231 883 l 39 1160 q 36 1197 25 1179 q 74 1214 47 1214 "},"\r":{"ha":326,"x_min":31,"x_max":296,"o":"m 263 0 l 67 0 q 41 12 51 0 q 31 42 31 24 l 31 756 q 40 785 31 774 q 65 797 50 797 l 261 797 q 285 785 275 797 q 296 756 296 774 l 296 42 q 286 12 296 24 q 263 0 276 0 "},"\u0019":{"ha":1235,"x_min":24,"x_max":1211,"o":"m 43 54 l 940 1096 q 956 1105 944 1100 q 972 1110 967 1110 l 1160 1110 q 1200 1085 1189 1110 q 1192 1039 1211 1061 l 294 -3 q 279 -12 290 -7 q 261 -17 268 -17 l 75 -17 q 35 8 46 -17 q 43 54 24 32 "},"\u001a":{"ha":1069,"x_min":31,"x_max":1021,"o":"m 450 0 l 207 0 q 177 13 189 0 q 165 42 165 25 l 165 569 l 74 569 q 44 581 57 569 q 31 611 31 593 l 31 744 q 43 774 31 761 q 72 786 56 786 l 164 786 l 164 844 q 244 1026 164 964 q 458 1089 325 1089 q 633 1065 575 1089 q 653 1050 644 1063 q 663 1026 663 1038 l 663 876 q 650 846 663 858 q 618 833 638 833 q 614 834 618 833 q 607 835 610 835 q 572 844 593 839 q 518 850 550 850 q 499 843 507 850 q 490 818 490 836 l 490 786 l 613 786 q 642 774 629 786 q 656 744 656 761 l 656 611 q 643 581 656 593 q 614 569 631 569 l 492 569 l 492 42 q 479 13 492 25 q 450 0 467 0 m 979 0 l 736 0 q 705 13 718 0 q 692 42 692 25 l 692 778 q 704 807 692 794 q 735 819 717 819 l 978 819 q 1008 807 994 819 q 1021 778 1021 794 l 1021 42 q 1008 13 1021 25 q 979 0 996 0 m 692 957 q 735 1053 692 1018 q 856 1089 779 1089 q 976 1053 932 1089 q 1021 957 1021 1018 q 977 860 1021 896 q 857 825 933 825 q 736 860 781 825 q 692 957 692 896 "},"\u001b":{"ha":1060,"x_min":31,"x_max":1021,"o":"m 449 0 l 206 0 q 176 13 188 0 q 164 42 164 25 l 164 569 l 72 569 q 43 581 56 569 q 31 611 31 593 l 31 744 q 43 774 31 761 q 72 786 56 786 l 164 786 l 164 844 q 244 1027 164 965 q 463 1089 324 1089 q 563 1083 521 1089 q 633 1065 606 1076 q 653 1050 644 1063 q 661 1026 661 1038 l 661 876 q 649 846 661 858 q 618 833 636 833 q 613 834 617 833 q 608 835 610 835 q 571 844 594 839 q 519 850 547 850 q 499 843 507 850 q 490 818 490 836 l 490 786 l 613 786 q 642 774 629 786 q 654 744 654 761 l 654 611 q 642 581 654 593 q 613 569 629 569 l 490 569 l 490 42 q 478 13 490 25 q 449 0 465 0 m 736 1089 l 979 1089 q 1008 1076 996 1089 q 1021 1047 1021 1064 l 1021 42 q 1008 13 1021 25 q 979 0 996 0 l 736 0 q 706 13 718 0 q 693 42 693 25 l 693 1047 q 706 1076 693 1064 q 736 1089 718 1089 "},"\u001c":{"ha":1146,"x_min":31,"x_max":1115,"o":"m 771 769 l 771 608 q 763 585 771 597 q 743 569 754 572 l 542 488 l 542 322 l 1072 322 q 1103 310 1090 322 q 1115 281 1115 299 l 1115 42 q 1103 13 1115 25 q 1072 0 1090 0 l 196 0 q 165 13 178 0 q 153 42 153 25 l 153 333 l 88 307 q 48 311 65 299 q 31 347 31 324 l 31 508 q 38 532 31 519 q 57 549 46 544 l 153 586 l 153 1047 q 165 1076 153 1064 q 196 1089 178 1089 l 500 1089 q 530 1076 518 1089 q 542 1047 542 1064 l 542 742 l 713 810 q 753 806 735 818 q 771 769 771 793 "},"\u001d":{"ha":607,"x_min":31,"x_max":576,"o":"m 53 586 l 150 640 l 150 1047 q 162 1076 150 1064 q 189 1089 174 1089 l 415 1089 q 442 1076 431 1089 q 454 1047 454 1064 l 454 804 l 517 839 q 558 839 539 851 q 576 801 576 826 l 576 656 q 569 634 576 646 q 554 618 563 622 l 456 565 l 456 42 q 444 13 456 25 q 417 0 432 0 l 190 0 q 163 13 175 0 q 151 42 151 25 l 151 401 l 89 367 q 49 367 67 354 q 31 404 31 379 l 31 550 q 38 571 31 560 q 53 586 44 582 "},"\u001e":{"ha":1153,"x_min":31,"x_max":1122,"o":"m 1122 268 l 1122 42 q 1110 13 1122 25 q 1081 0 1097 0 l 74 0 q 43 13 56 0 q 31 42 31 25 l 31 253 q 35 267 31 257 q 43 282 40 278 l 568 801 l 92 801 q 63 814 75 801 q 50 844 50 826 l 50 1047 q 63 1076 50 1064 q 92 1089 75 1089 l 1065 1089 q 1094 1076 1082 1089 q 1107 1047 1107 1064 l 1107 849 q 1103 832 1107 843 q 1094 817 1099 821 l 576 310 l 1081 310 q 1110 297 1097 310 q 1122 268 1122 285 m 271 1457 l 485 1443 q 506 1424 489 1443 q 541 1381 522 1404 q 574 1338 560 1357 q 589 1318 589 1318 l 690 1443 q 706 1453 694 1449 q 724 1457 717 1457 l 906 1457 q 943 1440 932 1457 q 940 1403 954 1422 l 754 1133 q 738 1121 749 1126 q 719 1115 728 1115 l 458 1115 q 439 1121 450 1115 q 424 1133 428 1126 l 236 1403 q 233 1441 222 1422 q 271 1457 244 1460 "},"\u001f":{"ha":811,"x_min":31,"x_max":788,"o":"m 90 797 l 701 797 q 730 785 718 797 q 742 756 742 774 l 742 575 l 469 272 l 715 272 q 744 260 732 272 q 757 231 757 247 l 757 42 q 744 12 757 24 q 715 0 732 0 l 71 0 q 42 12 54 0 q 31 42 31 24 l 31 214 l 303 525 l 90 525 q 62 538 74 525 q 50 567 50 550 l 50 756 q 62 785 50 774 q 90 797 74 797 m 103 1172 l 283 1172 q 302 1168 290 1172 q 317 1158 314 1164 l 421 1033 l 522 1158 q 538 1168 526 1164 q 556 1172 549 1172 l 738 1172 q 776 1155 764 1172 q 772 1118 788 1138 l 586 849 q 570 836 581 842 q 551 831 560 831 l 290 831 q 272 836 282 831 q 256 849 261 842 l 68 1118 q 65 1155 54 1138 q 103 1172 76 1172 "}," ":{"ha":369,"x_min":0,"x_max":0,"o":""},"!":{"ha":317,"x_min":31,"x_max":286,"o":"m 286 1047 l 286 775 l 243 388 q 231 362 240 372 q 210 351 222 351 l 108 351 q 86 362 96 351 q 74 388 76 372 l 31 772 l 31 1047 q 40 1076 31 1064 q 65 1089 50 1089 l 253 1089 q 276 1076 267 1089 q 286 1047 286 1064 m 72 303 l 246 303 q 269 290 260 303 q 279 260 279 278 l 279 42 q 269 13 279 25 q 246 0 260 0 l 72 0 q 49 13 58 0 q 39 42 39 25 l 39 260 q 49 290 39 278 q 72 303 58 303 "},"\"":{"ha":458,"x_min":31,"x_max":428,"o":"m 428 940 l 428 572 q 419 546 428 557 q 399 535 410 535 l 301 535 q 281 546 289 535 q 272 572 272 557 l 272 940 q 281 967 272 956 q 301 979 289 979 l 399 979 q 419 967 410 979 q 428 940 428 956 m 186 940 l 186 572 q 177 546 186 557 q 157 535 168 535 l 60 535 q 39 546 47 535 q 31 572 31 557 l 31 940 q 39 967 31 956 q 60 979 47 979 l 157 979 q 177 967 168 979 q 186 940 186 956 "},"#":{"ha":999,"x_min":31,"x_max":968,"o":"m 74 513 l 194 513 l 203 579 l 117 579 q 85 592 99 579 q 72 621 72 604 l 72 783 q 85 813 72 800 q 115 825 97 825 l 231 825 l 258 1051 q 273 1078 261 1067 q 300 1089 285 1089 l 469 1089 q 503 1075 489 1089 q 514 1042 517 1061 l 485 825 l 576 825 l 604 1051 q 619 1078 607 1067 q 646 1089 631 1089 l 815 1089 q 848 1075 835 1089 q 858 1042 861 1061 l 831 825 l 924 825 q 955 813 942 825 q 968 783 968 800 l 968 621 q 956 592 968 604 q 925 579 943 579 l 803 579 l 794 513 l 881 513 q 912 500 899 513 q 925 471 925 488 l 925 308 q 913 279 925 292 q 882 267 900 267 l 767 267 l 740 38 q 726 11 738 22 q 699 0 714 0 l 528 0 q 495 14 508 0 q 485 47 482 28 l 513 267 l 421 267 l 394 38 q 380 11 392 22 q 353 0 368 0 l 183 0 q 151 14 164 0 q 140 47 138 28 l 167 267 l 74 267 q 43 279 56 267 q 31 308 31 292 l 31 471 q 42 500 31 488 q 74 513 54 513 m 457 579 l 449 513 l 540 513 l 549 579 l 457 579 "},"$":{"ha":976,"x_min":31,"x_max":946,"o":"m 582 1171 l 582 1101 q 631 1095 606 1099 q 682 1086 656 1092 q 842 1039 786 1065 q 858 1024 850 1035 q 867 1004 865 1013 l 883 799 q 867 758 886 771 q 824 756 847 744 q 733 792 782 775 q 625 825 683 810 q 603 831 614 828 q 582 836 592 833 l 582 693 q 853 576 775 649 q 946 353 946 489 q 815 86 946 178 q 582 7 724 24 l 582 -83 q 570 -114 582 -101 q 540 -126 558 -126 l 425 -126 q 395 -114 407 -126 q 383 -83 383 -101 l 383 6 q 313 14 349 8 q 239 28 278 19 q 135 53 176 42 q 75 74 94 65 q 60 89 67 78 q 51 110 53 100 l 33 329 q 50 369 31 356 q 93 372 69 383 q 190 330 140 349 q 293 296 240 311 q 339 284 317 289 q 383 276 361 279 l 383 428 q 233 476 296 450 q 135 532 171 503 q 31 761 31 613 q 156 1024 31 933 q 256 1074 200 1056 q 383 1103 313 1093 l 383 1171 q 395 1201 383 1189 q 425 1214 407 1214 l 540 1214 q 570 1201 558 1214 q 582 1171 582 1189 m 636 361 q 615 371 629 365 q 582 382 601 376 l 582 276 q 606 283 594 279 q 626 290 617 286 l 625 290 q 658 331 658 304 q 636 361 658 347 m 351 753 q 383 742 365 746 l 383 850 q 336 836 351 846 q 314 797 314 824 q 353 753 314 769 l 351 753 "},"%":{"ha":1733,"x_min":31,"x_max":1703,"o":"m 397 1118 q 551 1096 482 1118 q 667 1031 619 1074 q 742 928 715 989 q 768 792 768 868 q 664 550 768 642 q 400 463 561 463 q 247 485 315 463 q 130 551 178 508 q 56 654 82 593 q 31 792 31 715 q 133 1032 31 943 q 397 1118 235 1118 m 403 958 q 324 918 344 958 q 304 790 304 878 q 324 663 304 704 q 397 622 344 622 q 473 663 451 622 q 494 788 494 704 q 474 917 494 875 q 403 958 453 958 m 1332 519 q 1599 432 1496 519 q 1676 329 1650 388 q 1703 192 1703 271 q 1599 -47 1703 42 q 1483 -113 1549 -90 q 1333 -136 1417 -136 q 1068 -49 1171 -136 q 965 192 965 39 q 1068 432 965 342 q 1332 519 1171 519 m 1336 360 q 1259 319 1279 360 q 1239 190 1239 278 q 1259 65 1239 104 q 1332 25 1279 25 q 1408 65 1388 25 q 1429 188 1429 104 q 1409 317 1429 275 q 1336 360 1389 360 m 1281 1119 l 1442 1118 q 1483 1095 1472 1118 q 1475 1049 1494 1072 l 472 -125 q 458 -136 469 -131 q 440 -142 447 -142 l 281 -142 q 240 -118 251 -142 q 247 -71 228 -94 l 1249 1104 q 1263 1115 1253 1110 q 1281 1119 1274 1119 "},"&":{"ha":1369,"x_min":31,"x_max":1339,"o":"m 1279 638 l 1319 579 q 1272 482 1300 531 q 1203 383 1244 433 q 1162 335 1183 358 q 1121 292 1140 313 l 1325 71 q 1337 47 1335 60 q 1335 24 1339 35 q 1319 7 1331 14 q 1294 0 1308 0 l 942 0 q 926 5 936 0 q 911 14 915 10 l 843 88 q 796 61 818 72 q 754 42 774 50 q 615 -1 688 14 q 464 -17 543 -17 q 142 74 251 -17 q 31 303 31 165 q 101 522 31 422 q 174 590 126 557 q 294 657 222 622 q 288 665 290 661 q 282 674 286 669 q 217 846 217 754 q 242 960 217 911 q 313 1043 267 1010 q 424 1093 358 1076 q 568 1110 489 1110 q 822 1046 715 1110 q 936 846 936 976 q 867 678 936 764 q 841 649 854 663 q 814 624 828 636 l 914 515 q 982 615 947 554 q 999 630 988 622 q 1021 638 1011 638 l 1279 638 m 615 282 q 647 299 632 289 l 506 454 q 461 428 481 442 q 425 400 442 414 l 426 400 q 388 324 388 361 q 417 267 388 289 q 485 246 446 246 q 617 282 540 246 l 615 282 m 533 863 q 583 778 533 824 q 596 789 588 781 q 621 856 621 811 q 608 882 621 874 q 576 890 596 890 q 546 883 558 890 q 533 863 533 876 "},"'":{"ha":217,"x_min":31,"x_max":186,"o":"m 186 940 l 186 572 q 177 546 186 557 q 157 535 168 535 l 60 535 q 39 546 47 535 q 31 572 31 557 l 31 940 q 39 967 31 956 q 60 979 47 979 l 157 979 q 177 967 168 979 q 186 940 186 956 "},"(":{"ha":482,"x_min":31,"x_max":451,"o":"m 278 472 l 276 472 q 285 318 276 389 q 313 189 293 247 q 419 75 346 92 q 442 60 433 72 q 451 33 451 49 l 451 -132 q 438 -166 451 -154 q 406 -174 424 -178 q 122 54 217 -131 q 31 472 31 231 q 121 890 31 714 q 240 1040 168 983 q 404 1119 311 1097 q 438 1112 424 1124 q 451 1078 451 1100 l 451 913 q 442 885 451 897 q 421 871 432 874 q 314 756 344 853 q 286 626 294 697 q 278 472 278 556 "},")":{"ha":481,"x_min":31,"x_max":450,"o":"m 204 472 q 167 756 204 639 q 61 871 135 854 q 40 885 49 874 q 31 913 31 897 l 31 1078 q 44 1112 31 1100 q 76 1119 57 1124 q 358 890 265 1075 l 357 892 q 450 472 450 714 q 357 53 450 231 l 358 53 q 76 -174 264 -131 q 44 -166 57 -178 q 31 -132 31 -154 l 31 33 q 40 60 31 49 q 61 75 49 72 q 167 189 136 92 q 204 472 204 306 "},"*":{"ha":831,"x_min":31,"x_max":800,"o":"m 700 896 l 599 775 l 753 803 q 786 794 772 806 q 800 764 800 783 l 800 578 q 786 547 800 558 q 753 538 772 535 l 597 565 q 604 556 600 560 q 614 547 608 553 q 648 508 636 522 q 668 483 660 493 q 683 465 676 474 q 700 444 689 457 q 709 410 713 429 q 689 382 706 392 l 526 289 q 492 285 508 278 q 468 311 475 292 l 415 457 l 364 311 q 340 285 357 292 q 306 289 324 278 l 143 382 q 123 410 126 392 q 132 444 119 429 q 149 465 142 457 q 164 483 156 474 q 184 508 172 493 q 218 547 196 522 q 226 556 222 553 q 233 565 231 560 l 79 538 q 45 547 60 535 q 31 578 31 558 l 31 764 q 45 794 31 783 q 79 803 60 806 l 233 775 l 132 896 q 122 929 118 911 q 143 958 125 947 l 306 1051 q 340 1056 324 1063 q 364 1029 357 1049 l 415 883 l 468 1029 q 492 1056 475 1049 q 526 1051 508 1063 l 689 958 q 710 929 707 947 q 700 896 714 911 "},"+":{"ha":861,"x_min":31,"x_max":831,"o":"m 32 497 l 31 497 q 43 526 31 514 q 72 539 56 539 l 294 539 l 294 757 q 306 787 294 775 q 335 799 318 799 l 526 799 q 556 787 544 799 q 568 757 568 775 l 568 539 l 789 539 q 818 526 806 539 q 831 497 831 514 l 831 306 q 819 276 831 289 q 790 264 807 264 l 569 264 l 569 42 q 558 12 569 24 q 528 0 546 0 l 336 0 q 308 12 319 0 q 296 42 296 24 l 296 264 l 74 264 q 44 276 57 264 q 32 306 32 289 l 32 497 "},",":{"ha":297,"x_min":31,"x_max":267,"o":"m 64 275 l 233 275 q 257 264 247 275 q 267 238 267 253 l 267 32 l 206 -144 q 193 -161 203 -154 q 175 -168 183 -168 l 90 -168 q 61 -152 71 -168 q 58 -117 51 -136 l 100 4 l 64 4 q 40 15 50 4 q 31 42 31 26 l 31 238 q 40 264 31 253 q 64 275 50 275 "},"-":{"ha":558,"x_min":31,"x_max":528,"o":"m 69 596 l 489 596 q 517 587 506 596 q 528 565 528 578 l 528 429 q 517 406 528 415 q 489 397 506 397 l 69 397 q 42 406 54 397 q 31 429 31 415 l 31 565 q 42 587 31 578 q 69 596 54 596 "},".":{"ha":349,"x_min":31,"x_max":267,"o":"m 64 272 l 233 272 q 257 263 247 272 q 267 238 267 253 l 267 35 q 257 10 267 19 q 233 0 247 0 l 64 0 q 40 10 50 0 q 31 35 31 19 l 31 238 q 40 263 31 253 q 64 272 50 272 "},"/":{"ha":850,"x_min":25,"x_max":825,"o":"m 36 44 l 551 1086 q 567 1103 557 1096 q 588 1110 578 1110 l 778 1110 q 814 1091 803 1110 q 814 1049 825 1072 l 297 7 q 282 -10 293 -3 q 261 -17 271 -17 l 72 -17 q 36 2 47 -17 q 36 44 25 21 "},":":{"ha":297,"x_min":31,"x_max":267,"o":"m 64 786 l 233 786 q 257 776 247 786 q 267 751 267 767 l 267 549 q 257 524 267 533 q 233 514 247 514 l 64 514 q 40 524 50 514 q 31 549 31 533 l 31 751 q 40 776 31 767 q 64 786 50 786 m 64 272 l 233 272 q 257 263 247 272 q 267 238 267 253 l 267 35 q 257 10 267 19 q 233 0 247 0 l 64 0 q 40 10 50 0 q 31 35 31 19 l 31 238 q 40 263 31 253 q 64 272 50 272 "},";":{"ha":297,"x_min":31,"x_max":267,"o":"m 64 786 l 233 786 q 257 776 247 786 q 267 751 267 767 l 267 549 q 257 524 267 533 q 233 514 247 514 l 64 514 q 40 524 50 514 q 31 549 31 533 l 31 751 q 40 776 31 767 q 64 786 50 786 m 64 301 l 233 301 q 257 290 247 301 q 267 264 267 279 l 267 58 l 206 -118 q 193 -135 203 -128 q 175 -142 183 -142 l 90 -142 q 61 -126 71 -142 q 58 -90 51 -110 l 100 31 l 64 31 q 40 42 50 31 q 31 68 31 53 l 31 264 q 40 290 31 279 q 64 301 50 301 "},"<":{"ha":857,"x_min":31,"x_max":826,"o":"m 800 528 l 486 400 l 800 272 q 819 257 811 269 q 826 233 826 244 l 826 31 q 810 -5 826 7 q 771 -8 793 -17 l 57 278 q 38 293 46 281 q 31 317 31 306 l 31 483 q 38 507 31 494 q 57 522 46 519 l 771 810 q 810 806 793 818 q 826 771 826 794 l 826 567 q 819 543 826 556 q 800 528 811 531 "},"=":{"ha":861,"x_min":31,"x_max":831,"o":"m 32 417 l 31 567 q 43 590 31 581 q 72 599 56 599 l 789 599 q 818 590 806 599 q 831 567 831 581 l 831 417 q 819 394 831 404 q 790 385 807 385 l 74 385 q 44 394 57 385 q 32 417 32 404 m 31 56 l 31 206 q 43 228 31 219 q 72 238 56 238 l 789 238 q 818 228 806 238 q 831 206 831 219 l 831 56 q 819 33 831 43 q 790 24 807 24 l 74 24 q 44 33 57 24 q 31 56 31 43 "},">":{"ha":861,"x_min":31,"x_max":831,"o":"m 58 272 l 375 400 l 58 528 q 39 543 47 531 q 31 567 31 556 l 31 771 q 49 806 31 794 q 88 810 67 818 l 804 522 q 822 506 814 518 q 831 483 831 494 l 831 317 q 822 293 831 306 q 806 278 814 281 l 89 -8 q 49 -5 67 -17 q 31 31 31 7 l 31 233 q 39 257 31 244 q 58 272 47 269 "},"?":{"ha":810,"x_min":28,"x_max":778,"o":"m 403 1094 l 404 1094 q 560 1072 493 1094 q 675 1008 626 1050 q 778 800 778 921 q 719 631 778 699 q 664 575 692 600 q 604 531 636 550 l 607 533 q 558 497 578 513 q 528 469 539 482 q 513 444 517 456 q 507 421 508 433 l 504 390 q 492 363 504 375 q 465 350 481 350 l 272 350 q 242 363 256 350 q 229 392 229 375 l 229 443 q 256 542 229 496 q 343 639 283 589 q 435 710 401 679 q 460 739 450 724 q 469 771 469 754 q 446 826 469 800 q 394 851 426 851 q 339 844 369 851 q 271 821 308 836 q 144 757 193 789 q 108 752 126 746 q 83 779 90 758 l 32 938 q 34 967 28 951 q 51 989 40 982 q 126 1023 83 1006 q 219 1057 168 1040 q 319 1085 274 1075 q 403 1094 364 1094 m 263 303 l 472 303 q 501 290 489 303 q 514 260 514 278 l 514 42 q 502 13 514 25 q 474 0 490 0 l 264 0 q 234 13 247 0 q 221 42 221 25 l 221 260 q 233 290 221 278 q 263 303 246 303 "},"@":{"ha":1292,"x_min":93,"x_max":1197,"o":"m 671 956 q 1049 815 900 956 q 1197 490 1197 676 q 1072 186 1197 315 q 808 57 947 57 q 761 74 786 57 q 726 139 739 92 q 667 86 708 114 q 578 60 628 60 q 404 129 481 60 q 329 329 329 197 q 410 575 329 465 q 639 685 489 685 q 747 661 692 685 q 824 590 803 638 l 840 657 l 981 657 l 896 265 q 894 254 894 258 q 893 246 893 250 q 903 218 893 231 l 918 206 q 1017 292 967 206 q 1068 497 1068 378 q 954 728 1068 631 q 671 826 840 826 q 374 699 499 826 q 249 388 249 571 q 378 76 249 199 q 665 -46 504 -46 q 867 -14 775 -46 q 992 60 956 19 l 1126 60 q 960 -97 1085 -21 q 683 -175 833 -175 q 258 -4 425 -175 q 93 394 93 168 q 261 785 93 614 q 671 956 429 956 m 665 529 q 550 479 597 529 q 500 381 500 431 q 536 256 500 294 q 619 219 572 219 q 736 288 690 219 q 781 413 781 357 q 750 494 781 463 q 665 529 719 529 "},"A":{"ha":1464,"x_min":24,"x_max":1478,"o":"m 1428 0 l 1103 0 q 1081 7 1093 0 q 1065 24 1069 14 l 994 160 l 474 160 l 403 24 q 386 7 397 14 q 364 0 375 0 l 76 0 q 36 19 49 0 q 38 63 24 39 l 608 1067 q 625 1082 613 1075 q 646 1089 638 1089 l 892 1089 q 913 1082 901 1089 q 929 1065 924 1075 l 1467 61 q 1467 19 1478 38 q 1428 0 1456 0 m 743 646 l 610 404 l 868 404 l 743 646 "},"B":{"ha":1043,"x_min":31,"x_max":1013,"o":"m 642 0 l 72 0 q 43 13 56 0 q 31 42 31 25 l 31 1047 q 43 1076 31 1064 q 72 1089 56 1089 l 633 1089 q 765 1070 706 1089 q 871 1015 824 1051 q 945 928 919 976 q 971 818 971 881 q 938 683 971 742 q 833 589 904 625 q 943 517 906 560 q 1013 310 1013 436 q 906 82 1013 169 q 642 0 804 0 m 501 456 l 401 456 l 401 249 l 497 249 q 594 276 556 249 q 632 350 632 304 q 596 427 632 399 q 501 456 560 456 m 488 840 l 401 840 l 401 667 l 486 667 q 572 693 539 667 q 604 751 604 719 q 573 814 604 788 q 488 840 542 840 "},"C":{"ha":1210,"x_min":31,"x_max":1179,"o":"m 415 536 l 414 536 q 437 422 414 472 q 501 335 460 371 q 746 260 590 260 q 953 285 853 260 l 950 285 q 1045 313 1003 300 q 1121 339 1088 325 q 1161 335 1143 347 q 1179 299 1179 322 l 1175 90 q 1167 67 1175 79 q 1147 51 1158 56 q 938 0 1051 17 q 693 -17 825 -17 q 213 122 386 -17 q 31 528 31 264 q 74 778 31 669 q 200 960 117 886 q 404 1072 283 1033 q 679 1110 525 1110 q 919 1092 814 1110 q 1100 1050 1025 1075 q 1119 1036 1111 1047 q 1129 1014 1128 1025 l 1144 810 q 1129 772 1147 785 q 1089 767 1111 758 q 932 814 1028 789 q 838 833 885 826 q 744 840 792 840 q 502 761 589 840 q 415 536 415 682 "},"D":{"ha":1268,"x_min":31,"x_max":1238,"o":"m 74 1089 l 679 1089 q 1083 938 928 1089 q 1238 544 1238 788 q 1082 153 1238 307 q 685 0 928 0 l 74 0 q 43 13 56 0 q 31 42 31 25 l 31 1047 q 43 1076 31 1064 q 74 1089 56 1089 m 860 543 q 811 704 860 650 q 668 758 763 758 l 424 758 l 424 331 l 657 331 q 808 384 757 331 q 860 543 860 438 "},"E":{"ha":992,"x_min":31,"x_max":961,"o":"m 919 0 l 72 0 q 43 13 56 0 q 31 42 31 25 l 31 1047 q 43 1076 31 1064 q 72 1089 56 1089 l 882 1089 q 911 1076 899 1089 q 924 1047 924 1064 l 924 844 q 911 814 924 826 q 882 801 899 801 l 415 801 l 415 690 l 814 690 q 843 678 831 690 q 856 649 856 665 l 856 449 q 843 418 856 431 q 814 406 831 406 l 415 404 l 415 288 l 919 288 q 949 275 938 288 q 961 244 961 263 l 961 42 q 949 13 961 25 q 919 0 938 0 "},"F":{"ha":999,"x_min":31,"x_max":968,"o":"m 374 0 l 74 0 q 43 13 56 0 q 31 42 31 25 l 31 1047 q 43 1076 31 1064 q 74 1089 56 1089 l 926 1089 q 956 1076 944 1089 q 968 1047 968 1064 l 968 844 q 956 814 968 826 q 926 801 944 801 l 415 801 l 415 669 l 793 669 q 822 658 810 669 q 835 628 835 646 l 833 426 q 821 397 833 410 q 792 385 808 385 l 415 385 l 415 42 q 403 13 415 25 q 374 0 392 0 "},"G":{"ha":1311,"x_min":31,"x_max":1281,"o":"m 415 538 q 503 335 415 410 q 749 260 592 260 q 939 285 874 260 l 939 354 l 793 354 q 763 367 775 354 q 750 397 750 379 l 750 582 q 763 612 750 600 q 793 624 775 624 l 1238 624 q 1268 612 1256 624 q 1281 582 1281 600 l 1281 94 q 1272 70 1281 82 q 1250 54 1263 58 q 1019 3 1149 22 q 738 -17 889 -17 q 213 116 394 -17 q 31 525 31 249 q 218 954 31 796 q 708 1110 406 1110 q 974 1091 856 1110 q 1164 1050 1092 1072 q 1184 1037 1175 1047 q 1194 1015 1193 1026 l 1218 822 q 1204 784 1221 799 q 1164 776 1188 769 q 983 819 1089 799 q 880 835 932 829 q 775 840 828 840 q 511 757 611 840 q 415 538 415 674 "},"H":{"ha":1197,"x_min":31,"x_max":1167,"o":"m 72 1089 l 378 1089 q 408 1076 396 1089 q 421 1047 421 1064 l 421 699 l 775 699 l 775 1047 q 788 1076 775 1064 q 818 1089 800 1089 l 1124 1089 q 1154 1076 1142 1089 q 1167 1047 1167 1064 l 1167 42 q 1154 13 1167 25 q 1124 0 1142 0 l 818 0 q 788 13 800 0 q 775 42 775 25 l 775 413 l 421 413 l 421 42 q 408 13 421 25 q 378 0 396 0 l 72 0 q 43 13 56 0 q 31 42 31 25 l 31 1047 q 43 1076 31 1064 q 72 1089 56 1089 "},"I":{"ha":392,"x_min":31,"x_max":361,"o":"m 325 0 l 67 0 q 41 13 51 0 q 31 42 31 25 l 31 1047 q 41 1076 31 1064 q 67 1089 51 1089 l 325 1089 q 351 1076 340 1089 q 361 1047 361 1064 l 361 42 q 351 13 361 25 q 325 0 340 0 "},"J":{"ha":865,"x_min":29,"x_max":835,"o":"m 497 1100 l 794 1100 q 823 1088 811 1100 q 835 1057 835 1075 l 835 343 q 718 64 835 174 q 422 -42 604 -42 q 221 -8 325 -42 q 138 19 169 8 q 93 39 107 31 q 80 53 86 43 q 72 71 74 64 l 32 388 q 36 416 29 404 q 55 433 43 428 q 80 437 67 439 q 104 422 93 435 q 193 358 126 396 q 325 324 254 324 q 456 443 456 324 l 456 1057 q 468 1088 456 1075 q 497 1100 481 1100 "},"K":{"ha":1315,"x_min":31,"x_max":1286,"o":"m 374 0 l 72 0 q 43 13 56 0 q 31 42 31 25 l 31 1047 q 43 1076 31 1064 q 72 1089 56 1089 l 374 1089 q 403 1076 390 1089 q 415 1047 415 1064 l 415 701 l 743 1075 q 758 1084 747 1079 q 775 1089 769 1089 l 1097 1089 q 1122 1082 1111 1089 q 1138 1064 1133 1075 q 1142 1040 1143 1053 q 1131 1018 1140 1028 l 740 589 l 1269 72 q 1283 49 1281 61 q 1281 25 1286 36 q 1266 7 1276 14 q 1240 0 1256 0 l 867 0 q 851 4 861 0 q 836 11 840 8 l 415 421 l 415 42 q 403 13 415 25 q 374 0 390 0 "},"L":{"ha":1014,"x_min":31,"x_max":983,"o":"m 417 1047 l 415 322 l 940 322 q 970 310 957 322 q 983 281 983 299 l 983 42 q 971 13 983 25 q 942 0 958 0 l 74 0 q 43 13 56 0 q 31 42 31 25 l 31 1047 q 42 1076 31 1064 q 72 1089 54 1089 l 374 1089 q 403 1076 390 1089 q 417 1047 417 1064 "},"M":{"ha":1596,"x_min":31,"x_max":1565,"o":"m 1196 1089 l 1522 1089 q 1553 1076 1540 1089 q 1565 1047 1565 1064 l 1565 42 q 1553 13 1565 25 q 1522 0 1540 0 l 1244 0 q 1214 13 1226 0 q 1201 42 1201 25 l 1201 585 l 900 24 q 883 7 894 14 q 863 0 872 0 l 732 0 q 711 7 722 0 q 694 24 700 14 l 394 583 l 394 42 q 382 13 394 25 q 351 0 369 0 l 74 0 q 43 13 56 0 q 31 42 31 25 l 31 1047 q 43 1076 31 1064 q 74 1089 56 1089 l 399 1089 q 419 1083 407 1089 q 435 1068 431 1076 l 799 478 l 1158 1068 q 1175 1083 1164 1076 q 1196 1089 1186 1089 "},"N":{"ha":1197,"x_min":31,"x_max":1167,"o":"m 651 751 q 731 645 692 699 q 810 536 769 592 l 810 1047 q 822 1076 810 1064 q 853 1089 835 1089 l 1124 1089 q 1154 1076 1142 1089 q 1167 1047 1167 1064 l 1167 42 q 1154 13 1167 25 q 1124 0 1142 0 l 813 0 q 794 5 806 0 q 778 17 783 10 l 386 544 l 386 42 q 374 13 386 25 q 343 0 361 0 l 72 0 q 43 13 56 0 q 31 42 31 25 l 31 1047 q 43 1076 31 1064 q 72 1089 56 1089 l 381 1089 q 401 1083 389 1089 q 415 1071 413 1078 q 534 909 476 988 q 651 751 592 831 "},"O":{"ha":1367,"x_min":31,"x_max":1336,"o":"m 1336 546 q 1171 122 1336 261 q 683 -17 1006 -17 q 196 122 361 -17 q 31 546 31 261 q 196 970 31 831 q 683 1110 361 1110 q 1171 970 1006 1110 q 1336 546 1336 831 m 951 546 q 883 726 951 665 q 683 786 814 786 q 485 726 553 786 q 417 546 417 665 q 485 366 417 426 q 683 306 553 306 q 883 366 814 306 q 951 546 951 426 "},"P":{"ha":1046,"x_min":31,"x_max":1015,"o":"m 554 388 l 411 389 l 411 42 q 399 13 411 25 q 368 0 386 0 l 74 0 q 44 13 57 0 q 31 42 31 25 l 31 1047 q 43 1076 31 1064 q 72 1089 56 1089 l 482 1089 q 714 1070 614 1089 q 881 1010 814 1051 q 981 902 947 968 q 1015 743 1015 836 q 899 472 1015 558 q 554 388 782 385 m 490 840 l 410 835 l 410 638 l 481 635 q 649 736 649 628 q 607 817 649 789 q 490 840 565 846 "},"Q":{"ha":1376,"x_min":31,"x_max":1350,"o":"m 1344 57 l 1311 -110 q 1300 -129 1308 -119 q 1282 -142 1292 -139 q 1261 -147 1275 -144 q 1231 -151 1247 -149 q 1197 -154 1214 -153 q 1163 -156 1179 -156 q 807 -32 942 -156 q 798 -24 803 -28 q 786 -14 793 -19 q 741 -16 767 -15 q 683 -17 715 -17 q 197 124 364 -17 q 31 550 31 264 q 197 978 31 836 q 683 1119 364 1119 q 1171 978 1004 1119 q 1338 550 1338 836 q 1165 124 1338 268 l 1153 111 q 1190 104 1171 107 q 1233 101 1210 101 q 1272 103 1261 101 q 1290 107 1282 104 q 1333 99 1315 115 q 1344 57 1350 83 m 951 550 q 883 732 951 671 q 683 793 815 793 q 485 732 553 793 q 417 550 417 671 q 485 369 417 431 q 683 308 553 308 q 883 369 815 308 q 951 550 951 431 "},"R":{"ha":1310,"x_min":31,"x_max":1286,"o":"m 558 385 l 424 385 l 424 42 q 411 13 424 25 q 381 0 399 0 l 72 0 q 43 13 56 0 q 31 42 31 25 l 31 1047 q 43 1076 31 1064 q 72 1089 56 1089 l 769 1089 q 1057 1010 949 1089 q 1174 783 1174 924 q 1078 554 1174 625 q 1023 520 1054 536 q 954 492 992 504 q 1030 440 999 468 q 1082 385 1061 413 l 1272 64 q 1274 20 1286 40 q 1236 0 1263 0 l 883 0 q 862 7 872 0 q 846 24 851 14 l 668 354 l 669 351 q 658 365 664 358 q 644 376 651 372 q 558 385 633 385 m 632 840 l 415 840 l 415 633 l 582 633 q 736 657 683 633 q 789 742 789 681 q 749 817 789 793 q 632 840 708 840 "},"S":{"ha":1014,"x_min":31,"x_max":983,"o":"m 983 353 q 949 194 983 263 q 852 78 915 125 q 698 8 789 32 q 493 -17 607 -17 q 372 -12 432 -17 q 251 3 311 -7 q 227 7 238 6 q 206 11 217 8 l 206 10 q 137 23 165 17 q 93 32 108 29 q 71 46 81 35 q 60 69 61 57 l 38 333 q 54 373 35 360 q 97 375 74 386 q 286 299 165 342 q 513 257 411 257 q 613 272 575 257 q 651 317 651 288 q 629 347 651 332 q 465 394 593 369 q 132 521 225 443 q 31 754 31 604 q 155 1019 31 929 q 501 1110 279 1110 q 708 1090 599 1110 q 801 1072 761 1081 q 867 1056 840 1064 q 887 1042 878 1053 q 897 1019 896 1031 l 925 776 q 908 735 928 750 q 865 733 889 721 q 775 772 822 754 q 676 806 728 790 q 492 835 574 835 q 395 825 429 835 q 361 792 361 815 q 396 757 361 769 q 474 733 428 746 q 582 708 519 719 q 890 581 807 664 q 983 353 983 492 "},"T":{"ha":1107,"x_min":40,"x_max":1086,"o":"m 715 0 l 411 0 q 382 13 394 0 q 369 42 369 25 l 369 815 l 82 815 q 52 828 64 815 q 40 858 40 840 l 40 1047 q 52 1076 40 1064 q 82 1089 64 1089 l 1043 1089 q 1074 1076 1061 1089 q 1086 1047 1086 1064 l 1086 858 q 1074 828 1086 840 q 1043 815 1061 815 l 757 815 l 757 42 q 745 13 757 25 q 715 0 733 0 "},"U":{"ha":1188,"x_min":31,"x_max":1157,"o":"m 786 481 l 786 1049 q 799 1078 786 1065 q 829 1090 811 1090 l 1115 1090 q 1144 1078 1132 1090 q 1157 1049 1157 1065 l 1157 343 q 1003 58 1157 142 q 592 -17 861 -17 q 179 58 314 -17 q 31 357 31 142 l 31 1049 q 43 1078 31 1065 q 74 1090 56 1090 l 358 1090 q 389 1078 376 1090 q 401 1049 401 1065 l 401 476 q 447 340 401 381 q 597 300 492 300 q 742 342 697 300 q 786 481 786 385 "},"V":{"ha":1339,"x_min":25,"x_max":1314,"o":"m 961 1090 l 1264 1090 q 1302 1072 1290 1090 q 1303 1029 1314 1053 l 797 7 q 780 -10 792 -3 q 758 -17 768 -17 l 576 -17 q 554 -9 567 -17 q 538 8 542 -1 l 36 1031 q 38 1072 25 1054 q 75 1090 50 1090 l 390 1090 q 413 1083 401 1090 q 429 1065 424 1076 l 681 526 l 922 1065 q 938 1083 926 1075 q 961 1090 950 1090 "},"W":{"ha":1863,"x_min":26,"x_max":1836,"o":"m 1492 1090 l 1788 1090 q 1824 1074 1811 1090 q 1828 1033 1836 1057 l 1456 11 q 1439 -8 1451 0 q 1415 -17 1426 -17 l 1256 -17 q 1233 -10 1244 -17 q 1217 8 1222 -3 l 925 617 l 646 8 q 629 -9 642 -1 q 606 -17 617 -17 l 447 -17 q 424 -8 436 -17 q 407 11 411 0 l 35 1033 q 40 1074 26 1057 q 76 1090 53 1090 l 368 1090 q 392 1082 379 1090 q 410 1063 406 1074 l 572 603 l 797 1065 q 814 1083 801 1075 q 838 1090 826 1090 l 1026 1090 q 1050 1083 1038 1090 q 1065 1065 1063 1076 l 1283 604 l 1450 1063 q 1467 1082 1454 1074 q 1492 1090 1479 1090 "},"X":{"ha":1439,"x_min":31,"x_max":1414,"o":"m 1028 1089 l 1351 1089 q 1393 1065 1382 1089 q 1385 1018 1404 1040 l 994 569 l 1397 68 q 1403 23 1414 46 q 1364 0 1393 0 l 1013 0 q 994 6 1006 0 q 978 17 982 11 l 719 340 l 436 15 q 422 5 433 10 q 404 0 411 0 l 76 0 q 51 7 61 0 q 35 24 40 14 q 32 47 31 35 q 43 69 33 58 l 478 569 l 71 1018 q 59 1042 61 1029 q 62 1065 57 1054 q 77 1082 67 1075 q 103 1089 88 1089 l 468 1089 q 485 1084 475 1089 q 499 1075 496 1079 l 751 800 l 996 1075 q 1010 1084 999 1079 q 1028 1089 1021 1089 "},"Y":{"ha":1449,"x_min":24,"x_max":1425,"o":"m 1043 1089 l 1372 1089 q 1413 1065 1401 1089 q 1407 1019 1425 1042 l 924 436 l 924 42 q 911 13 924 25 q 881 0 899 0 l 569 0 q 540 13 553 0 q 528 42 528 25 l 528 436 l 43 1019 q 35 1065 24 1042 q 76 1089 47 1089 l 436 1089 q 454 1084 443 1089 q 469 1074 465 1079 l 751 725 l 1008 1071 q 1024 1083 1011 1078 q 1043 1089 1036 1089 "},"Z":{"ha":1153,"x_min":31,"x_max":1122,"o":"m 1122 268 l 1122 42 q 1110 13 1122 25 q 1081 0 1097 0 l 74 0 q 43 13 56 0 q 31 42 31 25 l 31 253 q 35 267 31 257 q 43 282 40 278 l 568 801 l 92 801 q 63 814 75 801 q 50 844 50 826 l 50 1047 q 63 1076 50 1064 q 92 1089 75 1089 l 1065 1089 q 1094 1076 1082 1089 q 1107 1047 1107 1064 l 1107 849 q 1103 832 1107 843 q 1094 817 1099 821 l 576 310 l 1081 310 q 1110 297 1097 310 q 1122 268 1122 285 "},"[":{"ha":457,"x_min":31,"x_max":426,"o":"m 390 913 l 261 913 l 261 32 l 390 32 q 416 19 406 32 q 426 -10 426 7 l 426 -132 q 416 -162 426 -150 q 390 -175 406 -175 l 68 -175 q 42 -162 53 -175 q 31 -132 31 -150 l 31 1078 q 42 1108 31 1096 q 68 1121 53 1121 l 390 1121 q 416 1108 406 1121 q 426 1078 426 1096 l 426 956 q 416 925 426 938 q 390 913 406 913 "},"\\":{"ha":775,"x_min":25,"x_max":750,"o":"m 476 8 l 35 1050 q 37 1092 25 1074 q 72 1110 49 1110 l 258 1110 q 281 1102 269 1110 q 296 1083 292 1094 l 739 43 q 738 1 750 19 q 701 -17 725 -17 l 514 -17 q 492 -9 503 -17 q 476 8 481 -1 "},"]":{"ha":457,"x_min":31,"x_max":426,"o":"m 31 -10 q 42 19 31 7 q 68 32 53 32 l 196 32 l 196 913 l 68 913 q 42 925 53 913 q 31 956 31 938 l 31 1078 q 42 1108 31 1096 q 68 1121 53 1121 l 389 1121 q 415 1108 404 1121 q 426 1078 426 1096 l 426 -132 q 415 -162 426 -150 q 389 -175 404 -175 l 68 -175 q 42 -162 53 -175 q 31 -132 31 -150 l 31 -10 "},"^":{"ha":833,"x_min":25,"x_max":808,"o":"m 279 431 l 72 431 q 37 448 49 431 q 36 488 25 465 l 289 1000 q 304 1015 292 1007 q 326 1022 317 1022 l 507 1022 q 528 1015 517 1022 q 544 1000 540 1007 l 797 488 q 797 448 808 465 q 760 431 785 431 l 554 431 q 532 438 543 431 q 517 454 521 446 l 417 674 l 317 454 q 301 438 313 446 q 279 431 290 431 "},"_":{"ha":633,"x_min":-39,"x_max":656,"o":"m 615 -199 l 1 -199 q -27 -193 -15 -199 q -39 -179 -39 -187 l -39 -150 q -27 -135 -39 -142 q 1 -129 -15 -129 l 615 -129 q 644 -135 632 -129 q 656 -150 656 -142 l 656 -179 q 644 -193 656 -187 q 615 -199 632 -199 "},"`":{"ha":576,"x_min":24,"x_max":551,"o":"m 504 733 l 332 733 q 315 738 325 733 q 301 746 306 743 l 42 1015 q 34 1055 24 1035 q 71 1075 44 1075 l 325 1075 q 344 1069 333 1075 q 358 1058 354 1064 l 538 789 q 540 751 551 769 q 504 733 529 733 "},"a":{"ha":953,"x_min":43,"x_max":936,"o":"m 649 26 q 631 42 639 35 q 617 57 624 49 q 483 4 554 25 q 339 -17 413 -17 q 119 51 194 -17 q 43 235 43 119 q 158 438 43 358 q 287 495 215 475 q 446 511 358 515 l 563 506 q 533 569 561 549 q 457 590 506 590 q 388 585 421 590 q 319 565 354 579 q 261 542 288 553 q 211 519 235 531 q 178 517 196 511 q 154 540 161 524 l 101 661 q 101 686 97 672 q 111 707 104 700 q 159 738 126 721 q 244 776 192 756 q 354 807 297 796 q 475 818 411 818 q 653 799 578 818 q 776 740 728 781 q 849 635 825 700 q 872 479 872 571 l 872 194 q 882 186 872 194 q 892 179 892 179 q 917 172 907 179 q 932 153 928 164 q 933 129 936 142 q 918 107 931 117 l 771 -15 q 649 26 699 -15 m 521 218 q 546 228 535 224 q 567 238 557 233 l 567 303 l 563 303 q 350 235 350 303 q 421 200 350 200 q 521 218 475 200 "},"b":{"ha":953,"x_min":31,"x_max":922,"o":"m 354 1049 l 354 783 q 376 794 365 789 q 399 804 386 799 l 399 803 q 563 839 479 839 q 714 809 649 839 q 828 718 779 779 q 922 411 922 603 q 825 104 922 219 q 554 -17 722 -17 q 350 39 431 -17 q 311 67 329 54 q 275 93 293 79 l 236 22 q 220 7 231 14 q 200 0 210 0 l 72 0 q 43 13 56 0 q 31 42 31 25 l 31 1049 q 43 1078 31 1065 q 72 1090 56 1090 l 313 1090 q 342 1078 329 1090 q 354 1049 354 1065 m 386 579 q 367 569 375 572 q 354 563 358 565 l 354 279 q 375 263 363 272 q 404 243 388 254 l 403 243 q 496 215 447 215 q 583 265 550 215 q 615 394 615 315 q 576 547 615 494 q 463 600 538 600 q 386 579 424 600 "},"c":{"ha":757,"x_min":31,"x_max":728,"o":"m 722 249 l 697 63 q 690 45 697 56 q 676 32 682 35 q 585 1 657 21 q 442 -17 514 -17 q 143 93 257 -17 q 31 390 31 204 q 59 567 31 490 q 144 703 88 644 q 451 818 258 818 q 592 801 538 818 q 683 768 647 785 q 699 754 690 765 q 707 735 707 743 l 725 551 q 707 510 728 524 q 663 513 686 497 q 631 531 651 521 q 578 553 610 540 q 468 575 522 575 q 364 526 401 575 q 326 392 326 478 q 367 279 326 315 q 493 243 407 243 q 597 265 540 243 q 634 279 619 274 q 657 288 649 285 l 654 288 q 667 294 661 292 q 682 296 672 296 q 713 282 701 296 q 722 249 725 268 "},"d":{"ha":953,"x_min":31,"x_max":922,"o":"m 715 22 l 678 93 q 639 63 658 78 q 597 33 619 49 q 401 -17 522 -17 q 129 103 232 -17 q 31 411 31 218 q 126 719 31 604 q 400 839 226 839 q 549 807 475 839 q 575 795 563 800 q 600 783 588 790 l 600 1049 q 612 1078 600 1065 q 642 1090 624 1090 l 881 1090 q 910 1078 897 1090 q 922 1049 922 1065 l 922 42 q 910 13 922 25 q 881 0 897 0 l 753 0 q 731 7 742 0 q 715 22 719 14 m 551 244 q 581 263 569 256 q 600 276 593 271 l 600 563 q 584 570 593 565 q 564 581 575 575 q 490 600 533 600 q 376 545 415 600 q 338 394 338 490 q 372 263 338 311 q 468 215 406 215 q 551 244 506 215 "},"e":{"ha":821,"x_min":31,"x_max":790,"o":"m 782 103 l 765 53 q 708 24 740 36 q 638 2 675 11 q 560 -12 600 -7 q 479 -17 519 -17 q 153 97 275 -17 q 31 414 31 211 q 140 703 31 589 q 418 818 250 818 q 690 701 586 818 q 790 406 790 589 l 790 344 q 778 315 790 328 q 750 303 767 303 l 354 303 q 379 267 365 279 q 522 225 421 225 q 618 238 572 225 q 657 249 643 244 q 676 256 671 253 q 708 256 692 263 q 731 233 724 249 l 782 103 m 361 553 q 342 488 347 526 l 486 488 q 463 563 481 536 q 417 590 444 590 q 361 553 379 590 "},"f":{"ha":703,"x_min":31,"x_max":672,"o":"m 453 0 l 222 0 q 194 13 206 0 q 182 42 182 25 l 182 569 l 71 569 q 42 581 54 569 q 31 611 31 593 l 31 744 q 42 774 31 761 q 71 786 54 786 l 182 786 l 182 844 q 258 1027 182 965 q 465 1089 335 1089 q 561 1083 521 1089 q 631 1065 601 1076 q 647 1050 639 1063 q 656 1026 656 1038 l 656 876 q 644 846 656 858 q 615 833 632 833 q 610 834 614 833 q 604 835 606 835 q 569 844 592 839 q 519 850 547 850 q 493 818 493 850 l 493 786 l 632 786 q 660 774 649 786 q 672 744 672 761 l 672 611 q 660 581 672 593 q 632 569 649 569 l 493 569 l 493 42 q 481 13 493 25 q 453 0 469 0 "},"g":{"ha":893,"x_min":31,"x_max":863,"o":"m 863 113 q 833 -22 863 36 q 748 -120 803 -81 q 614 -181 693 -160 q 436 -201 535 -201 q 322 -188 376 -201 q 218 -162 267 -175 q 138 -142 169 -151 q 96 -125 107 -132 q 81 -109 89 -121 q 74 -90 74 -97 l 64 51 q 68 74 63 64 q 82 90 74 85 q 101 96 90 96 q 125 90 114 96 q 162 76 136 86 q 229 50 188 65 q 310 28 269 35 q 396 21 351 21 q 512 42 471 21 q 553 103 553 63 l 553 110 q 463 69 508 83 q 365 56 418 56 q 124 165 219 56 q 53 286 75 221 q 31 431 31 351 q 122 719 31 607 q 375 833 218 833 q 514 813 447 833 q 533 803 517 811 q 574 781 549 796 q 615 751 599 767 l 640 804 q 656 820 644 813 q 678 828 668 828 l 821 828 q 850 816 838 828 q 863 786 863 804 l 863 113 m 510 301 q 533 317 522 308 q 556 332 544 325 l 556 546 q 524 557 551 538 q 450 583 483 583 q 362 546 388 583 q 336 429 336 508 q 367 319 336 361 q 451 278 399 278 q 510 301 471 278 "},"h":{"ha":885,"x_min":31,"x_max":854,"o":"m 813 0 l 575 0 q 546 13 558 0 q 533 42 533 25 l 533 485 q 522 551 533 525 q 486 576 510 576 q 394 554 440 576 l 396 554 q 369 542 381 547 q 350 532 358 536 l 350 42 q 338 13 350 25 q 308 0 325 0 l 71 0 q 42 13 54 0 q 31 42 31 25 l 31 1047 q 42 1076 31 1064 q 71 1089 54 1089 l 308 1089 q 338 1076 325 1089 q 350 1047 350 1064 l 350 771 q 460 820 401 803 q 582 838 518 838 q 787 759 719 838 q 854 532 854 681 l 854 42 q 842 13 854 25 q 813 0 829 0 "},"i":{"ha":358,"x_min":33,"x_max":325,"o":"m 292 0 l 68 0 q 43 13 53 0 q 33 42 33 25 l 33 778 q 43 807 33 794 q 68 819 53 819 l 264 819 q 281 816 271 819 q 301 807 292 813 q 318 794 311 801 q 325 778 325 786 l 325 42 q 315 13 325 25 q 292 0 306 0 m 47 999 q 83 1095 47 1060 q 179 1131 118 1131 q 276 1095 242 1131 q 311 999 311 1060 q 276 902 311 938 q 179 867 242 867 q 83 902 118 867 q 47 999 47 938 "},"j":{"ha":414,"x_min":-117,"x_max":364,"o":"m 104 829 l 326 829 q 353 817 342 829 q 364 786 364 804 l 364 53 q 65 -257 364 -257 l -25 -257 q -47 -248 -36 -257 q -61 -228 -57 -239 l -110 -82 q -106 -44 -117 -58 q -72 -25 -94 -29 l -10 -12 q 51 18 35 -3 q 67 85 67 39 l 67 786 q 78 817 67 804 q 104 829 89 829 m 67 999 q 106 1097 67 1061 q 215 1132 146 1132 q 324 1097 285 1132 q 364 999 364 1061 q 324 901 364 938 q 215 865 285 865 q 106 901 146 865 q 67 999 67 938 "},"k":{"ha":969,"x_min":31,"x_max":946,"o":"m 74 1089 l 313 1089 q 342 1076 329 1089 q 354 1047 354 1064 l 354 568 l 607 819 l 893 819 q 919 812 908 819 q 933 794 929 804 q 935 770 938 783 q 922 747 933 757 l 607 449 l 926 69 q 935 24 946 47 q 896 0 925 0 l 640 0 q 624 5 635 0 q 610 14 614 10 l 356 300 l 356 42 q 343 13 356 25 q 314 0 331 0 l 74 0 q 44 13 57 0 q 31 42 31 25 l 31 1047 q 43 1076 31 1064 q 74 1089 56 1089 "},"l":{"ha":372,"x_min":31,"x_max":322,"o":"m 65 1089 l 289 1089 q 313 1076 303 1089 q 322 1047 322 1064 l 322 42 q 313 13 322 25 q 289 0 303 0 l 65 0 q 40 13 50 0 q 31 42 31 25 l 31 1047 q 40 1076 31 1064 q 65 1089 50 1089 "},"m":{"ha":1401,"x_min":31,"x_max":1371,"o":"m 1328 0 l 1081 0 q 1050 12 1063 0 q 1038 42 1038 24 l 1038 472 q 1028 538 1038 513 q 999 563 1018 563 q 957 557 978 563 q 914 540 936 551 q 887 528 899 533 q 868 519 875 524 l 868 42 q 856 12 868 24 q 825 0 843 0 l 578 0 q 547 12 560 0 q 535 42 535 24 l 535 472 q 525 538 535 513 q 496 563 515 563 q 407 542 453 563 l 408 542 q 382 529 393 535 q 364 518 371 524 l 364 42 q 351 12 364 24 q 321 0 339 0 l 74 0 q 43 12 56 0 q 31 42 31 24 l 31 758 q 43 787 31 775 q 74 799 56 799 l 249 799 q 269 793 257 799 q 286 781 281 788 l 319 728 q 449 793 379 769 q 597 817 518 817 q 719 790 667 817 q 800 719 771 763 q 841 742 819 731 q 889 768 863 754 q 987 804 938 792 q 1089 817 1036 817 q 1371 518 1371 817 l 1371 42 q 1358 12 1371 24 q 1328 0 1346 0 "},"n":{"ha":885,"x_min":31,"x_max":854,"o":"m 813 0 l 575 0 q 546 12 558 0 q 533 42 533 24 l 533 472 q 522 538 533 513 q 486 563 510 563 q 440 557 463 563 q 394 540 418 551 l 396 540 q 369 528 381 533 q 350 518 358 524 l 350 42 q 338 12 350 24 q 308 0 325 0 l 71 0 q 42 12 54 0 q 31 42 31 24 l 31 758 q 42 787 31 775 q 71 799 54 799 l 240 799 q 258 793 247 799 q 275 781 269 788 l 307 728 q 435 793 365 769 q 582 817 506 817 q 787 740 719 817 q 854 518 854 664 l 854 42 q 842 12 854 24 q 813 0 829 0 "},"o":{"ha":946,"x_min":31,"x_max":915,"o":"m 915 400 q 794 94 915 207 q 472 -17 675 -17 q 151 94 271 -17 q 31 400 31 207 q 151 707 31 594 q 472 818 274 818 q 794 707 672 818 q 915 400 915 594 m 621 400 q 582 522 621 478 q 472 565 543 565 q 364 522 403 565 q 325 400 325 478 q 364 278 325 322 q 472 235 403 235 q 582 278 543 235 q 621 400 621 322 "},"p":{"ha":953,"x_min":31,"x_max":922,"o":"m 554 31 q 449 42 499 31 q 354 78 400 53 l 354 -114 q 342 -144 354 -132 q 313 -157 329 -157 l 72 -157 q 43 -144 56 -157 q 31 -114 31 -132 l 31 771 q 43 801 31 789 q 72 814 56 814 l 219 814 q 240 807 229 814 q 256 793 250 800 l 288 740 q 408 810 346 789 q 540 831 471 831 q 815 714 708 831 l 815 715 q 922 425 922 604 q 819 142 922 253 q 554 31 715 31 m 478 594 q 406 578 438 594 q 353 540 374 561 l 353 304 q 404 274 371 290 q 490 251 449 251 q 583 294 550 251 q 617 410 617 336 q 578 543 617 492 q 478 594 540 594 "},"q":{"ha":954,"x_min":31,"x_max":924,"o":"m 643 -157 q 613 -144 625 -157 q 601 -114 601 -132 l 601 79 q 504 42 553 53 q 400 31 456 31 q 133 142 240 31 q 31 419 31 251 q 138 714 31 599 l 138 713 q 417 831 247 831 q 545 810 483 831 q 664 740 607 789 l 703 806 q 718 819 707 813 q 739 826 729 826 l 882 826 q 911 814 899 826 q 924 785 924 801 l 924 -114 q 911 -144 924 -132 q 882 -157 899 -157 l 643 -157 m 551 275 q 578 290 567 283 q 599 303 590 296 l 599 539 q 544 578 575 561 q 475 594 513 594 q 375 542 413 594 q 338 407 338 490 q 372 293 338 335 q 465 251 406 251 q 551 275 508 251 "},"r":{"ha":667,"x_min":31,"x_max":636,"o":"m 299 0 l 69 0 q 42 12 54 0 q 31 42 31 24 l 31 758 q 42 787 31 775 q 69 799 54 799 l 232 799 q 254 790 243 799 q 268 771 265 782 l 297 675 q 395 780 344 743 q 503 817 446 817 q 550 806 528 817 q 590 781 572 796 q 619 751 607 767 q 636 722 631 735 l 578 497 q 547 465 571 471 q 507 482 524 460 q 440 529 471 529 q 385 499 415 529 q 339 447 351 465 l 339 42 q 327 12 339 24 q 299 0 315 0 "},"s":{"ha":735,"x_min":29,"x_max":704,"o":"m 704 240 q 617 49 704 115 q 374 -18 529 -18 q 215 -6 289 -18 q 78 26 140 6 q 60 39 68 29 q 50 60 51 49 l 32 231 q 47 269 29 256 q 88 272 64 283 q 126 256 100 267 q 194 231 153 246 q 354 200 272 200 q 396 205 381 200 q 411 221 411 210 q 373 254 411 239 q 269 293 335 269 l 269 292 q 133 361 217 308 q 40 551 40 421 q 64 668 40 618 q 139 754 88 718 q 243 802 183 786 q 374 818 303 818 q 441 813 407 818 q 506 801 475 808 q 564 785 538 794 q 610 768 590 776 q 626 753 619 765 q 633 729 633 740 l 633 565 q 613 527 633 538 q 571 532 592 517 q 547 545 565 535 q 496 571 528 556 q 379 601 435 601 q 346 594 358 601 q 333 576 333 586 q 370 538 333 557 q 493 488 407 519 q 649 391 593 450 q 704 240 704 332 "},"t":{"ha":722,"x_min":60,"x_max":721,"o":"m 525 272 q 535 233 525 246 q 560 219 544 219 q 622 229 594 219 q 665 246 650 239 q 703 243 686 256 q 721 207 721 231 l 721 42 q 714 19 721 31 q 697 4 707 7 q 662 -8 683 -3 q 611 -21 640 -14 q 551 -32 579 -28 q 496 -36 524 -36 q 280 21 347 -36 q 213 213 213 78 l 213 567 l 100 567 q 72 579 85 567 q 60 610 60 592 l 60 758 q 72 788 60 776 q 100 800 85 800 l 213 800 l 213 972 q 223 1000 213 988 q 247 1014 233 1013 l 479 1054 q 513 1045 499 1058 q 526 1013 526 1032 l 525 800 l 681 800 q 709 788 697 800 q 721 758 721 776 l 721 610 q 709 579 721 592 q 681 567 697 567 l 525 567 l 525 272 "},"u":{"ha":885,"x_min":31,"x_max":854,"o":"m 854 758 l 854 42 q 842 12 854 24 q 814 0 831 0 l 631 0 q 608 7 619 0 q 593 24 596 14 l 571 68 q 444 6 508 28 q 300 -17 379 -17 q 98 56 165 -17 q 31 268 31 129 l 31 758 q 43 787 31 775 q 72 799 56 799 l 310 799 q 339 787 326 799 q 351 758 351 775 l 351 329 q 404 238 351 238 q 433 241 415 238 q 472 253 450 244 l 471 253 q 505 267 489 261 q 535 281 521 274 l 535 758 q 547 787 535 775 q 576 799 560 799 l 814 799 q 842 787 831 799 q 854 758 854 775 "},"v":{"ha":953,"x_min":25,"x_max":928,"o":"m 918 742 l 596 8 q 581 -9 593 -1 q 558 -17 569 -17 l 393 -17 q 371 -9 382 -17 q 356 8 360 -1 l 35 742 q 37 781 25 764 q 72 799 49 799 l 319 799 q 343 790 331 799 q 358 772 356 782 l 485 424 l 621 772 q 637 791 625 783 q 660 799 649 799 l 881 799 q 916 781 904 799 q 918 742 928 764 "},"w":{"ha":1593,"x_min":35,"x_max":1578,"o":"m 938 776 l 1113 442 l 1242 772 q 1258 791 1244 783 q 1282 799 1271 799 l 1529 799 q 1565 781 1553 799 q 1568 742 1578 764 l 1238 8 q 1221 -9 1232 -1 q 1199 -17 1210 -17 l 1069 -17 q 1047 -10 1058 -17 q 1031 6 1035 -3 l 804 414 l 576 6 q 560 -10 571 -3 q 538 -17 549 -17 l 408 -17 q 385 -9 397 -17 q 369 8 372 -1 l 46 742 q 47 781 35 764 q 85 799 60 799 l 353 799 q 378 790 365 799 q 394 772 390 782 l 518 439 l 706 776 q 722 792 710 785 q 744 799 733 799 l 899 799 q 920 792 908 799 q 938 776 932 785 "},"x":{"ha":949,"x_min":25,"x_max":924,"o":"m 906 732 l 669 408 l 908 65 q 913 21 924 42 q 875 0 903 0 l 611 0 q 593 6 604 0 q 578 18 582 11 l 465 183 l 346 18 q 331 6 343 11 q 313 0 319 0 l 75 0 q 36 22 47 0 q 40 65 25 43 l 285 394 l 49 732 q 44 776 33 754 q 82 797 54 797 l 344 797 q 364 792 353 797 q 379 779 375 786 l 486 622 l 597 779 q 612 792 600 786 q 631 797 624 797 l 872 797 q 911 776 900 797 q 906 732 922 754 "},"y":{"ha":1004,"x_min":44,"x_max":999,"o":"m 726 803 l 951 803 q 988 785 976 803 q 989 744 999 767 l 599 -140 q 583 -158 594 -150 q 560 -165 571 -165 l 332 -165 q 296 -147 308 -165 q 294 -107 283 -129 l 388 106 l 57 742 q 56 784 44 765 q 93 803 67 803 l 368 803 q 391 795 379 803 q 406 778 403 788 l 553 456 l 688 776 q 703 795 692 788 q 726 803 715 803 "},"z":{"ha":788,"x_min":31,"x_max":757,"o":"m 90 797 l 701 797 q 730 785 718 797 q 742 756 742 774 l 742 575 l 469 272 l 715 272 q 744 260 732 272 q 757 231 757 247 l 757 42 q 744 12 757 24 q 715 0 732 0 l 71 0 q 42 12 54 0 q 31 42 31 24 l 31 214 l 303 525 l 90 525 q 62 538 74 525 q 50 567 50 550 l 50 756 q 62 785 50 774 q 90 797 74 797 "},"{":{"ha":525,"x_min":31,"x_max":494,"o":"m 31 411 l 31 533 q 42 564 31 551 q 68 576 53 576 q 112 592 96 578 q 128 626 128 606 l 128 907 q 178 1053 128 988 q 347 1121 231 1121 l 457 1121 q 483 1108 472 1121 q 494 1078 494 1096 l 494 956 q 483 925 494 938 q 457 913 472 913 l 392 913 q 373 904 381 913 q 365 872 365 896 l 365 621 q 306 472 365 519 q 365 324 365 425 l 365 72 q 392 32 365 32 l 457 32 q 483 19 472 32 q 494 -10 494 7 l 494 -132 q 483 -162 494 -150 q 457 -175 472 -175 l 347 -175 q 178 -108 229 -175 q 128 39 128 -44 l 128 318 q 112 353 128 339 q 68 368 96 367 q 42 381 53 368 q 31 411 31 393 "},"|":{"ha":276,"x_min":31,"x_max":246,"o":"m 31 25 l 31 1049 q 40 1078 31 1065 q 63 1090 49 1090 l 213 1090 q 235 1078 225 1090 q 246 1049 246 1065 l 246 25 q 236 -4 246 8 q 214 -17 226 -17 l 64 -17 q 40 -4 50 -17 q 31 25 31 8 "},"}":{"ha":524,"x_min":31,"x_max":493,"o":"m 493 533 l 493 411 q 482 381 493 393 q 456 368 471 368 q 412 353 428 367 q 396 318 396 339 l 396 39 q 346 -107 396 -43 q 178 -175 293 -175 l 69 -175 q 42 -162 54 -175 q 31 -132 31 -150 l 31 -10 q 42 19 31 7 q 69 32 54 32 l 133 32 q 160 72 160 32 l 160 324 q 218 472 160 426 q 160 621 160 518 l 160 872 q 152 904 160 896 q 133 913 144 913 l 69 913 q 42 925 54 913 q 31 956 31 938 l 31 1078 q 42 1108 31 1096 q 69 1121 54 1121 l 178 1121 q 346 1051 293 1121 q 396 907 396 989 l 396 626 q 412 592 396 606 q 456 576 428 578 q 482 564 471 576 q 493 533 493 551 "},"~":{"ha":824,"x_min":31,"x_max":793,"o":"m 264 268 q 217 248 239 268 q 172 197 194 228 q 133 179 157 178 q 100 203 110 181 l 33 356 q 32 373 31 363 q 36 389 33 383 q 68 424 50 406 q 114 465 86 443 q 254 514 175 514 q 443 468 336 514 q 561 429 533 429 q 608 451 586 429 q 654 503 631 472 q 692 519 669 522 q 725 493 715 517 l 790 340 q 792 326 793 336 q 789 310 792 315 q 711 233 764 276 q 569 183 646 183 q 481 194 529 183 q 381 229 433 206 q 264 268 290 268 "},"":{"ha":297,"x_min":31,"x_max":267,"o":"m 267 124 l 267 -79 l 206 -258 q 193 -275 203 -268 q 175 -282 183 -282 l 90 -282 q 61 -266 71 -282 q 58 -231 51 -250 l 100 -110 l 64 -110 q 40 -99 50 -110 q 31 -72 31 -87 l 31 124 q 40 151 31 139 q 64 163 50 163 l 233 163 q 257 151 247 163 q 267 124 267 139 "},"":{"ha":914,"x_min":29,"x_max":885,"o":"m 685 1118 q 732 1117 708 1118 q 783 1108 756 1115 l 803 1104 q 851 1094 843 1096 q 876 1075 867 1090 q 882 1044 885 1060 l 846 824 q 822 791 842 800 q 783 793 803 782 q 749 808 768 803 q 715 813 731 813 q 696 801 704 813 q 681 771 688 790 l 747 771 q 777 758 765 771 q 789 728 789 746 l 789 585 q 777 556 789 568 q 747 543 765 543 l 636 543 l 568 206 q 515 35 547 103 q 449 -67 483 -32 q 225 -142 374 -142 q 131 -133 178 -142 q 92 -126 108 -129 q 61 -118 75 -122 q 38 -99 46 -112 q 32 -69 29 -85 l 72 165 q 84 189 75 179 q 104 201 93 199 q 127 199 115 203 q 147 182 139 194 q 163 173 151 178 q 188 168 175 168 q 214 185 203 168 q 236 246 225 201 l 236 243 l 290 543 l 239 543 q 210 556 222 543 q 197 585 197 568 l 197 728 q 210 758 197 746 q 239 771 222 771 l 344 771 q 463 1036 383 957 q 556 1100 506 1082 q 685 1118 607 1118 "},"":{"ha":596,"x_min":31,"x_max":572,"o":"m 572 124 l 572 -79 l 511 -258 q 499 -275 508 -268 q 481 -282 489 -282 l 396 -282 q 367 -266 376 -282 q 364 -231 357 -250 l 406 -110 l 369 -110 q 346 -99 356 -110 q 336 -72 336 -87 l 336 124 q 346 151 336 139 q 369 163 356 163 l 539 163 q 563 151 553 163 q 572 124 572 139 m 267 124 l 267 -79 l 206 -258 q 193 -275 203 -268 q 175 -282 183 -282 l 90 -282 q 61 -266 71 -282 q 58 -231 51 -250 l 100 -110 l 64 -110 q 40 -99 50 -110 q 31 -72 31 -87 l 31 124 q 40 151 31 139 q 64 163 50 163 l 233 163 q 257 151 247 163 q 267 124 267 139 "},"":{"ha":1228,"x_min":31,"x_max":1197,"o":"m 529 272 l 697 272 q 722 263 711 272 q 732 238 732 253 l 732 35 q 722 10 732 19 q 699 0 713 0 l 529 0 q 505 10 515 0 q 494 35 494 19 l 494 238 q 504 263 494 253 q 529 272 514 272 m 994 272 l 1163 272 q 1187 263 1176 272 q 1197 238 1197 253 l 1197 35 q 1188 10 1197 19 q 1164 0 1178 0 l 994 0 q 970 10 981 0 q 960 35 960 19 l 960 238 q 969 263 960 253 q 994 272 979 272 m 64 272 l 233 272 q 258 263 247 272 q 268 238 268 253 l 268 35 q 258 10 268 19 q 235 0 249 0 l 65 0 q 41 10 51 0 q 31 35 31 19 l 31 238 q 40 263 31 253 q 64 272 50 272 "},"":{"ha":669,"x_min":31,"x_max":639,"o":"m 454 1049 l 413 819 l 590 863 q 624 856 610 868 q 639 821 639 843 l 639 650 q 624 617 639 629 q 590 610 610 606 l 418 649 l 458 485 l 403 -103 q 390 -129 401 -118 q 363 -140 378 -140 l 306 -140 q 278 -129 290 -140 q 265 -103 267 -118 l 210 485 l 250 649 l 78 610 q 44 617 58 606 q 31 650 31 629 l 31 821 q 44 856 31 843 q 78 863 58 868 l 254 819 l 215 1049 q 223 1085 213 1069 q 253 1100 233 1100 l 415 1100 q 447 1085 435 1100 q 454 1049 458 1069 "},"":{"ha":669,"x_min":31,"x_max":639,"o":"m 451 1049 l 413 818 l 590 861 q 624 854 610 867 q 639 819 639 842 l 639 649 q 624 616 639 628 q 590 608 610 604 l 418 649 l 457 483 l 417 308 l 590 349 q 624 341 610 353 q 639 308 639 329 l 639 138 q 624 103 639 115 q 590 96 610 92 l 413 138 l 454 -90 q 447 -126 458 -111 q 415 -140 435 -140 l 253 -140 q 223 -126 233 -140 q 215 -90 213 -111 l 254 138 l 78 96 q 44 103 58 90 q 31 138 31 115 l 31 308 q 44 341 31 329 q 78 349 58 353 l 251 308 l 211 483 l 251 649 l 78 608 q 44 616 58 604 q 31 649 31 628 l 31 819 q 44 854 31 842 q 78 861 58 867 l 256 818 l 217 1049 q 225 1085 214 1069 q 256 1100 236 1100 l 413 1100 q 443 1085 432 1100 q 451 1049 454 1069 "},"":{"ha":779,"x_min":25,"x_max":754,"o":"m 39 928 l 225 1197 q 240 1208 229 1203 q 260 1214 251 1214 l 521 1214 q 540 1208 529 1214 q 554 1197 550 1203 l 740 928 q 743 890 754 908 q 706 872 732 872 l 524 872 q 506 878 517 872 q 490 888 494 883 l 390 1011 l 288 888 q 273 877 285 882 q 254 872 261 872 l 74 872 q 36 890 47 872 q 39 928 25 908 "},"":{"ha":2369,"x_min":31,"x_max":2339,"o":"m 406 1119 l 407 1119 q 561 1097 492 1119 q 680 1033 631 1075 q 756 929 729 990 q 782 792 782 868 q 676 550 782 640 q 408 463 574 463 q 252 485 322 463 q 133 551 182 508 q 57 654 83 593 q 31 792 31 715 q 135 1032 31 942 q 253 1097 186 1075 q 406 1119 319 1119 m 411 958 l 410 958 q 330 918 351 958 q 308 790 308 878 q 329 664 308 704 q 406 624 350 624 q 483 664 461 624 q 504 788 504 704 q 484 916 504 874 q 411 958 464 958 m 1181 508 l 1182 508 q 1336 486 1267 508 q 1455 422 1406 464 q 1531 319 1504 379 q 1557 182 1557 258 q 1530 46 1557 106 q 1451 -58 1503 -14 q 1183 -146 1347 -146 q 1027 -124 1097 -146 q 908 -59 957 -101 q 831 44 858 -17 q 804 182 804 104 q 908 422 804 332 q 1181 508 1011 508 m 1186 350 l 1185 350 q 1104 309 1126 350 q 1082 181 1082 268 q 1103 54 1082 94 q 1181 14 1125 14 q 1258 54 1236 14 q 1279 178 1279 94 q 1259 307 1279 264 q 1186 350 1239 350 m 1961 508 l 1963 508 q 2118 486 2049 508 q 2237 422 2188 464 q 2313 319 2286 379 q 2339 182 2339 258 q 2312 46 2339 106 q 2233 -58 2285 -14 q 1964 -146 2129 -146 q 1808 -124 1878 -146 q 1690 -59 1739 -101 q 1613 44 1640 -17 q 1586 182 1586 104 q 1690 422 1586 332 q 1961 508 1793 508 m 1967 350 q 1885 309 1907 350 q 1864 181 1864 268 q 1885 54 1864 94 q 1961 14 1906 14 q 2038 54 2017 14 q 2060 178 2060 94 q 2040 308 2060 265 q 1967 350 2019 350 m 1210 1121 l 1372 1119 q 1414 1095 1403 1119 q 1407 1049 1425 1071 l 390 -125 q 374 -136 385 -131 q 357 -142 364 -142 l 196 -142 q 153 -118 165 -142 q 161 -71 142 -94 l 1176 1104 q 1192 1115 1182 1110 q 1210 1121 1203 1121 "},"":{"ha":1014,"x_min":31,"x_max":983,"o":"m 983 353 q 949 194 983 263 q 852 78 915 125 q 698 8 789 32 q 493 -17 607 -17 q 372 -12 432 -17 q 251 3 311 -7 q 227 7 238 6 q 206 11 217 8 l 206 10 q 137 23 165 17 q 93 32 108 29 q 71 46 81 35 q 60 69 61 57 l 38 333 q 54 373 35 360 q 97 375 74 386 q 286 299 165 342 q 513 257 411 257 q 613 272 575 257 q 651 317 651 288 q 629 347 651 332 q 465 394 593 369 q 132 521 225 443 q 31 754 31 604 q 155 1019 31 929 q 501 1110 279 1110 q 708 1090 599 1110 q 801 1072 761 1081 q 867 1056 840 1064 q 887 1042 878 1053 q 897 1019 896 1031 l 925 776 q 908 735 928 750 q 865 733 889 721 q 775 772 822 754 q 676 806 728 790 q 492 835 574 835 q 395 825 429 835 q 361 792 361 815 q 396 757 361 769 q 474 733 428 746 q 582 708 519 719 q 890 581 807 664 q 983 353 983 492 m 196 1457 l 376 1457 q 395 1453 383 1457 q 410 1443 407 1449 l 514 1318 l 615 1443 q 631 1453 621 1449 q 649 1457 642 1457 l 831 1457 q 869 1440 857 1457 q 867 1403 881 1422 l 681 1133 q 665 1121 675 1126 q 646 1115 654 1115 l 385 1115 q 365 1121 376 1115 q 350 1133 354 1126 l 163 1403 q 159 1440 149 1422 q 196 1457 169 1457 "},"":{"ha":553,"x_min":32,"x_max":528,"o":"m 511 665 l 292 393 l 511 119 q 518 76 528 99 q 482 54 508 54 l 301 54 q 285 59 294 54 q 271 68 275 64 l 39 367 q 32 392 32 378 q 39 418 32 407 l 271 717 q 285 727 275 722 q 301 732 294 732 l 482 732 q 518 709 508 732 q 511 665 528 686 "},"":{"ha":1876,"x_min":31,"x_max":1846,"o":"m 953 43 l 953 74 q 915 49 935 60 q 876 26 896 38 l 876 28 q 614 -17 788 -17 q 190 136 349 -17 q 31 546 31 290 q 190 957 31 803 q 615 1110 351 1110 q 801 1085 717 1110 q 953 1017 886 1060 l 953 1050 q 965 1079 953 1067 q 997 1092 978 1092 l 1763 1092 q 1793 1079 1781 1092 q 1806 1050 1806 1067 l 1806 846 q 1793 817 1806 829 q 1763 804 1781 804 l 1354 804 l 1354 692 l 1690 692 q 1722 680 1708 692 q 1735 650 1735 668 l 1735 450 q 1722 419 1735 432 q 1690 407 1708 407 l 1354 406 l 1354 288 l 1801 288 q 1833 275 1819 288 q 1846 246 1846 263 l 1846 43 q 1833 13 1846 25 q 1801 0 1819 0 l 997 0 q 965 13 978 0 q 953 43 953 25 m 667 788 q 493 722 558 788 q 425 549 425 656 q 490 371 425 436 q 664 307 554 307 q 844 368 772 307 q 914 544 914 429 l 914 557 q 843 725 914 663 q 667 788 769 788 "},"":{"ha":297,"x_min":31,"x_max":267,"o":"m 31 711 l 31 914 l 92 1093 q 103 1110 94 1103 q 122 1118 113 1118 l 207 1118 q 236 1101 226 1118 q 239 1065 246 1085 l 196 944 l 233 944 q 257 933 247 944 q 267 907 267 922 l 267 711 q 257 685 267 696 q 233 674 247 674 l 64 674 q 40 685 50 674 q 31 711 31 696 "},"":{"ha":297,"x_min":31,"x_max":267,"o":"m 267 1079 l 267 876 l 206 697 q 193 681 203 688 q 175 674 183 674 l 90 674 q 61 690 71 674 q 58 725 51 706 l 100 846 l 64 846 q 40 857 50 846 q 31 883 31 868 l 31 1079 q 40 1106 31 1094 q 64 1118 50 1118 l 233 1118 q 257 1106 247 1118 q 267 1079 267 1094 "},"":{"ha":606,"x_min":31,"x_max":572,"o":"m 336 711 l 336 914 l 397 1093 q 409 1110 400 1103 q 428 1118 418 1118 l 513 1118 q 542 1101 532 1118 q 544 1065 551 1085 l 501 944 l 539 944 q 563 933 553 944 q 572 907 572 922 l 572 711 q 563 685 572 696 q 539 674 553 674 l 369 674 q 346 685 356 674 q 336 711 336 696 m 31 711 l 31 914 l 92 1093 q 103 1110 94 1103 q 122 1118 113 1118 l 207 1118 q 236 1101 226 1118 q 239 1065 246 1085 l 196 944 l 233 944 q 257 933 247 944 q 267 907 267 922 l 267 711 q 257 685 267 696 q 233 674 247 674 l 64 674 q 40 685 50 674 q 31 711 31 696 "},"":{"ha":606,"x_min":31,"x_max":572,"o":"m 572 1079 l 572 876 l 511 697 q 499 681 508 688 q 481 674 489 674 l 396 674 q 367 690 376 674 q 364 725 357 706 l 406 846 l 369 846 q 346 857 356 846 q 336 883 336 868 l 336 1079 q 346 1106 336 1094 q 369 1118 356 1118 l 539 1118 q 563 1106 553 1118 q 572 1079 572 1094 m 267 1079 l 267 876 l 206 697 q 193 681 203 688 q 175 674 183 674 l 90 674 q 61 690 71 674 q 58 725 51 706 l 100 846 l 64 846 q 40 857 50 846 q 31 883 31 868 l 31 1079 q 40 1106 31 1094 q 64 1118 50 1118 l 233 1118 q 257 1106 247 1118 q 267 1079 267 1094 "},"":{"ha":610,"x_min":64,"x_max":546,"o":"m 304 744 l 306 744 q 474 675 404 744 q 546 504 546 606 q 475 335 546 404 q 306 264 406 264 q 135 335 204 264 q 64 504 64 406 q 133 674 64 604 q 211 728 169 711 q 304 744 253 744 "},"":{"ha":756,"x_min":31,"x_max":725,"o":"m 71 506 l 685 506 q 713 497 701 506 q 725 475 725 488 l 725 339 q 713 316 725 325 q 685 307 701 307 l 71 307 q 42 316 54 307 q 31 339 31 325 l 31 475 q 42 497 31 488 q 71 506 54 506 "},"":{"ha":1450,"x_min":31,"x_max":1419,"o":"m 74 544 l 1376 544 q 1407 535 1394 544 q 1419 514 1419 526 l 1419 378 q 1407 355 1419 364 q 1376 346 1394 346 l 74 346 q 43 355 56 346 q 31 378 31 364 l 31 514 q 43 535 31 526 q 74 544 56 544 "},"":{"ha":828,"x_min":29,"x_max":797,"o":"m 757 1160 l 797 1119 q 705 929 774 988 q 543 871 636 871 q 392 908 471 871 q 282 939 331 939 q 240 892 249 939 q 226 871 238 879 q 201 863 215 863 l 74 863 q 42 874 54 863 q 32 903 29 886 q 124 1094 56 1036 q 286 1151 192 1151 q 436 1114 357 1151 q 547 1085 494 1085 q 588 1132 576 1085 q 601 1151 590 1143 q 626 1160 613 1160 l 757 1160 "},"":{"ha":1328,"x_min":31,"x_max":1297,"o":"m 1297 978 l 1297 485 q 1285 458 1297 469 q 1254 446 1272 446 l 1108 446 q 1079 458 1092 446 q 1067 485 1067 469 l 1067 574 l 1031 472 q 1014 453 1026 461 q 990 446 1001 446 l 883 446 q 860 453 872 446 q 843 472 847 461 l 797 592 l 797 485 q 785 458 797 469 q 754 446 772 446 l 617 446 q 585 458 599 446 q 572 485 572 469 l 572 978 q 585 1006 572 994 q 615 1018 597 1018 l 817 1018 q 841 1010 828 1018 q 857 993 854 1003 l 936 793 l 1015 992 q 1032 1010 1019 1001 q 1056 1018 1044 1018 l 1253 1018 q 1284 1006 1271 1018 q 1297 978 1297 994 m 514 836 l 410 836 l 410 485 q 397 458 410 469 q 367 446 385 446 l 222 446 q 192 458 204 446 q 179 485 179 469 l 179 836 l 74 836 q 44 848 57 836 q 31 876 31 860 l 31 978 q 43 1006 31 994 q 72 1018 56 1018 l 514 1018 q 545 1006 532 1018 q 558 978 558 994 l 558 876 q 546 848 558 860 q 514 836 533 836 "},"":{"ha":782,"x_min":25,"x_max":757,"o":"m 717 240 q 629 49 717 115 q 386 -18 542 -18 q 227 -6 301 -18 q 90 26 153 6 q 72 39 81 29 q 63 60 64 49 l 44 231 q 59 269 42 256 q 100 272 76 283 q 140 256 113 267 q 207 231 167 246 q 367 200 286 200 q 408 205 393 200 q 424 221 424 210 q 385 254 424 239 q 282 293 347 269 l 282 292 q 146 361 229 308 q 53 551 53 421 q 151 754 53 682 q 386 818 242 818 q 453 813 419 818 q 519 801 488 808 q 576 785 550 794 q 622 768 603 776 q 639 753 632 765 q 646 729 646 740 l 646 565 q 625 527 646 538 q 583 532 604 517 q 559 545 578 535 q 508 571 540 556 q 392 601 447 601 q 358 594 371 601 q 346 576 346 586 q 383 538 346 557 q 506 488 421 519 q 661 391 606 450 q 717 240 717 332 m 74 1214 l 254 1214 q 273 1210 261 1214 q 288 1200 285 1206 l 392 1075 l 493 1200 q 508 1210 497 1206 q 526 1214 519 1214 l 708 1214 q 746 1197 735 1214 q 743 1160 757 1179 l 557 890 q 541 878 551 883 q 522 872 531 872 l 261 872 q 242 878 253 872 q 226 890 231 883 l 39 1160 q 36 1197 25 1179 q 74 1214 47 1214 "},"":{"ha":549,"x_min":29,"x_max":521,"o":"m 75 54 q 39 76 49 54 q 46 119 29 99 l 260 393 l 46 665 q 39 709 29 686 q 75 732 49 732 l 253 732 q 270 727 260 732 q 283 717 281 722 l 514 418 q 521 393 521 408 q 514 367 521 378 l 283 68 q 270 59 281 64 q 253 54 260 54 l 75 54 "},"":{"ha":1496,"x_min":31,"x_max":1471,"o":"m 1119 -17 q 933 5 1014 -17 q 790 76 853 26 q 660 8 738 33 q 496 -17 582 -17 q 157 94 281 -17 q 31 400 31 208 q 157 707 31 593 q 496 818 283 818 q 592 810 544 818 q 683 783 639 801 l 682 785 q 785 728 742 763 q 892 793 829 768 q 1053 818 954 818 q 1351 701 1238 818 q 1440 569 1408 643 q 1464 404 1471 496 l 1460 342 q 1446 315 1458 326 q 1417 303 1433 303 l 969 303 q 996 268 981 279 q 1165 225 1049 225 q 1278 238 1225 225 q 1322 249 1306 244 q 1343 256 1338 253 q 1377 256 1360 263 q 1401 233 1394 249 l 1454 103 q 1455 74 1461 89 q 1436 53 1449 60 q 1372 24 1408 36 q 1294 2 1336 11 q 1208 -12 1253 -7 q 1119 -17 1163 -17 m 644 400 q 604 522 644 478 q 490 565 564 565 q 376 522 417 565 q 336 400 336 478 q 376 278 336 322 q 490 235 417 235 q 604 278 564 235 q 644 400 644 322 m 979 550 q 956 488 964 526 l 1142 488 q 1112 563 1135 536 q 1053 590 1089 590 q 979 550 1003 590 "},"":{"ha":1449,"x_min":24,"x_max":1425,"o":"m 1043 1089 l 1372 1089 q 1413 1065 1401 1089 q 1407 1019 1425 1042 l 924 436 l 924 42 q 911 13 924 25 q 881 0 899 0 l 569 0 q 540 13 553 0 q 528 42 528 25 l 528 436 l 43 1019 q 35 1065 24 1042 q 76 1089 47 1089 l 436 1089 q 454 1084 443 1089 q 469 1074 465 1079 l 751 725 l 1008 1071 q 1024 1083 1011 1078 q 1043 1089 1036 1089 m 826 1371 l 1046 1371 q 1074 1361 1063 1371 q 1086 1338 1086 1351 l 1086 1160 q 1074 1136 1086 1146 q 1046 1126 1063 1126 l 826 1126 q 799 1136 811 1126 q 786 1160 786 1146 l 786 1338 q 799 1361 786 1351 q 826 1371 811 1371 m 422 1371 l 640 1371 q 669 1361 657 1371 q 681 1338 681 1351 l 681 1160 q 669 1136 681 1146 q 640 1126 657 1126 l 422 1126 q 394 1136 406 1126 q 382 1160 382 1146 l 382 1338 q 394 1361 382 1351 q 422 1371 406 1371 "},"":{"ha":317,"x_min":31,"x_max":286,"o":"m 31 -117 l 31 154 l 74 542 q 85 567 76 557 q 107 578 94 578 l 208 578 q 231 567 221 578 q 243 542 240 557 l 286 157 l 286 -117 q 276 -147 286 -135 q 251 -158 267 -158 l 64 -158 q 40 -147 50 -158 q 31 -117 31 -135 m 244 626 l 71 626 q 47 639 57 626 q 38 668 38 651 l 38 886 q 47 917 38 904 q 71 929 57 929 l 244 929 q 268 917 258 929 q 278 886 278 904 l 278 668 q 268 639 278 651 q 244 626 258 626 "},"":{"ha":789,"x_min":31,"x_max":763,"o":"m 315 -232 l 196 -232 q 163 -215 174 -232 q 158 -175 151 -199 l 232 49 q 183 80 204 64 q 144 114 163 96 q 59 250 88 174 q 31 424 31 326 q 59 607 31 528 q 146 747 88 686 q 456 868 260 868 q 479 868 468 868 q 501 867 490 868 l 560 1040 q 576 1060 564 1051 q 599 1069 588 1069 l 718 1069 q 751 1052 740 1069 q 756 1013 763 1035 l 690 814 q 704 799 697 808 q 711 781 711 789 l 729 592 q 711 550 732 564 q 667 551 690 536 q 645 564 658 557 q 613 579 632 571 l 511 269 q 600 293 547 274 q 638 308 624 303 q 661 317 653 313 l 658 317 q 671 323 665 321 q 686 325 676 325 q 717 310 706 325 q 726 276 729 296 l 701 83 q 694 65 700 76 q 681 50 688 54 q 647 37 669 44 q 589 19 625 29 q 446 0 514 0 l 421 0 l 354 -204 q 338 -224 350 -215 q 315 -232 326 -232 m 329 425 q 331 392 329 407 q 336 363 332 376 l 417 604 q 352 541 375 588 q 329 425 329 494 m 576 596 q 586 592 578 592 q 576 596 578 594 "},"":{"ha":1072,"x_min":31,"x_max":1042,"o":"m 31 135 q 47 214 31 176 q 92 280 63 251 q 166 326 122 308 q 265 349 210 344 l 235 451 l 75 451 q 45 463 57 451 q 33 493 33 475 l 33 635 q 45 664 33 651 q 75 676 57 676 l 164 676 q 155 740 157 704 q 153 817 153 775 q 182 935 153 881 q 274 1031 211 989 q 579 1110 386 1110 q 672 1104 624 1110 q 768 1089 719 1099 q 860 1065 819 1078 q 933 1033 901 1053 q 952 1010 947 1026 q 951 981 957 994 l 886 825 q 863 801 879 807 q 829 803 846 794 q 695 856 747 842 q 600 871 643 871 q 524 850 551 871 q 496 781 497 829 q 500 727 496 754 q 510 676 504 700 l 706 676 q 735 664 722 676 q 747 635 747 651 l 747 493 q 735 463 747 475 q 706 451 722 451 l 550 451 q 552 430 551 440 q 553 407 553 419 q 551 364 553 383 q 546 326 550 344 q 591 316 568 321 q 638 304 614 311 q 697 292 669 297 q 744 288 724 288 q 801 333 789 288 l 808 393 q 823 420 811 408 q 850 432 835 432 l 999 432 q 1030 419 1018 432 q 1042 388 1042 407 l 1040 324 q 1018 156 1038 224 q 954 53 999 89 q 733 -17 872 -17 q 567 13 643 -17 q 428 86 490 42 q 313 11 375 33 q 189 -11 251 -11 q 66 28 101 -11 q 31 135 31 68 "},"":{"ha":1353,"x_min":31,"x_max":1324,"o":"m 1254 482 l 561 482 q 644 335 578 393 q 889 260 733 260 q 1096 285 996 260 l 1093 285 q 1188 313 1146 300 q 1264 339 1231 325 q 1305 335 1286 347 q 1322 299 1324 322 l 1318 90 q 1310 67 1318 79 q 1290 51 1301 56 q 1081 0 1194 17 q 836 -17 968 -17 q 356 122 529 -17 q 175 482 189 253 l 46 482 q 31 497 31 482 q 46 513 31 513 l 174 513 l 174 528 q 176 583 174 556 q 181 635 178 610 l 46 635 q 31 650 31 635 q 46 665 31 665 l 186 665 q 388 997 225 883 q 822 1110 551 1110 q 1063 1092 957 1110 q 1243 1050 1168 1075 q 1263 1036 1254 1047 q 1272 1014 1271 1025 l 1288 810 q 1272 772 1290 785 q 1232 767 1254 758 q 1075 814 1171 789 q 981 833 1028 826 q 888 840 935 840 q 692 795 771 840 q 581 665 614 750 l 1254 665 q 1269 650 1269 665 q 1254 635 1269 635 l 571 635 q 558 536 558 589 l 557 536 q 557 524 557 529 q 558 513 557 519 l 1254 513 q 1269 497 1269 513 q 1254 482 1269 482 "},"":{"ha":1201,"x_min":25,"x_max":1178,"o":"m 149 469 l 413 469 l 401 486 l 149 486 q 119 499 132 486 q 107 529 107 511 l 107 669 q 119 700 107 688 q 149 713 132 713 l 250 713 l 40 1024 q 36 1068 25 1047 q 75 1089 47 1089 l 336 1089 q 355 1083 343 1089 q 369 1069 367 1076 l 600 728 l 849 1071 q 863 1083 851 1078 q 883 1089 875 1089 l 1128 1089 q 1166 1068 1154 1089 q 1163 1024 1178 1047 l 1129 971 l 954 713 l 1051 713 q 1082 700 1069 713 q 1094 669 1094 688 l 1094 529 q 1082 499 1094 511 q 1051 486 1069 486 l 801 486 l 788 469 l 1051 469 q 1082 457 1069 469 q 1094 426 1094 444 l 1094 286 q 1082 256 1094 268 q 1051 243 1069 243 l 763 243 l 763 42 q 750 13 763 25 q 719 0 738 0 l 481 0 q 451 13 463 0 q 439 42 439 25 l 439 243 l 149 243 q 119 256 132 243 q 107 286 107 268 l 107 426 q 119 457 107 444 q 149 469 132 469 "},"":{"ha":276,"x_min":31,"x_max":246,"o":"m 31 671 l 31 1049 q 40 1078 31 1065 q 63 1090 49 1090 l 213 1090 q 235 1078 225 1090 q 246 1049 246 1065 l 246 671 q 236 641 246 653 q 214 629 226 629 l 64 629 q 40 641 50 629 q 31 671 31 653 m 31 25 l 31 401 q 40 432 31 419 q 63 444 49 444 l 213 444 q 235 432 225 444 q 246 401 246 419 l 246 25 q 236 -4 246 8 q 214 -17 226 -17 l 64 -17 q 40 -4 50 -17 q 31 25 31 8 "},"":{"ha":704,"x_min":31,"x_max":674,"o":"m 644 286 q 563 217 622 243 q 600 86 600 157 q 522 -81 600 -17 l 525 -81 q 353 -140 457 -140 q 266 -130 308 -140 q 188 -96 224 -119 q 81 7 113 -49 q 74 39 71 22 q 90 65 78 56 l 194 142 q 226 149 210 153 q 251 131 242 146 q 297 76 275 90 q 342 63 319 63 q 367 74 351 63 q 375 83 375 82 q 358 119 375 99 q 318 165 342 140 l 318 164 l 136 347 l 140 346 q 94 396 114 368 q 60 454 74 424 q 38 515 46 485 q 31 569 31 544 q 60 669 31 615 q 142 742 85 714 q 114 803 122 772 q 106 871 106 835 q 183 1039 106 975 l 181 1039 q 351 1100 247 1100 q 515 1054 442 1100 q 578 1006 551 1031 q 622 950 606 981 q 627 920 629 936 q 614 893 625 904 l 511 815 q 480 808 496 804 q 454 826 464 811 q 406 881 428 867 q 363 896 385 896 q 340 885 356 896 q 331 874 331 879 q 347 838 331 858 q 386 792 363 817 l 386 793 l 568 610 l 564 611 q 610 560 590 589 q 644 502 631 532 q 666 442 658 472 q 674 388 674 413 q 644 286 674 340 m 294 575 l 296 575 q 278 591 286 585 q 264 600 271 597 q 249 594 256 599 q 243 581 243 589 q 276 515 243 551 q 319 472 296 494 q 371 419 343 449 l 390 399 q 399 391 394 396 q 408 381 403 386 l 408 382 q 427 364 418 371 q 443 357 436 357 q 456 362 450 357 q 463 375 463 367 q 431 435 463 403 q 354 518 400 468 q 333 540 343 529 q 313 561 324 550 l 313 558 q 305 567 308 563 q 294 575 301 572 "},"":{"ha":767,"x_min":31,"x_max":736,"o":"m 476 1169 l 694 1169 q 724 1160 711 1169 q 736 1136 736 1150 l 736 958 q 724 935 736 944 q 696 925 713 925 l 476 925 q 448 935 461 925 q 435 958 435 944 l 435 1136 q 447 1160 435 1150 q 476 1169 460 1169 m 71 1169 l 289 1169 q 318 1160 306 1169 q 331 1136 331 1150 l 331 958 q 319 935 331 944 q 290 925 307 925 l 72 925 q 43 935 56 925 q 31 958 31 944 l 31 1136 q 42 1160 31 1150 q 71 1169 54 1169 "},"":{"ha":1111,"x_min":-26,"x_max":1138,"o":"m 556 1125 l 554 1125 q 967 956 794 1125 q 1138 544 1138 785 q 967 135 1138 303 q 557 -36 796 -36 q 144 133 317 -36 q -26 544 -26 304 q 144 954 -26 785 q 556 1125 315 1125 m 557 972 q 254 847 376 972 q 128 544 128 718 q 253 243 128 368 q 554 117 378 117 q 857 242 733 117 q 983 544 983 371 q 858 846 983 718 q 557 972 732 972 m 843 646 l 715 646 q 676 719 707 689 q 575 750 647 750 q 464 693 501 750 q 424 551 424 633 q 464 410 424 467 q 578 353 504 353 q 672 379 636 353 q 714 457 710 407 l 843 457 q 757 282 839 342 q 582 222 675 222 q 354 313 444 222 q 263 550 263 401 q 344 785 263 692 q 568 876 425 876 q 758 821 679 876 q 843 646 838 764 "},"":{"ha":640,"x_min":31,"x_max":611,"o":"m 499 511 q 445 523 471 511 q 400 551 419 535 q 317 522 361 533 q 226 511 272 511 q 81 554 132 511 q 31 668 31 597 q 58 753 31 717 q 138 810 86 789 q 116 815 126 810 q 100 832 106 821 l 67 900 q 65 926 61 911 q 79 947 68 940 q 110 965 90 956 q 163 986 131 974 q 313 1013 228 1013 q 510 965 447 1013 q 572 806 572 918 l 572 651 q 595 643 586 651 q 608 624 604 635 q 608 602 611 614 q 593 582 604 590 l 499 511 m 278 664 q 321 669 301 664 q 356 681 340 674 l 356 690 q 249 668 249 689 q 278 664 249 664 m 301 853 q 232 843 265 853 q 172 824 199 833 q 229 836 199 831 q 294 839 260 842 l 347 836 q 301 853 335 853 "},"":{"ha":950,"x_min":32,"x_max":925,"o":"m 908 665 l 689 393 l 908 119 q 915 76 925 99 q 879 54 906 54 l 699 54 q 682 59 692 54 q 668 68 672 64 l 436 367 q 429 392 429 378 q 436 418 429 407 l 668 717 q 682 727 672 722 q 699 732 692 732 l 879 732 q 915 709 906 732 q 908 665 925 686 m 511 665 l 292 393 l 511 119 q 518 76 528 99 q 482 54 508 54 l 301 54 q 285 59 294 54 q 271 68 275 64 l 39 367 q 32 392 32 378 q 39 418 32 407 l 271 717 q 285 727 275 722 q 301 732 294 732 l 482 732 q 518 709 508 732 q 511 665 528 686 "},"":{"ha":861,"x_min":31,"x_max":831,"o":"m 554 136 l 554 407 l 74 407 q 44 419 57 407 q 31 447 31 431 l 31 633 q 43 662 31 650 q 72 674 56 674 l 789 674 q 818 662 806 674 q 831 633 831 650 l 831 136 q 819 109 831 121 q 790 97 807 97 l 596 97 q 567 109 579 97 q 554 136 554 121 "},"":{"ha":1111,"x_min":-26,"x_max":1138,"o":"m 556 1125 l 554 1125 q 967 956 794 1125 q 1138 544 1138 785 q 967 135 1138 303 q 557 -36 796 -36 q 144 133 317 -36 q -26 544 -26 304 q 144 954 -26 785 q 556 1125 315 1125 m 557 972 q 254 847 376 972 q 128 544 128 718 q 253 243 128 368 q 554 117 378 117 q 857 242 733 117 q 983 544 983 371 q 858 846 983 718 q 557 972 732 972 m 465 600 l 578 600 q 654 621 633 600 q 675 678 675 642 q 651 736 675 721 q 585 753 628 753 l 465 753 l 465 600 m 465 236 l 326 236 l 326 856 l 551 856 q 756 808 697 856 q 814 681 814 758 q 771 550 814 596 q 640 506 726 506 l 804 236 l 668 236 l 525 497 l 465 497 l 465 236 "},"":{"ha":904,"x_min":31,"x_max":874,"o":"m 853 532 q 803 338 853 421 l 861 279 q 873 251 874 267 q 861 222 872 235 l 764 124 q 735 112 751 111 q 707 124 718 113 l 647 183 q 453 133 564 133 q 258 182 339 133 l 200 124 q 171 112 188 111 q 143 124 154 113 l 43 222 q 31 251 32 233 q 43 281 31 269 l 103 339 q 54 532 54 422 q 103 726 54 643 l 43 785 q 31 814 31 796 q 43 843 31 832 l 142 940 q 169 953 154 953 q 199 942 186 953 l 260 882 q 350 919 301 906 q 453 932 399 932 q 647 882 564 932 l 707 940 q 735 952 719 951 q 764 940 751 953 l 861 843 q 874 814 874 831 q 861 785 874 797 l 803 726 q 840 635 826 683 q 853 532 853 588 m 453 686 q 344 642 392 686 q 299 532 299 596 q 344 424 299 467 q 453 378 390 378 q 563 424 517 378 q 607 532 607 468 q 563 642 607 594 q 453 686 518 686 "},"":{"ha":499,"x_min":31,"x_max":468,"o":"m 249 1133 l 250 1133 q 401 1069 338 1133 q 468 915 468 1003 q 403 761 468 825 q 250 697 339 697 q 96 761 160 697 q 31 915 31 826 q 94 1069 31 1006 q 249 1133 158 1133 m 250 969 l 249 969 q 210 953 225 969 q 194 915 194 938 q 210 876 194 892 q 249 861 225 861 q 287 876 271 861 q 303 915 303 892 q 288 953 303 938 q 250 969 274 969 "},"":{"ha":861,"x_min":31,"x_max":831,"o":"m 32 42 l 31 231 q 43 259 31 247 q 72 271 56 271 l 297 271 l 297 276 l 297 379 l 74 379 q 44 392 57 379 q 31 421 31 404 l 31 610 q 43 640 31 628 q 72 651 56 651 l 296 651 l 296 754 q 308 784 296 772 q 336 796 319 796 l 526 796 q 555 784 543 796 q 567 754 567 772 l 567 651 l 789 651 q 818 640 806 651 q 831 610 831 628 l 831 421 q 819 392 831 404 q 790 379 807 379 l 567 379 l 567 276 l 567 271 l 789 271 q 818 259 806 271 q 831 231 831 247 l 831 42 q 819 12 831 24 q 790 0 807 0 l 74 0 q 44 12 57 0 q 32 42 32 24 "},"":{"ha":632,"x_min":31,"x_max":601,"o":"m 31 428 l 31 501 q 35 519 31 508 q 44 532 40 529 l 285 738 l 283 738 q 322 776 304 756 q 340 814 340 797 q 288 851 340 851 q 192 821 244 851 q 149 792 165 806 q 122 767 132 778 q 101 752 114 756 q 78 753 89 749 q 60 767 68 757 q 53 792 53 776 l 53 939 q 58 954 53 944 q 65 968 63 964 q 171 1022 92 992 q 251 1045 211 1038 q 335 1053 292 1053 q 526 1001 456 1053 q 597 858 597 950 q 529 700 597 775 q 478 643 501 668 q 433 601 454 618 l 425 594 l 563 594 q 590 583 578 594 q 601 554 601 571 l 601 428 q 590 399 601 411 q 563 388 578 388 l 69 388 q 42 399 54 388 q 31 428 31 411 "},"":{"ha":643,"x_min":28,"x_max":611,"o":"m 61 881 l 60 1001 q 72 1029 60 1017 q 100 1042 83 1042 l 531 1042 q 560 1029 547 1042 q 572 1001 572 1017 l 572 904 q 567 888 572 899 q 558 874 563 878 l 460 788 q 572 719 533 767 q 611 599 611 671 q 537 432 611 486 q 321 378 463 378 q 229 385 274 378 q 146 410 185 393 q 79 440 104 428 q 44 461 54 451 q 31 484 33 469 q 32 510 28 499 l 83 622 q 108 644 92 639 q 139 640 124 649 q 167 626 150 635 q 213 606 183 618 l 210 606 q 319 585 257 585 q 353 590 340 585 q 367 606 367 594 q 353 628 367 617 q 313 640 342 636 q 240 644 285 643 q 212 656 224 644 q 200 685 200 668 l 200 774 q 205 790 200 779 q 214 803 210 800 l 254 840 l 101 840 q 73 853 85 840 q 61 881 61 865 "},"":{"ha":569,"x_min":25,"x_max":546,"o":"m 38 789 l 213 1058 q 227 1070 217 1065 q 246 1075 238 1075 l 499 1075 q 535 1055 525 1075 q 528 1015 546 1035 l 272 746 q 258 738 268 742 q 242 733 247 733 l 71 733 q 35 751 46 733 q 38 789 25 769 "},"":{"ha":886,"x_min":31,"x_max":856,"o":"m 856 772 l 856 42 q 844 13 856 25 q 815 0 832 0 l 632 0 q 609 7 621 0 q 594 24 597 14 l 574 68 q 468 13 522 32 q 353 -14 414 -7 l 353 -147 q 340 -178 353 -165 q 311 -190 328 -190 l 74 -190 q 44 -178 57 -190 q 31 -147 31 -165 l 31 772 q 43 802 31 790 q 72 814 56 814 l 310 814 q 339 802 326 814 q 351 772 351 790 l 351 336 q 404 242 351 242 q 474 258 428 242 l 471 258 q 535 286 506 272 l 535 772 q 547 802 535 790 q 576 814 560 814 l 814 814 q 843 802 831 814 q 856 772 856 790 "},"":{"ha":831,"x_min":31,"x_max":800,"o":"m 760 -140 l 619 -140 q 591 -128 603 -140 q 579 -99 579 -117 l 579 900 l 539 900 l 539 -99 q 527 -128 539 -117 q 497 -140 515 -140 l 357 -140 q 328 -128 340 -140 q 317 -99 317 -117 l 317 431 q 98 519 165 439 q 31 771 31 600 q 54 903 31 844 q 122 1007 78 963 q 356 1100 215 1100 l 758 1100 q 788 1088 775 1100 q 800 1057 800 1075 l 800 -99 q 788 -128 800 -117 q 760 -140 776 -140 "},"":{"ha":299,"x_min":31,"x_max":268,"o":"m 65 538 l 233 538 q 258 528 247 538 q 268 503 268 518 l 268 300 q 258 275 268 285 q 235 265 249 265 l 65 265 q 41 275 51 265 q 31 300 31 285 l 31 503 q 40 528 31 518 q 65 538 50 538 "},"":{"ha":613,"x_min":29,"x_max":581,"o":"m 32 -490 l 67 -407 q 85 -387 72 -393 q 114 -383 99 -381 l 172 -403 q 264 -415 207 -415 q 308 -403 292 -415 q 325 -369 325 -390 q 313 -350 325 -358 q 285 -342 301 -342 q 250 -345 264 -342 q 204 -358 236 -349 q 184 -358 196 -361 q 165 -347 172 -354 l 124 -306 q 113 -282 114 -296 q 118 -257 111 -268 l 242 -68 q 257 -56 246 -61 q 275 -51 268 -51 l 382 -51 q 419 -72 408 -51 q 415 -112 429 -92 l 374 -174 q 517 -226 458 -174 q 581 -367 581 -283 q 492 -533 581 -467 q 289 -597 410 -597 q 215 -592 253 -597 q 140 -575 178 -586 q 76 -553 101 -564 q 40 -532 51 -543 q 31 -512 33 -525 q 32 -490 29 -499 "},"":{"ha":415,"x_min":31,"x_max":385,"o":"m 349 386 l 199 386 q 173 398 183 386 q 163 426 163 410 l 163 789 q 122 772 143 779 q 79 758 101 765 q 45 765 60 753 q 31 797 31 776 l 31 922 q 40 947 31 936 q 61 961 49 958 q 154 988 121 974 l 150 986 q 180 1006 164 993 q 215 1039 196 1019 l 347 1039 q 374 1027 363 1039 q 385 999 385 1015 l 385 426 q 374 398 385 410 q 349 386 364 386 "},"":{"ha":636,"x_min":31,"x_max":606,"o":"m 606 761 q 529 577 606 643 q 318 511 453 511 q 107 577 183 511 q 31 761 31 643 q 107 946 31 879 q 318 1013 183 1013 q 529 946 453 1013 q 606 761 606 879 m 396 761 q 375 818 396 797 q 318 839 354 839 q 261 818 282 839 q 240 761 240 797 q 261 704 240 725 q 318 683 282 683 q 375 704 354 683 q 396 761 396 725 "},"":{"ha":946,"x_min":29,"x_max":918,"o":"m 472 54 q 436 76 446 54 q 443 119 426 99 l 657 393 l 443 665 q 436 709 426 686 q 472 732 446 732 l 650 732 q 667 727 657 732 q 681 717 678 722 l 911 418 q 918 393 918 408 q 911 367 918 378 l 681 68 q 667 59 678 64 q 650 54 657 54 l 472 54 m 75 54 q 39 76 49 54 q 46 119 29 99 l 260 393 l 46 665 q 39 709 29 686 q 75 732 49 732 l 253 732 q 270 727 260 732 q 283 717 281 722 l 514 418 q 521 393 521 408 q 514 367 521 378 l 283 68 q 270 59 281 64 q 253 54 260 54 l 75 54 "},"":{"ha":1576,"x_min":31,"x_max":1546,"o":"m 197 54 l 1111 1096 q 1126 1105 1115 1100 q 1144 1110 1138 1110 l 1333 1110 q 1375 1085 1364 1110 q 1367 1039 1386 1061 l 453 -3 q 438 -12 449 -7 q 419 -17 426 -17 l 231 -17 q 189 8 200 -17 q 197 54 178 32 m 1232 689 l 1407 689 q 1438 676 1425 689 q 1450 646 1450 664 l 1450 311 l 1503 311 q 1533 299 1521 311 q 1546 268 1546 286 l 1546 144 q 1533 114 1546 126 q 1503 101 1521 101 l 1450 100 l 1450 43 q 1438 13 1450 25 q 1407 0 1425 0 l 1226 0 q 1196 13 1208 0 q 1183 43 1183 25 l 1183 100 l 910 100 q 879 113 892 100 q 867 143 867 125 l 867 303 l 1199 674 q 1214 684 1203 679 q 1232 689 1225 689 m 1094 311 l 1183 311 l 1183 410 l 1094 311 m 407 407 l 229 407 q 198 419 211 407 q 185 450 185 432 l 185 832 q 137 815 161 822 q 86 800 113 807 q 47 806 64 794 q 31 842 31 818 l 31 972 q 41 999 31 988 q 67 1014 51 1011 q 175 1042 132 1026 l 172 1040 q 207 1060 188 1047 q 250 1096 226 1074 l 407 1096 q 438 1083 425 1096 q 450 1053 450 1071 l 450 450 q 438 419 450 432 q 407 407 425 407 "},"":{"ha":1564,"x_min":31,"x_max":1533,"o":"m 910 43 l 910 121 q 915 138 910 126 q 925 153 919 149 l 1186 368 l 1185 368 q 1228 410 1208 388 q 1249 450 1249 432 q 1233 478 1249 468 q 1190 488 1218 488 q 1085 456 1140 488 q 1010 400 1029 424 q 987 384 1000 388 q 962 385 974 381 q 942 400 950 389 q 933 426 933 411 l 933 576 l 425 -3 q 410 -12 421 -7 q 392 -17 399 -17 l 203 -17 q 161 8 172 -17 q 169 54 150 32 l 1083 1096 q 1099 1105 1088 1100 q 1117 1110 1110 1110 l 1306 1110 q 1331 1103 1319 1110 q 1347 1085 1342 1096 q 1350 1063 1351 1075 q 1339 1039 1349 1050 l 983 636 q 1019 651 999 643 q 1063 668 1039 660 q 1242 700 1150 700 q 1450 646 1372 700 q 1528 496 1528 592 q 1510 409 1528 450 q 1456 329 1492 368 q 1397 271 1424 296 q 1350 226 1369 246 l 1342 218 l 1490 218 q 1521 206 1508 218 q 1533 176 1533 193 l 1533 43 q 1521 13 1533 25 q 1490 0 1508 0 l 953 0 q 922 13 935 0 q 910 43 910 25 m 407 407 l 228 407 q 198 419 211 407 q 185 450 185 432 l 185 832 q 137 815 161 822 q 86 800 113 807 q 47 806 64 794 q 31 842 31 818 l 31 972 q 41 999 31 988 q 67 1014 51 1011 q 128 1027 101 1019 q 175 1042 156 1035 l 172 1040 q 207 1060 188 1047 q 250 1096 226 1074 l 407 1096 q 438 1083 425 1096 q 450 1053 450 1071 l 450 450 q 438 419 450 432 q 407 407 425 407 "},"":{"ha":1628,"x_min":26,"x_max":1596,"o":"m 274 54 l 1189 1096 q 1204 1105 1193 1100 q 1221 1110 1215 1110 l 1411 1110 q 1453 1085 1442 1110 q 1446 1039 1464 1061 l 531 -3 q 515 -12 526 -7 q 497 -17 504 -17 l 307 -17 q 281 -10 292 -17 q 266 8 271 -3 q 263 31 261 18 q 274 54 264 43 m 63 928 l 63 1053 q 75 1083 63 1071 q 106 1096 88 1096 l 578 1096 q 610 1083 596 1096 q 624 1053 624 1071 l 624 951 q 618 935 624 946 q 608 919 613 924 l 500 828 q 623 756 581 806 q 665 631 665 706 q 585 454 665 511 q 349 397 504 397 q 156 432 242 397 q 46 486 64 468 q 31 510 35 494 q 32 538 26 525 l 89 656 q 115 678 97 672 q 150 674 132 683 q 179 660 161 668 q 229 638 197 651 l 226 638 q 283 621 254 626 q 347 615 313 615 q 385 621 371 615 q 399 638 399 626 q 383 660 399 651 q 340 673 371 669 q 260 678 308 676 q 229 690 242 678 q 217 721 217 703 l 217 814 q 222 831 217 821 q 231 844 226 842 l 275 885 l 107 885 q 76 897 89 885 q 63 928 63 910 m 1281 689 l 1454 689 q 1485 676 1472 689 q 1499 646 1499 664 l 1499 311 l 1550 311 q 1582 299 1568 311 q 1596 268 1596 286 l 1596 144 q 1582 114 1596 126 q 1551 101 1568 101 l 1500 100 l 1500 43 q 1487 13 1500 25 q 1456 0 1474 0 l 1275 0 q 1244 13 1257 0 q 1232 43 1232 25 l 1232 100 l 958 100 q 926 113 940 100 q 913 143 913 125 l 913 303 l 1246 674 q 1263 684 1251 679 q 1281 689 1274 689 m 1142 311 l 1232 311 l 1232 410 l 1142 311 "},"":{"ha":810,"x_min":32,"x_max":783,"o":"m 206 399 l 203 397 l 207 400 l 206 399 m 407 -162 q 135 -76 233 -162 q 32 131 32 10 q 89 300 32 232 q 145 355 115 331 q 206 399 175 379 q 253 435 235 419 q 283 463 272 450 q 299 487 294 475 q 304 511 303 499 l 307 539 q 319 568 307 556 q 347 581 331 581 l 539 581 q 569 568 557 581 q 582 539 582 556 l 582 488 q 554 388 582 435 q 467 293 526 342 q 422 258 444 276 q 375 219 399 239 l 375 221 q 342 160 342 192 q 363 105 342 129 q 417 81 385 81 q 539 108 467 81 q 610 140 579 124 q 665 174 640 157 q 701 178 683 185 q 726 151 719 171 l 778 -6 q 778 -36 783 -21 q 758 -58 772 -51 q 685 -91 726 -74 q 588 -125 643 -108 l 590 -125 q 407 -162 486 -162 m 550 628 l 339 628 q 310 640 322 628 q 297 671 297 653 l 297 888 q 309 918 297 906 q 338 931 321 931 l 549 931 q 578 918 565 931 q 590 888 590 906 l 590 671 q 578 640 590 653 q 550 628 567 628 "},"":{"ha":1504,"x_min":25,"x_max":1479,"o":"m 1428 0 l 1103 0 q 1082 7 1093 0 q 1065 24 1071 14 l 994 160 l 474 160 l 403 24 q 386 7 397 14 q 364 0 375 0 l 76 0 q 37 19 49 0 q 38 63 25 39 l 608 1067 q 626 1082 614 1075 q 646 1089 638 1089 l 892 1089 q 913 1082 901 1089 q 929 1065 924 1075 l 1467 61 q 1467 19 1479 38 q 1428 0 1456 0 m 743 646 l 610 404 l 868 404 l 743 646 m 906 1115 l 733 1115 q 717 1120 726 1115 q 703 1128 707 1125 l 443 1397 q 435 1437 425 1417 q 472 1457 446 1457 l 726 1457 q 745 1451 735 1457 q 760 1440 756 1446 l 939 1171 q 942 1133 953 1151 q 906 1115 931 1115 "},"":{"ha":1504,"x_min":25,"x_max":1479,"o":"m 1428 0 l 1103 0 q 1082 7 1093 0 q 1065 24 1071 14 l 994 160 l 474 160 l 403 24 q 386 7 397 14 q 364 0 375 0 l 76 0 q 37 19 49 0 q 38 63 25 39 l 608 1067 q 626 1082 614 1075 q 646 1089 638 1089 l 892 1089 q 913 1082 901 1089 q 929 1065 924 1075 l 1467 61 q 1467 19 1479 38 q 1428 0 1456 0 m 743 646 l 610 404 l 868 404 l 743 646 m 564 1171 l 739 1440 q 753 1452 743 1447 q 772 1457 764 1457 l 1025 1457 q 1062 1437 1051 1457 q 1054 1397 1072 1417 l 799 1128 q 784 1119 794 1124 q 768 1115 774 1115 l 597 1115 q 562 1133 572 1115 q 564 1171 551 1151 "},"":{"ha":1504,"x_min":25,"x_max":1479,"o":"m 1428 0 l 1103 0 q 1082 7 1093 0 q 1065 24 1071 14 l 994 160 l 474 160 l 403 24 q 386 7 397 14 q 364 0 375 0 l 76 0 q 37 19 49 0 q 38 63 25 39 l 608 1067 q 626 1082 614 1075 q 646 1089 638 1089 l 892 1089 q 913 1082 901 1089 q 929 1065 924 1075 l 1467 61 q 1467 19 1479 38 q 1428 0 1456 0 m 743 646 l 610 404 l 868 404 l 743 646 m 413 1171 l 599 1440 q 614 1451 603 1446 q 633 1457 625 1457 l 894 1457 q 914 1451 903 1457 q 928 1440 925 1446 l 1114 1171 q 1117 1133 1128 1151 q 1079 1115 1106 1115 l 897 1115 q 879 1121 890 1115 q 864 1131 868 1126 l 764 1254 l 661 1131 q 647 1120 658 1125 q 628 1115 635 1115 l 447 1115 q 410 1133 421 1115 q 413 1171 399 1151 "},"":{"ha":1504,"x_min":25,"x_max":1479,"o":"m 1428 0 l 1103 0 q 1082 7 1093 0 q 1065 24 1071 14 l 994 160 l 474 160 l 403 24 q 386 7 397 14 q 364 0 375 0 l 76 0 q 37 19 49 0 q 38 63 25 39 l 608 1067 q 626 1082 614 1075 q 646 1089 638 1089 l 892 1089 q 913 1082 901 1089 q 929 1065 924 1075 l 1467 61 q 1467 19 1479 38 q 1428 0 1456 0 m 743 646 l 610 404 l 868 404 l 743 646 m 1113 1403 l 1153 1363 q 1060 1172 1129 1231 q 899 1114 992 1114 q 747 1151 826 1114 q 638 1182 686 1182 q 596 1135 607 1182 q 582 1114 593 1122 q 557 1106 571 1106 l 429 1106 q 397 1117 410 1106 q 388 1146 385 1129 q 479 1337 411 1279 q 642 1394 547 1394 q 792 1357 713 1394 q 903 1328 850 1328 q 943 1375 935 1328 q 957 1394 946 1386 q 982 1403 968 1403 l 1113 1403 "},"":{"ha":1504,"x_min":25,"x_max":1479,"o":"m 1428 0 l 1103 0 q 1082 7 1093 0 q 1065 24 1071 14 l 994 160 l 474 160 l 403 24 q 386 7 397 14 q 364 0 375 0 l 76 0 q 37 19 49 0 q 38 63 25 39 l 608 1067 q 626 1082 614 1075 q 646 1089 638 1089 l 892 1089 q 913 1082 901 1089 q 929 1065 924 1075 l 1467 61 q 1467 19 1479 38 q 1428 0 1456 0 m 743 646 l 610 404 l 868 404 l 743 646 m 856 1350 l 1075 1350 q 1103 1340 1092 1350 q 1115 1317 1115 1331 l 1115 1139 q 1103 1115 1115 1125 q 1075 1106 1092 1106 l 856 1106 q 828 1115 840 1106 q 815 1139 815 1125 l 815 1317 q 828 1340 815 1331 q 856 1350 840 1350 m 471 1356 l 689 1356 q 717 1346 706 1356 q 729 1322 729 1336 l 729 1144 q 717 1121 729 1131 q 689 1111 706 1111 l 471 1111 q 442 1121 454 1111 q 431 1144 431 1131 l 431 1322 q 442 1346 431 1336 q 471 1356 454 1356 "},"":{"ha":1504,"x_min":25,"x_max":1479,"o":"m 1428 0 l 1103 0 q 1082 7 1093 0 q 1065 24 1071 14 l 994 160 l 474 160 l 403 24 q 386 7 397 14 q 364 0 375 0 l 76 0 q 37 19 49 0 q 38 63 25 39 l 608 1067 q 626 1082 614 1075 q 646 1089 638 1089 l 892 1089 q 913 1082 901 1089 q 929 1065 924 1075 l 1467 61 q 1467 19 1479 38 q 1428 0 1456 0 m 743 646 l 610 404 l 868 404 l 743 646 m 757 1594 q 924 1524 853 1594 l 924 1525 q 994 1357 994 1456 q 924 1188 994 1258 l 924 1189 q 757 1119 851 1119 q 589 1189 658 1119 q 519 1357 519 1261 q 589 1524 519 1454 q 757 1594 660 1594 m 757 1422 q 710 1403 729 1422 q 692 1357 692 1385 q 710 1310 692 1329 q 757 1292 729 1292 q 803 1310 785 1292 q 822 1357 822 1329 q 803 1403 822 1385 q 757 1422 785 1422 "},"":{"ha":1926,"x_min":25,"x_max":1896,"o":"m 1004 0 q 973 13 986 0 q 960 42 960 25 l 960 208 l 549 208 l 428 21 q 411 7 422 14 q 390 0 400 0 l 76 0 q 36 22 47 0 q 40 67 25 43 l 54 88 l 54 86 l 739 1069 q 755 1083 743 1076 q 775 1089 767 1089 l 1813 1089 q 1844 1076 1831 1089 q 1857 1047 1857 1064 l 1857 844 q 1844 814 1857 826 q 1813 801 1831 801 l 1363 801 l 1363 690 l 1742 690 q 1772 678 1760 690 q 1785 649 1785 665 l 1785 449 q 1772 418 1785 431 q 1742 406 1760 406 l 1363 404 l 1363 288 l 1853 288 q 1883 275 1871 288 q 1896 244 1896 263 l 1896 42 q 1883 13 1896 25 q 1853 0 1871 0 l 1004 0 m 956 831 l 725 476 l 960 476 l 960 831 l 956 831 "},"":{"ha":1210,"x_min":31,"x_max":1179,"o":"m 368 -421 l 403 -337 q 422 -317 410 -324 q 450 -314 435 -311 l 508 -333 q 600 -346 546 -346 q 644 -333 628 -346 q 661 -300 661 -321 q 649 -281 661 -289 q 621 -272 638 -272 q 587 -276 600 -272 q 540 -289 574 -279 q 521 -288 533 -292 q 501 -278 508 -285 l 460 -236 q 449 -212 451 -226 q 454 -187 447 -199 l 571 -11 q 211 122 353 11 q 76 294 122 193 q 31 528 31 394 q 74 778 31 669 q 200 960 117 886 q 404 1072 283 1033 q 679 1110 525 1110 q 919 1092 814 1110 q 1100 1050 1025 1075 q 1120 1036 1111 1047 q 1129 1014 1129 1025 l 1144 810 q 1129 772 1147 785 q 1088 767 1111 758 q 1017 790 1056 778 q 931 814 978 801 q 837 833 883 826 q 743 840 790 840 q 501 761 588 840 q 414 536 414 682 q 437 422 414 472 q 501 335 460 371 q 746 260 590 260 q 951 285 853 260 l 950 285 q 1045 313 1003 300 q 1121 339 1088 325 q 1161 335 1143 347 q 1178 299 1179 322 l 1175 90 q 1166 67 1175 79 q 1146 51 1157 56 q 760 -15 982 -8 q 751 -43 763 -31 l 710 -104 q 853 -157 796 -104 q 917 -297 917 -212 q 828 -464 917 -397 q 625 -528 746 -528 q 476 -506 551 -528 q 376 -462 400 -485 q 367 -442 369 -456 q 368 -421 365 -429 "},"":{"ha":992,"x_min":31,"x_max":961,"o":"m 919 0 l 72 0 q 43 13 56 0 q 31 42 31 25 l 31 1047 q 43 1076 31 1064 q 72 1089 56 1089 l 882 1089 q 911 1076 899 1089 q 924 1047 924 1064 l 924 844 q 911 814 924 826 q 882 801 899 801 l 415 801 l 415 690 l 814 690 q 843 678 831 690 q 856 649 856 665 l 856 449 q 843 418 856 431 q 814 406 831 406 l 415 404 l 415 288 l 919 288 q 949 275 938 288 q 961 244 961 263 l 961 42 q 949 13 961 25 q 919 0 938 0 m 632 1115 l 460 1115 q 443 1120 453 1115 q 429 1128 433 1125 l 169 1397 q 162 1437 151 1417 q 199 1457 172 1457 l 453 1457 q 472 1451 461 1457 q 486 1440 482 1446 l 665 1171 q 668 1133 679 1151 q 632 1115 657 1115 "},"":{"ha":992,"x_min":31,"x_max":961,"o":"m 919 0 l 72 0 q 43 13 56 0 q 31 42 31 25 l 31 1047 q 43 1076 31 1064 q 72 1089 56 1089 l 882 1089 q 911 1076 899 1089 q 924 1047 924 1064 l 924 844 q 911 814 924 826 q 882 801 899 801 l 415 801 l 415 690 l 814 690 q 843 678 831 690 q 856 649 856 665 l 856 449 q 843 418 856 431 q 814 406 831 406 l 415 404 l 415 288 l 919 288 q 949 275 938 288 q 961 244 961 263 l 961 42 q 949 13 961 25 q 919 0 938 0 m 290 1199 l 465 1468 q 480 1480 469 1475 q 499 1485 490 1485 l 751 1485 q 788 1465 778 1485 q 781 1425 799 1444 l 525 1156 q 510 1147 521 1151 q 494 1143 500 1143 l 324 1143 q 288 1161 299 1143 q 290 1199 278 1179 "},"":{"ha":992,"x_min":31,"x_max":961,"o":"m 919 0 l 72 0 q 43 13 56 0 q 31 42 31 25 l 31 1047 q 43 1076 31 1064 q 72 1089 56 1089 l 882 1089 q 911 1076 899 1089 q 924 1047 924 1064 l 924 844 q 911 814 924 826 q 882 801 899 801 l 415 801 l 415 690 l 814 690 q 843 678 831 690 q 856 649 856 665 l 856 449 q 843 418 856 431 q 814 406 831 406 l 415 404 l 415 288 l 919 288 q 949 275 938 288 q 961 244 961 263 l 961 42 q 949 13 961 25 q 919 0 938 0 m 139 1171 l 325 1440 q 340 1451 329 1446 q 360 1457 351 1457 l 621 1457 q 640 1451 629 1457 q 654 1440 650 1446 l 840 1171 q 843 1133 854 1151 q 806 1115 832 1115 l 624 1115 q 606 1121 617 1115 q 590 1131 594 1126 l 490 1254 l 388 1131 q 373 1120 385 1125 q 354 1115 361 1115 l 174 1115 q 136 1133 147 1115 q 139 1171 125 1151 "},"":{"ha":992,"x_min":31,"x_max":961,"o":"m 919 0 l 72 0 q 43 13 56 0 q 31 42 31 25 l 31 1047 q 43 1076 31 1064 q 72 1089 56 1089 l 882 1089 q 911 1076 899 1089 q 924 1047 924 1064 l 924 844 q 911 814 924 826 q 882 801 899 801 l 415 801 l 415 690 l 814 690 q 843 678 831 690 q 856 649 856 665 l 856 449 q 843 418 856 431 q 814 406 831 406 l 415 404 l 415 288 l 919 288 q 949 275 938 288 q 961 244 961 263 l 961 42 q 949 13 961 25 q 919 0 938 0 m 582 1468 l 801 1468 q 830 1458 818 1468 q 842 1435 842 1449 l 842 1257 q 830 1233 842 1243 q 801 1224 818 1224 l 582 1224 q 554 1233 567 1224 q 542 1257 542 1243 l 542 1435 q 554 1458 542 1449 q 582 1468 567 1468 m 178 1468 l 396 1468 q 424 1458 413 1468 q 436 1435 436 1449 l 436 1257 q 424 1233 436 1243 q 396 1224 413 1224 l 178 1224 q 149 1233 161 1224 q 138 1257 138 1243 l 138 1435 q 149 1458 138 1449 q 178 1468 161 1468 "},"":{"ha":576,"x_min":24,"x_max":551,"o":"m 442 0 l 183 0 q 158 13 168 0 q 147 42 147 25 l 147 1047 q 158 1076 147 1064 q 183 1089 168 1089 l 442 1089 q 467 1076 457 1089 q 478 1047 478 1064 l 478 42 q 467 13 478 25 q 442 0 457 0 m 504 1115 l 332 1115 q 315 1120 325 1115 q 301 1128 306 1125 l 42 1397 q 34 1437 24 1417 q 71 1457 44 1457 l 325 1457 q 344 1451 333 1457 q 358 1440 354 1446 l 538 1171 q 540 1133 551 1151 q 504 1115 529 1115 "},"":{"ha":578,"x_min":31,"x_max":554,"o":"m 325 0 l 67 0 q 41 13 51 0 q 31 42 31 25 l 31 1047 q 41 1076 31 1064 q 67 1089 51 1089 l 325 1089 q 351 1076 340 1089 q 361 1047 361 1064 l 361 42 q 351 13 361 25 q 325 0 340 0 m 46 1171 l 221 1440 q 235 1452 225 1447 q 254 1457 246 1457 l 507 1457 q 544 1437 533 1457 q 536 1397 554 1417 l 281 1128 q 266 1119 276 1124 q 250 1115 256 1115 l 79 1115 q 44 1133 54 1115 q 46 1171 33 1151 "},"":{"ha":779,"x_min":25,"x_max":754,"o":"m 511 0 l 253 0 q 227 13 238 0 q 217 42 217 25 l 217 1047 q 227 1076 217 1064 q 253 1089 238 1089 l 511 1089 q 537 1076 526 1089 q 547 1047 547 1064 l 547 42 q 537 13 547 25 q 511 0 526 0 m 39 1171 l 225 1440 q 240 1451 228 1446 q 260 1457 251 1457 l 521 1457 q 540 1451 529 1457 q 554 1440 550 1446 l 740 1171 q 743 1133 754 1151 q 706 1115 732 1115 l 524 1115 q 506 1121 517 1115 q 490 1131 494 1126 l 390 1254 l 288 1131 q 273 1120 285 1125 q 254 1115 261 1115 l 74 1115 q 36 1133 47 1115 q 39 1171 25 1151 "},"":{"ha":767,"x_min":31,"x_max":736,"o":"m 492 0 l 233 0 q 207 13 218 0 q 196 42 196 25 l 196 1047 q 206 1076 196 1064 q 232 1089 217 1089 l 490 1089 q 517 1076 506 1089 q 528 1047 528 1064 l 528 42 q 517 13 528 25 q 492 0 507 0 m 476 1440 l 694 1440 q 724 1431 711 1440 q 736 1407 736 1421 l 736 1229 q 724 1206 736 1215 q 696 1196 713 1196 l 476 1196 q 448 1206 461 1196 q 435 1229 435 1215 l 435 1407 q 447 1431 435 1421 q 476 1440 460 1440 m 71 1440 l 289 1440 q 318 1431 306 1440 q 331 1407 331 1421 l 331 1229 q 319 1206 331 1215 q 290 1196 307 1196 l 72 1196 q 43 1206 56 1196 q 31 1229 31 1215 l 31 1407 q 42 1431 31 1421 q 71 1440 54 1440 "},"":{"ha":1422,"x_min":31,"x_max":1392,"o":"m 75 700 l 171 700 l 171 1043 q 183 1072 171 1060 q 214 1085 196 1085 l 825 1089 q 1233 938 1075 1090 l 1233 939 q 1392 544 1392 786 q 1235 153 1392 306 q 832 0 1078 0 l 215 0 q 185 13 197 0 q 172 42 172 25 l 172 414 l 75 414 q 44 426 57 414 q 31 456 31 439 l 31 657 q 43 688 31 675 q 75 700 56 700 m 815 758 l 567 758 l 567 700 l 797 700 q 828 688 815 700 q 842 657 842 675 l 842 456 q 829 426 842 439 q 799 414 817 414 l 567 414 l 567 331 l 803 331 q 958 384 904 331 q 1011 543 1011 438 q 961 704 1011 650 q 815 758 911 758 "},"":{"ha":1199,"x_min":31,"x_max":1168,"o":"m 653 751 l 651 751 q 731 645 692 699 q 810 536 769 592 l 810 1047 q 822 1076 810 1064 q 853 1089 835 1089 l 1124 1089 q 1155 1076 1142 1089 q 1168 1047 1168 1064 l 1168 42 q 1156 13 1168 25 q 1125 0 1143 0 l 814 0 q 795 5 807 0 q 779 17 783 10 l 388 544 l 388 42 q 375 13 388 25 q 344 0 363 0 l 74 0 q 44 13 57 0 q 31 42 31 25 l 31 1047 q 43 1076 31 1064 q 72 1089 56 1089 l 381 1089 q 401 1083 389 1089 q 415 1071 413 1078 q 534 909 476 988 q 653 751 592 831 m 971 1403 l 1011 1363 q 919 1172 988 1231 q 757 1114 850 1114 q 606 1151 682 1114 q 548 1174 575 1167 q 496 1182 521 1182 q 454 1135 463 1182 q 440 1114 451 1122 q 415 1106 429 1106 l 288 1106 q 255 1117 268 1106 q 244 1146 242 1129 q 336 1337 268 1279 q 499 1394 404 1394 q 649 1357 571 1394 q 760 1328 708 1328 q 800 1375 789 1328 q 814 1394 803 1386 q 839 1403 825 1403 l 971 1403 "},"":{"ha":1368,"x_min":31,"x_max":1338,"o":"m 1338 546 q 1172 122 1338 261 q 685 -17 1007 -17 q 198 123 365 -17 q 31 546 31 263 q 196 970 31 831 q 683 1110 361 1110 q 1172 970 1006 1110 q 1338 546 1338 831 m 951 546 l 953 546 q 884 726 953 665 q 685 786 815 786 q 485 726 554 786 q 417 546 417 665 q 485 366 417 426 q 683 306 553 306 q 883 366 814 306 q 951 546 951 426 m 839 1129 l 668 1129 q 651 1134 661 1129 q 638 1142 642 1139 l 378 1411 q 369 1451 358 1431 q 406 1471 379 1471 l 660 1471 q 678 1465 668 1471 q 693 1454 689 1460 l 872 1185 q 876 1147 886 1165 q 839 1129 865 1129 "},"":{"ha":1368,"x_min":31,"x_max":1338,"o":"m 1338 546 q 1172 122 1338 261 q 685 -17 1007 -17 q 198 123 365 -17 q 31 546 31 263 q 196 970 31 831 q 683 1110 361 1110 q 1172 970 1006 1110 q 1338 546 1338 831 m 951 546 l 953 546 q 884 726 953 665 q 685 786 815 786 q 485 726 554 786 q 417 546 417 665 q 485 366 417 426 q 683 306 553 306 q 883 366 814 306 q 951 546 951 426 m 497 1185 l 672 1454 q 687 1466 676 1461 q 706 1471 697 1471 l 958 1471 q 996 1451 985 1471 q 989 1411 1007 1431 l 733 1142 q 719 1133 729 1138 q 703 1129 708 1129 l 532 1129 q 496 1147 507 1129 q 497 1185 485 1165 "},"":{"ha":1368,"x_min":31,"x_max":1338,"o":"m 1338 546 q 1172 122 1338 261 q 685 -17 1007 -17 q 198 123 365 -17 q 31 546 31 263 q 196 970 31 831 q 683 1110 361 1110 q 1172 970 1006 1110 q 1338 546 1338 831 m 951 546 l 953 546 q 884 726 953 665 q 685 786 815 786 q 485 726 554 786 q 417 546 417 665 q 485 366 417 426 q 683 306 553 306 q 883 366 814 306 q 951 546 951 426 m 351 1190 l 538 1460 q 552 1471 540 1465 q 572 1476 564 1476 l 833 1476 q 852 1471 842 1476 q 867 1460 863 1465 l 1053 1190 q 1056 1153 1067 1171 q 1018 1135 1044 1135 l 836 1135 q 818 1140 829 1135 q 803 1150 807 1146 l 703 1274 l 600 1150 q 585 1140 597 1144 q 567 1135 574 1135 l 386 1135 q 349 1153 360 1135 q 351 1190 338 1171 "},"":{"ha":1368,"x_min":31,"x_max":1338,"o":"m 1338 546 q 1172 122 1338 261 q 685 -17 1007 -17 q 198 123 365 -17 q 31 546 31 263 q 196 970 31 831 q 683 1110 361 1110 q 1172 970 1006 1110 q 1338 546 1338 831 m 951 546 l 953 546 q 884 726 953 665 q 685 786 815 786 q 485 726 554 786 q 417 546 417 665 q 485 366 417 426 q 683 306 553 306 q 883 366 814 306 q 951 546 951 426 m 1047 1403 l 1088 1363 q 995 1172 1064 1231 q 833 1114 926 1114 q 682 1151 758 1114 q 624 1174 651 1167 q 572 1182 597 1182 q 531 1135 539 1182 q 517 1114 528 1122 q 492 1106 506 1106 l 364 1106 q 331 1117 344 1106 q 321 1146 318 1129 q 413 1337 344 1279 q 575 1394 481 1394 q 725 1357 647 1394 q 836 1328 785 1328 q 876 1375 865 1328 q 890 1394 879 1386 q 915 1403 901 1403 l 1047 1403 "},"":{"ha":1368,"x_min":31,"x_max":1338,"o":"m 1338 546 q 1172 122 1338 261 q 685 -17 1007 -17 q 198 123 365 -17 q 31 546 31 263 q 196 970 31 831 q 683 1110 361 1110 q 1172 970 1006 1110 q 1338 546 1338 831 m 951 546 l 953 546 q 884 726 953 665 q 685 786 815 786 q 485 726 554 786 q 417 546 417 665 q 485 366 417 426 q 683 306 553 306 q 883 366 814 306 q 951 546 951 426 m 789 1385 l 1008 1385 q 1038 1375 1025 1385 q 1050 1351 1050 1365 l 1050 1174 q 1038 1150 1050 1160 q 1010 1140 1026 1140 l 790 1140 q 762 1150 775 1140 q 749 1174 749 1160 l 749 1351 q 761 1375 749 1365 q 789 1385 774 1385 m 385 1385 l 603 1385 q 632 1375 619 1385 q 644 1351 644 1365 l 644 1174 q 633 1150 644 1160 q 604 1140 621 1140 l 386 1140 q 357 1150 369 1140 q 344 1174 344 1160 l 344 1351 q 356 1375 344 1365 q 385 1385 368 1385 "},"":{"ha":856,"x_min":31,"x_max":825,"o":"m 43 147 q 31 175 32 158 q 43 204 31 192 l 238 399 l 43 593 q 31 621 32 604 q 43 650 31 638 l 176 783 q 204 796 189 796 q 233 783 221 796 l 428 589 l 622 783 q 650 796 635 796 q 679 783 667 796 l 813 650 q 825 621 825 638 q 813 593 825 606 l 618 399 l 813 204 q 825 175 825 192 q 813 147 825 160 l 679 14 q 650 1 667 1 q 622 14 635 1 l 428 208 l 233 14 q 204 1 221 1 q 176 14 189 1 l 43 147 "},"":{"ha":1485,"x_min":24,"x_max":1454,"o":"m 1181 1158 l 1408 1158 q 1434 1151 1424 1158 q 1449 1133 1444 1143 q 1452 1109 1454 1122 q 1440 1086 1450 1096 l 1283 924 q 1404 550 1404 788 q 1236 124 1404 264 q 746 -17 1068 -17 q 419 29 540 -17 l 335 -58 q 320 -67 331 -62 q 303 -71 310 -71 l 75 -71 q 34 -46 44 -71 q 44 1 24 -21 l 208 171 q 88 550 88 308 q 254 976 88 836 q 746 1117 421 1117 q 1074 1067 950 1117 l 1149 1146 q 1163 1153 1153 1149 q 1181 1158 1174 1158 m 475 550 q 476 499 475 522 q 485 457 478 476 l 804 789 q 775 792 790 792 q 746 792 761 792 q 544 731 613 792 q 475 550 475 669 m 1017 550 q 1014 598 1017 576 q 1007 639 1011 619 l 690 308 q 717 307 703 307 q 746 307 731 307 q 948 368 879 307 q 1017 550 1017 429 "},"":{"ha":1188,"x_min":31,"x_max":1157,"o":"m 786 481 l 786 1049 q 799 1078 786 1065 q 829 1090 811 1090 l 1115 1090 q 1144 1078 1132 1090 q 1157 1049 1157 1065 l 1157 343 q 1003 58 1157 142 q 592 -17 861 -17 q 179 58 314 -17 q 31 357 31 142 l 31 1049 q 43 1078 31 1065 q 74 1090 56 1090 l 358 1090 q 389 1078 376 1090 q 401 1049 401 1065 l 401 476 q 447 340 401 381 q 597 300 492 300 q 742 342 697 300 q 786 481 786 385 m 754 1115 l 582 1115 q 565 1120 575 1115 q 551 1128 556 1125 l 292 1397 q 284 1437 274 1417 q 321 1457 294 1457 l 575 1457 q 594 1451 583 1457 q 608 1440 604 1446 l 788 1171 q 790 1133 801 1151 q 754 1115 779 1115 "},"":{"ha":1188,"x_min":31,"x_max":1157,"o":"m 786 481 l 786 1049 q 799 1078 786 1065 q 829 1090 811 1090 l 1115 1090 q 1144 1078 1132 1090 q 1157 1049 1157 1065 l 1157 343 q 1003 58 1157 142 q 592 -17 861 -17 q 179 58 314 -17 q 31 357 31 142 l 31 1049 q 43 1078 31 1065 q 74 1090 56 1090 l 358 1090 q 389 1078 376 1090 q 401 1049 401 1065 l 401 476 q 447 340 401 381 q 597 300 492 300 q 742 342 697 300 q 786 481 786 385 m 413 1171 l 588 1440 q 602 1452 592 1447 q 621 1457 613 1457 l 874 1457 q 910 1437 900 1457 q 903 1397 921 1417 l 647 1128 q 633 1119 643 1124 q 617 1115 622 1115 l 446 1115 q 410 1133 421 1115 q 413 1171 400 1151 "},"":{"ha":1188,"x_min":31,"x_max":1157,"o":"m 786 481 l 786 1049 q 799 1078 786 1065 q 829 1090 811 1090 l 1115 1090 q 1144 1078 1132 1090 q 1157 1049 1157 1065 l 1157 343 q 1003 58 1157 142 q 592 -17 861 -17 q 179 58 314 -17 q 31 357 31 142 l 31 1049 q 43 1078 31 1065 q 74 1090 56 1090 l 358 1090 q 389 1078 376 1090 q 401 1049 401 1065 l 401 476 q 447 340 401 381 q 597 300 492 300 q 742 342 697 300 q 786 481 786 385 m 261 1171 l 447 1440 q 463 1451 451 1446 q 482 1457 474 1457 l 743 1457 q 762 1451 751 1457 q 776 1440 772 1446 l 963 1171 q 965 1133 976 1151 q 928 1115 954 1115 l 746 1115 q 728 1121 739 1115 q 713 1131 717 1126 l 613 1254 l 510 1131 q 495 1120 507 1125 q 476 1115 483 1115 l 296 1115 q 258 1133 269 1115 q 261 1171 247 1151 "},"":{"ha":1188,"x_min":31,"x_max":1157,"o":"m 786 481 l 786 1049 q 799 1078 786 1065 q 829 1090 811 1090 l 1115 1090 q 1144 1078 1132 1090 q 1157 1049 1157 1065 l 1157 343 q 1003 58 1157 142 q 592 -17 861 -17 q 179 58 314 -17 q 31 357 31 142 l 31 1049 q 43 1078 31 1065 q 74 1090 56 1090 l 358 1090 q 389 1078 376 1090 q 401 1049 401 1065 l 401 476 q 447 340 401 381 q 597 300 492 300 q 742 342 697 300 q 786 481 786 385 m 704 1371 l 924 1371 q 952 1361 940 1371 q 964 1338 964 1351 l 964 1160 q 952 1136 964 1146 q 924 1126 940 1126 l 704 1126 q 676 1136 689 1126 q 664 1160 664 1146 l 664 1338 q 676 1361 664 1351 q 704 1371 689 1371 m 300 1371 l 518 1371 q 547 1361 535 1371 q 558 1338 558 1351 l 558 1160 q 547 1136 558 1146 q 518 1126 535 1126 l 300 1126 q 272 1136 283 1126 q 260 1160 260 1146 l 260 1338 q 272 1361 260 1351 q 300 1371 283 1371 "},"":{"ha":1449,"x_min":24,"x_max":1425,"o":"m 1043 1089 l 1372 1089 q 1413 1065 1401 1089 q 1407 1019 1425 1042 l 924 436 l 924 42 q 911 13 924 25 q 881 0 899 0 l 569 0 q 540 13 553 0 q 528 42 528 25 l 528 436 l 43 1019 q 35 1065 24 1042 q 76 1089 47 1089 l 436 1089 q 454 1084 443 1089 q 469 1074 465 1079 l 751 725 l 1008 1071 q 1024 1083 1011 1078 q 1043 1089 1036 1089 m 576 1032 l 751 1301 q 766 1313 756 1308 q 785 1318 776 1318 l 1038 1318 q 1074 1298 1064 1318 q 1067 1258 1085 1278 l 811 989 q 797 981 807 985 q 781 976 786 976 l 610 976 q 574 994 585 976 q 576 1032 563 1013 "},"":{"ha":1044,"x_min":31,"x_max":1014,"o":"m 72 1089 l 375 1089 q 404 1076 392 1089 q 417 1047 417 1064 l 417 897 l 532 897 q 894 818 775 897 q 1014 553 1014 739 q 899 281 1014 368 q 558 197 783 193 l 417 200 l 417 42 q 404 13 417 25 q 375 0 392 0 l 72 0 q 43 13 56 0 q 31 42 31 25 l 31 1047 q 43 1076 31 1064 q 72 1089 56 1089 m 493 649 l 417 643 l 417 449 l 483 446 q 647 546 647 439 q 607 626 647 597 q 493 649 567 654 "},"":{"ha":901,"x_min":31,"x_max":871,"o":"m 311 0 l 74 0 q 43 13 56 0 q 31 42 31 25 l 31 767 q 139 1015 31 933 q 404 1090 240 1090 q 690 1017 590 1090 q 790 797 790 943 q 778 735 790 767 q 747 671 767 703 q 724 642 736 656 q 696 615 713 628 q 824 506 776 578 q 871 333 871 435 q 783 83 871 183 q 529 -17 693 -17 l 433 -17 q 403 -4 417 -17 q 390 25 390 8 l 390 179 q 403 210 390 197 q 432 222 415 222 l 454 222 q 527 254 504 222 q 550 344 550 286 q 524 448 550 413 q 426 483 499 483 q 397 496 410 483 q 383 526 383 508 l 383 671 q 396 701 383 689 q 425 713 408 713 q 474 734 454 713 q 493 788 493 756 q 469 835 493 819 q 417 851 444 851 q 372 838 390 851 q 353 782 353 824 l 353 42 q 340 13 353 25 q 311 0 328 0 "},"":{"ha":953,"x_min":31,"x_max":924,"o":"m 636 26 q 618 42 625 35 q 604 57 611 49 q 471 4 542 25 q 326 -17 400 -17 q 106 51 182 -17 q 31 235 31 119 q 146 438 31 360 q 273 495 201 475 q 433 511 344 515 l 550 506 q 521 569 549 549 q 444 590 493 590 q 374 585 408 590 q 307 565 340 579 q 248 542 275 553 q 199 519 221 531 q 165 517 182 511 q 142 540 149 524 l 89 661 q 88 686 85 672 q 99 707 90 700 q 147 738 114 721 q 232 776 179 756 q 341 807 283 796 q 463 818 399 818 q 640 799 565 818 q 764 740 715 781 q 836 635 813 700 q 860 479 860 571 l 860 194 q 869 186 860 193 q 879 179 876 179 q 905 172 894 179 q 919 153 915 164 q 921 129 924 142 q 906 107 918 117 l 758 -15 q 692 -6 722 -15 q 636 26 661 4 m 508 218 q 533 228 522 224 q 554 238 544 233 l 554 303 l 550 303 q 338 235 338 303 q 408 200 338 200 q 508 218 463 200 m 628 872 l 456 872 q 439 877 449 872 q 425 885 429 882 l 165 1154 q 157 1194 146 1174 q 194 1214 168 1214 l 449 1214 q 467 1208 457 1214 q 482 1197 478 1203 l 661 928 q 664 890 675 908 q 628 872 653 872 "},"":{"ha":953,"x_min":31,"x_max":924,"o":"m 636 26 q 618 42 625 35 q 604 57 611 49 q 471 4 542 25 q 326 -17 400 -17 q 106 51 182 -17 q 31 235 31 119 q 146 438 31 360 q 273 495 201 475 q 433 511 344 515 l 550 506 q 521 569 549 549 q 444 590 493 590 q 374 585 408 590 q 307 565 340 579 q 248 542 275 553 q 199 519 221 531 q 165 517 182 511 q 142 540 149 524 l 89 661 q 88 686 85 672 q 99 707 90 700 q 147 738 114 721 q 232 776 179 756 q 341 807 283 796 q 463 818 399 818 q 640 799 565 818 q 764 740 715 781 q 836 635 813 700 q 860 479 860 571 l 860 194 q 869 186 860 193 q 879 179 876 179 q 905 172 894 179 q 919 153 915 164 q 921 129 924 142 q 906 107 918 117 l 758 -15 q 692 -6 722 -15 q 636 26 661 4 m 508 218 q 533 228 522 224 q 554 238 544 233 l 554 303 l 550 303 q 338 235 338 303 q 408 200 338 200 q 508 218 463 200 m 300 914 l 475 1183 q 490 1195 479 1190 q 508 1200 500 1200 l 761 1200 q 798 1180 788 1200 q 790 1140 808 1160 l 535 871 q 520 863 531 867 q 504 858 510 858 l 333 858 q 298 876 308 858 q 300 914 288 894 "},"":{"ha":953,"x_min":31,"x_max":924,"o":"m 636 26 q 618 42 625 35 q 604 57 611 49 q 471 4 542 25 q 326 -17 400 -17 q 106 51 182 -17 q 31 235 31 119 q 146 438 31 360 q 273 495 201 475 q 433 511 344 515 l 550 506 q 521 569 549 549 q 444 590 493 590 q 374 585 408 590 q 307 565 340 579 q 248 542 275 553 q 199 519 221 531 q 165 517 182 511 q 142 540 149 524 l 89 661 q 88 686 85 672 q 99 707 90 700 q 147 738 114 721 q 232 776 179 756 q 341 807 283 796 q 463 818 399 818 q 640 799 565 818 q 764 740 715 781 q 836 635 813 700 q 860 479 860 571 l 860 194 q 869 186 860 193 q 879 179 876 179 q 905 172 894 179 q 919 153 915 164 q 921 129 924 142 q 906 107 918 117 l 758 -15 q 692 -6 722 -15 q 636 26 661 4 m 508 218 q 533 228 522 224 q 554 238 544 233 l 554 303 l 550 303 q 338 235 338 303 q 408 200 338 200 q 508 218 463 200 m 135 900 l 321 1169 q 335 1181 324 1175 q 356 1186 347 1186 l 617 1186 q 635 1181 625 1186 q 650 1169 646 1175 l 836 900 q 839 863 850 881 q 801 844 828 844 l 619 844 q 601 850 613 844 q 586 860 590 856 l 486 983 l 383 860 q 369 849 381 854 q 350 844 357 844 l 169 844 q 132 863 143 844 q 135 900 121 881 "},"":{"ha":953,"x_min":31,"x_max":924,"o":"m 636 26 q 618 42 625 35 q 604 57 611 49 q 471 4 542 25 q 326 -17 400 -17 q 106 51 182 -17 q 31 235 31 119 q 146 438 31 360 q 273 495 201 475 q 433 511 344 515 l 550 506 q 521 569 549 549 q 444 590 493 590 q 374 585 408 590 q 307 565 340 579 q 248 542 275 553 q 199 519 221 531 q 165 517 182 511 q 142 540 149 524 l 89 661 q 88 686 85 672 q 99 707 90 700 q 147 738 114 721 q 232 776 179 756 q 341 807 283 796 q 463 818 399 818 q 640 799 565 818 q 764 740 715 781 q 836 635 813 700 q 860 479 860 571 l 860 194 q 869 186 860 193 q 879 179 876 179 q 905 172 894 179 q 919 153 915 164 q 921 129 924 142 q 906 107 918 117 l 758 -15 q 692 -6 722 -15 q 636 26 661 4 m 508 218 q 533 228 522 224 q 554 238 544 233 l 554 303 l 550 303 q 338 235 338 303 q 408 200 338 200 q 508 218 463 200 m 835 1160 l 875 1119 q 783 929 851 988 q 621 871 714 871 q 469 908 546 871 q 412 931 439 924 q 360 939 385 939 q 318 892 329 939 q 304 871 315 879 q 279 863 293 863 l 151 863 q 119 874 132 863 q 110 903 107 886 q 201 1094 133 1036 q 364 1151 269 1151 q 514 1114 435 1151 q 625 1085 572 1085 q 665 1132 657 1085 q 679 1151 668 1143 q 704 1160 690 1160 l 835 1160 "},"":{"ha":953,"x_min":31,"x_max":924,"o":"m 636 26 q 618 42 625 35 q 604 57 611 49 q 471 4 542 25 q 326 -17 400 -17 q 106 51 182 -17 q 31 235 31 119 q 146 438 31 360 q 273 495 201 475 q 433 511 344 515 l 550 506 q 521 569 549 549 q 444 590 493 590 q 374 585 408 590 q 307 565 340 579 q 248 542 275 553 q 199 519 221 531 q 165 517 182 511 q 142 540 149 524 l 89 661 q 88 686 85 672 q 99 707 90 700 q 147 738 114 721 q 232 776 179 756 q 341 807 283 796 q 463 818 399 818 q 640 799 565 818 q 764 740 715 781 q 836 635 813 700 q 860 479 860 571 l 860 194 q 869 186 860 193 q 879 179 876 179 q 905 172 894 179 q 919 153 915 164 q 921 129 924 142 q 906 107 918 117 l 758 -15 q 692 -6 722 -15 q 636 26 661 4 m 508 218 q 533 228 522 224 q 554 238 544 233 l 554 303 l 550 303 q 338 235 338 303 q 408 200 338 200 q 508 218 463 200 m 578 1114 l 797 1114 q 826 1104 814 1114 q 838 1081 838 1094 l 838 903 q 826 879 838 889 q 797 869 814 869 l 578 869 q 550 879 563 869 q 538 903 538 889 l 538 1081 q 550 1104 538 1094 q 578 1114 563 1114 m 174 1114 l 392 1114 q 420 1104 408 1114 q 432 1081 432 1094 l 432 903 q 420 879 432 889 q 392 869 408 869 l 174 869 q 145 879 157 869 q 133 903 133 889 l 133 1081 q 145 1104 133 1094 q 174 1114 157 1114 "},"":{"ha":953,"x_min":31,"x_max":924,"o":"m 636 26 q 618 42 625 35 q 604 57 611 49 q 471 4 542 25 q 326 -17 400 -17 q 106 51 182 -17 q 31 235 31 119 q 146 438 31 360 q 273 495 201 475 q 433 511 344 515 l 550 506 q 521 569 549 549 q 444 590 493 590 q 374 585 408 590 q 307 565 340 579 q 248 542 275 553 q 199 519 221 531 q 165 517 182 511 q 142 540 149 524 l 89 661 q 88 686 85 672 q 99 707 90 700 q 147 738 114 721 q 232 776 179 756 q 341 807 283 796 q 463 818 399 818 q 640 799 565 818 q 764 740 715 781 q 836 635 813 700 q 860 479 860 571 l 860 194 q 869 186 860 193 q 879 179 876 179 q 905 172 894 179 q 919 153 915 164 q 921 129 924 142 q 906 107 918 117 l 758 -15 q 692 -6 722 -15 q 636 26 661 4 m 508 218 q 533 228 522 224 q 554 238 544 233 l 554 303 l 550 303 q 338 235 338 303 q 408 200 338 200 q 508 218 463 200 m 464 1310 q 631 1239 560 1310 l 631 1240 q 701 1072 701 1171 q 631 903 701 974 l 631 904 q 464 835 558 835 q 296 904 364 835 q 226 1072 226 974 q 296 1239 226 1169 q 464 1310 367 1310 m 464 1138 q 417 1119 436 1138 q 399 1072 399 1100 q 417 1026 399 1044 q 464 1007 436 1007 q 510 1026 492 1007 q 529 1072 529 1044 q 510 1119 529 1100 q 464 1138 492 1138 "},"":{"ha":1560,"x_min":31,"x_max":1529,"o":"m 640 25 l 613 85 q 515 17 557 40 q 448 -9 483 -1 q 371 -17 413 -17 q 226 13 289 -17 q 119 96 163 42 q 53 227 76 150 q 31 400 31 304 q 114 697 31 585 q 364 817 204 817 q 484 799 431 817 q 583 753 538 781 l 583 771 q 596 800 583 788 q 626 813 608 813 l 826 813 q 857 800 844 813 q 869 771 869 788 l 869 749 q 977 799 917 781 q 1114 818 1038 818 q 1414 701 1297 818 q 1433 672 1414 701 q 1473 599 1451 643 q 1512 503 1494 554 q 1528 406 1529 451 l 1525 343 q 1512 315 1525 328 q 1482 303 1499 303 l 1029 303 q 1043 283 1036 292 q 1057 268 1050 274 q 1226 225 1113 225 q 1340 238 1286 225 q 1382 249 1364 243 q 1408 257 1400 254 q 1441 256 1425 263 q 1464 233 1457 249 l 1518 103 q 1519 74 1525 89 q 1500 53 1513 60 q 1358 2 1444 21 q 1181 -17 1272 -17 q 1005 6 1082 -17 q 869 60 928 28 l 869 42 q 857 13 869 25 q 826 0 844 0 l 679 0 q 656 8 668 0 q 640 25 643 15 m 507 247 q 522 259 515 254 q 535 269 529 264 l 535 550 q 522 559 529 554 q 507 569 514 564 q 468 585 483 585 q 378 533 407 585 q 350 383 350 481 q 373 256 350 304 q 436 208 396 208 q 492 233 464 208 l 490 231 q 502 240 497 236 q 510 247 507 244 l 507 247 m 1040 550 q 1026 523 1032 539 q 1017 488 1021 507 l 1204 488 q 1173 563 1196 535 q 1114 590 1150 590 q 1040 550 1063 590 "},"":{"ha":757,"x_min":31,"x_max":728,"o":"m 128 -407 l 163 -324 q 182 -303 169 -310 q 210 -300 194 -297 l 268 -319 q 360 -332 306 -332 q 404 -319 388 -332 q 421 -286 421 -307 q 409 -267 421 -275 q 381 -258 397 -258 q 346 -262 360 -258 q 300 -275 332 -265 q 280 -274 292 -278 q 261 -264 268 -271 l 219 -222 q 209 -199 211 -212 q 214 -174 207 -185 l 325 -4 q 143 93 222 18 q 31 390 31 204 q 59 567 31 490 q 144 703 88 644 q 451 818 258 818 q 592 801 538 818 q 683 768 647 785 q 699 754 690 765 q 707 735 707 743 l 725 551 q 707 510 728 524 q 663 513 686 497 q 631 531 651 521 q 578 553 610 540 q 468 575 522 575 q 364 526 401 575 q 326 392 326 478 q 367 279 326 315 q 493 243 407 243 q 597 265 540 243 q 634 279 619 274 q 657 288 649 285 l 654 288 q 667 294 661 292 q 682 296 672 296 q 713 282 701 296 q 722 249 725 268 l 697 63 q 690 45 697 56 q 676 32 682 35 q 585 1 657 21 q 519 -11 553 -7 q 511 -29 518 -21 l 469 -90 q 613 -143 554 -90 q 676 -283 676 -200 q 588 -450 676 -383 q 385 -514 506 -514 q 236 -492 311 -514 q 136 -449 160 -471 q 127 -428 129 -442 q 128 -407 125 -415 "},"":{"ha":821,"x_min":31,"x_max":790,"o":"m 782 103 l 765 53 q 708 24 740 36 q 638 2 675 11 q 560 -12 600 -7 q 479 -17 519 -17 q 153 97 275 -17 q 31 414 31 211 q 140 703 31 589 q 418 818 250 818 q 690 701 586 818 q 790 406 790 589 l 790 344 q 778 315 790 328 q 750 303 767 303 l 354 303 q 379 267 365 279 q 522 225 421 225 q 618 238 572 225 q 658 249 643 244 q 676 256 672 253 q 708 256 692 263 q 731 233 724 249 l 782 103 m 361 553 q 342 488 347 526 l 486 488 q 463 563 481 536 q 417 590 444 590 q 361 553 379 590 m 564 844 l 392 844 q 375 849 385 844 q 361 857 365 854 l 101 1126 q 94 1166 83 1146 q 131 1186 104 1186 l 385 1186 q 403 1181 393 1186 q 418 1169 414 1175 l 597 900 q 600 863 611 881 q 564 844 589 844 "},"":{"ha":821,"x_min":31,"x_max":790,"o":"m 782 103 l 765 53 q 708 24 740 36 q 638 2 675 11 q 560 -12 600 -7 q 479 -17 519 -17 q 153 97 275 -17 q 31 414 31 211 q 140 703 31 589 q 418 818 250 818 q 690 701 586 818 q 790 406 790 589 l 790 344 q 778 315 790 328 q 750 303 767 303 l 354 303 q 379 267 365 279 q 522 225 421 225 q 618 238 572 225 q 658 249 643 244 q 676 256 672 253 q 708 256 692 263 q 731 233 724 249 l 782 103 m 361 553 q 342 488 347 526 l 486 488 q 463 563 481 536 q 417 590 444 590 q 361 553 379 590 m 222 886 l 397 1156 q 412 1167 401 1163 q 431 1172 422 1172 l 683 1172 q 720 1152 710 1172 q 713 1113 731 1132 l 457 843 q 442 835 453 839 q 426 831 432 831 l 256 831 q 220 849 231 831 q 222 886 210 867 "},"":{"ha":821,"x_min":31,"x_max":790,"o":"m 782 103 l 765 53 q 708 24 740 36 q 638 2 675 11 q 560 -12 600 -7 q 479 -17 519 -17 q 153 97 275 -17 q 31 414 31 211 q 140 703 31 589 q 418 818 250 818 q 690 701 586 818 q 790 406 790 589 l 790 344 q 778 315 790 328 q 750 303 767 303 l 354 303 q 379 267 365 279 q 522 225 421 225 q 618 238 572 225 q 658 249 643 244 q 676 256 672 253 q 708 256 692 263 q 731 233 724 249 l 782 103 m 361 553 q 342 488 347 526 l 486 488 q 463 563 481 536 q 417 590 444 590 q 361 553 379 590 m 71 872 l 257 1142 q 272 1153 261 1147 q 292 1158 283 1158 l 553 1158 q 572 1153 561 1158 q 586 1142 582 1147 l 772 872 q 775 835 786 853 q 738 817 764 817 l 556 817 q 538 822 549 817 q 522 832 526 828 l 422 956 l 319 832 q 305 822 317 826 q 286 817 293 817 l 106 817 q 68 835 79 817 q 71 872 57 853 "},"":{"ha":821,"x_min":31,"x_max":790,"o":"m 782 103 l 765 53 q 708 24 740 36 q 638 2 675 11 q 560 -12 600 -7 q 479 -17 519 -17 q 153 97 275 -17 q 31 414 31 211 q 140 703 31 589 q 418 818 250 818 q 690 701 586 818 q 790 406 790 589 l 790 344 q 778 315 790 328 q 750 303 767 303 l 354 303 q 379 267 365 279 q 522 225 421 225 q 618 238 572 225 q 658 249 643 244 q 676 256 672 253 q 708 256 692 263 q 731 233 724 249 l 782 103 m 361 553 q 342 488 347 526 l 486 488 q 463 563 481 536 q 417 590 444 590 q 361 553 379 590 m 514 1086 l 733 1086 q 762 1076 750 1086 q 774 1053 774 1067 l 774 875 q 762 851 774 861 q 733 842 750 842 l 514 842 q 486 851 499 842 q 474 875 474 861 l 474 1053 q 486 1076 474 1067 q 514 1086 499 1086 m 110 1086 l 328 1086 q 356 1076 344 1086 q 368 1053 368 1067 l 368 875 q 356 851 368 861 q 328 842 344 842 l 110 842 q 81 851 93 842 q 69 875 69 861 l 69 1053 q 81 1076 69 1067 q 110 1086 93 1086 "},"":{"ha":576,"x_min":24,"x_max":551,"o":"m 506 0 l 310 0 q 285 12 294 0 q 275 42 275 24 l 275 756 q 285 785 275 774 q 310 797 294 797 l 506 797 q 529 785 519 797 q 539 756 539 774 l 539 42 q 529 12 539 24 q 506 0 519 0 m 504 831 l 332 831 q 315 835 325 831 q 301 843 306 840 l 42 1113 q 34 1152 24 1132 q 71 1172 44 1172 l 325 1172 q 344 1167 333 1172 q 358 1156 354 1161 l 538 886 q 540 849 551 867 q 504 831 529 831 "},"":{"ha":575,"x_min":31,"x_max":551,"o":"m 261 0 l 65 0 q 40 12 50 0 q 31 42 31 24 l 31 756 q 40 785 31 774 q 65 797 50 797 l 261 797 q 285 785 275 797 q 294 756 294 774 l 294 42 q 285 12 294 24 q 261 0 275 0 m 43 886 l 218 1156 q 233 1167 222 1163 q 251 1172 243 1172 l 504 1172 q 541 1152 531 1172 q 533 1113 551 1132 l 278 843 q 263 835 274 839 q 247 831 253 831 l 76 831 q 41 849 51 831 q 43 886 31 867 "},"":{"ha":779,"x_min":25,"x_max":754,"o":"m 492 0 l 296 0 q 271 12 281 0 q 261 42 261 24 l 261 756 q 271 785 261 774 q 296 797 281 797 l 492 797 q 515 785 506 797 q 525 756 525 774 l 525 42 q 515 12 525 24 q 492 0 506 0 m 39 858 l 225 1128 q 240 1139 228 1133 q 260 1144 251 1144 l 521 1144 q 540 1139 529 1144 q 554 1128 550 1133 l 740 858 q 743 821 754 839 q 706 803 732 803 l 524 803 q 506 808 517 803 q 490 818 494 814 l 390 942 l 288 818 q 273 808 285 813 q 254 803 261 803 l 74 803 q 36 821 47 803 q 39 858 25 839 "},"":{"ha":767,"x_min":31,"x_max":736,"o":"m 461 0 l 265 0 q 240 12 250 0 q 229 42 229 24 l 229 756 q 239 785 229 774 q 264 797 249 797 l 460 797 q 484 785 474 797 q 494 756 494 774 l 494 42 q 485 12 494 24 q 461 0 475 0 m 476 1086 l 694 1086 q 724 1076 711 1086 q 736 1053 736 1067 l 736 875 q 724 851 736 861 q 696 842 713 842 l 476 842 q 448 851 461 842 q 435 875 435 861 l 435 1053 q 447 1076 435 1067 q 476 1086 458 1086 m 71 1086 l 289 1086 q 318 1076 306 1086 q 331 1053 331 1067 l 331 875 q 319 851 331 861 q 290 842 307 842 l 72 842 q 43 851 56 842 q 31 875 31 861 l 31 1053 q 42 1076 31 1067 q 71 1086 54 1086 "},"":{"ha":949,"x_min":31,"x_max":918,"o":"m 918 393 q 808 81 918 181 q 475 -18 697 -18 q 288 8 371 -18 q 149 83 206 33 q 61 206 92 133 q 31 371 31 278 q 153 638 31 532 q 290 713 214 689 l 239 774 q 228 808 225 789 q 247 838 232 826 l 299 869 q 260 888 281 879 q 215 907 239 896 q 190 934 196 915 q 194 969 183 953 l 260 1074 q 280 1089 267 1083 q 304 1092 293 1094 q 421 1057 367 1076 q 519 1010 475 1038 l 638 1085 q 665 1089 650 1092 q 690 1075 681 1086 l 767 983 q 778 949 781 968 q 758 919 775 929 l 694 883 q 716 863 706 872 q 735 844 726 854 q 918 393 918 654 m 476 501 l 475 501 q 365 463 404 501 q 326 358 326 425 q 365 254 326 290 q 474 218 403 218 q 581 256 540 218 q 622 361 622 294 q 583 464 622 426 q 476 501 544 501 m 486 735 q 479 742 482 738 q 472 749 476 746 l 453 738 l 463 738 l 486 735 "},"":{"ha":886,"x_min":31,"x_max":856,"o":"m 814 0 l 576 0 q 547 12 560 0 q 535 42 535 24 l 535 472 q 523 538 535 513 q 488 563 511 563 q 442 557 464 563 q 394 540 419 551 l 397 540 q 371 528 382 533 q 351 518 360 524 l 351 42 q 339 12 351 24 q 310 0 326 0 l 72 0 q 43 12 56 0 q 31 42 31 24 l 31 758 q 42 787 31 775 q 71 799 54 799 l 240 799 q 258 793 247 799 q 275 781 269 788 l 307 728 q 435 793 365 769 q 582 817 506 817 q 788 740 719 817 q 856 518 856 664 l 856 42 q 843 12 856 24 q 814 0 831 0 m 810 1174 l 850 1133 q 758 943 826 1001 q 596 885 689 885 q 444 922 521 885 q 387 945 414 938 q 335 953 360 953 q 293 906 301 953 q 279 885 290 893 q 254 876 268 876 l 126 876 q 94 888 107 876 q 83 917 81 900 q 175 1108 107 1050 q 338 1165 243 1165 q 488 1128 410 1165 q 599 1099 547 1099 q 639 1146 628 1099 q 653 1165 642 1157 q 678 1174 664 1174 l 810 1174 "},"":{"ha":946,"x_min":31,"x_max":915,"o":"m 915 400 q 794 94 915 207 q 472 -17 675 -17 q 151 94 271 -17 q 31 400 31 207 q 151 707 31 594 q 472 818 274 818 q 794 707 672 818 q 915 400 915 594 m 621 400 q 582 522 621 478 q 472 565 543 565 q 364 522 403 565 q 325 400 325 478 q 364 278 325 322 q 472 235 403 235 q 582 278 543 235 q 621 400 621 322 m 624 872 l 451 872 q 435 877 444 872 q 421 885 425 882 l 161 1154 q 153 1194 143 1174 q 190 1214 164 1214 l 444 1214 q 463 1208 453 1214 q 478 1197 474 1203 l 657 928 q 660 890 671 908 q 624 872 649 872 "},"":{"ha":946,"x_min":31,"x_max":915,"o":"m 915 400 q 794 94 915 207 q 472 -17 675 -17 q 151 94 271 -17 q 31 400 31 207 q 151 707 31 594 q 472 818 274 818 q 794 707 672 818 q 915 400 915 594 m 621 400 q 582 522 621 478 q 472 565 543 565 q 364 522 403 565 q 325 400 325 478 q 364 278 325 322 q 472 235 403 235 q 582 278 543 235 q 621 400 621 322 m 282 928 l 457 1197 q 472 1209 461 1204 q 490 1214 482 1214 l 743 1214 q 780 1194 769 1214 q 772 1154 790 1174 l 517 885 q 502 876 513 881 q 486 872 492 872 l 315 872 q 280 890 290 872 q 282 928 269 908 "},"":{"ha":946,"x_min":31,"x_max":915,"o":"m 915 400 q 794 94 915 207 q 472 -17 675 -17 q 151 94 271 -17 q 31 400 31 207 q 151 707 31 594 q 472 818 274 818 q 794 707 672 818 q 915 400 915 594 m 621 400 q 582 522 621 478 q 472 565 543 565 q 364 522 403 565 q 325 400 325 478 q 364 278 325 322 q 472 235 403 235 q 582 278 543 235 q 621 400 621 322 m 131 928 l 317 1197 q 332 1208 321 1203 q 351 1214 343 1214 l 613 1214 q 631 1208 621 1214 q 646 1197 642 1203 l 832 928 q 835 890 846 908 q 797 872 824 872 l 615 872 q 597 878 608 872 q 582 888 586 883 l 482 1011 l 379 888 q 365 877 376 882 q 346 872 353 872 l 165 872 q 128 890 139 872 q 131 928 117 908 "},"":{"ha":946,"x_min":31,"x_max":915,"o":"m 915 400 q 794 94 915 207 q 472 -17 675 -17 q 151 94 271 -17 q 31 400 31 207 q 151 707 31 594 q 472 818 274 818 q 794 707 672 818 q 915 400 915 594 m 621 400 q 582 522 621 478 q 472 565 543 565 q 364 522 403 565 q 325 400 325 478 q 364 278 325 322 q 472 235 403 235 q 582 278 543 235 q 621 400 621 322 m 831 1160 l 871 1119 q 778 929 847 988 q 617 871 710 871 q 465 908 544 871 q 356 939 404 939 q 314 892 322 939 q 300 871 311 879 q 275 863 289 863 l 147 863 q 115 874 128 863 q 106 903 103 886 q 197 1094 129 1036 q 360 1151 265 1151 q 510 1114 431 1151 q 621 1085 568 1085 q 661 1132 650 1085 q 675 1151 664 1143 q 700 1160 686 1160 l 831 1160 "},"":{"ha":946,"x_min":31,"x_max":915,"o":"m 915 400 q 794 94 915 207 q 472 -17 675 -17 q 151 94 271 -17 q 31 400 31 207 q 151 707 31 594 q 472 818 274 818 q 794 707 672 818 q 915 400 915 594 m 621 400 q 582 522 621 478 q 472 565 543 565 q 364 522 403 565 q 325 400 325 478 q 364 278 325 322 q 472 235 403 235 q 582 278 543 235 q 621 400 621 322 m 574 1086 l 793 1086 q 822 1076 810 1086 q 833 1053 833 1067 l 833 875 q 822 851 833 861 q 793 842 810 842 l 574 842 q 546 851 558 842 q 533 875 533 861 l 533 1053 q 546 1076 533 1067 q 574 1086 558 1086 m 169 1086 l 388 1086 q 416 1076 404 1086 q 428 1053 428 1067 l 428 875 q 416 851 428 861 q 388 842 404 842 l 169 842 q 141 851 153 842 q 129 875 129 861 l 129 1053 q 141 1076 129 1067 q 169 1086 153 1086 "},"":{"ha":861,"x_min":31,"x_max":831,"o":"m 317 868 l 485 868 q 509 858 499 868 q 519 833 519 849 l 519 631 q 510 606 519 615 q 486 596 500 596 l 317 596 q 292 606 303 596 q 282 631 282 615 l 282 833 q 292 858 282 849 q 317 868 301 868 m 31 319 l 31 469 q 43 492 31 483 q 72 501 56 501 l 789 501 q 818 492 806 501 q 831 469 831 483 l 831 319 q 819 297 831 307 q 790 288 807 288 l 74 288 q 44 297 57 288 q 31 319 31 307 m 317 199 l 485 199 q 509 189 499 199 q 519 164 519 179 l 519 -39 q 510 -64 519 -54 q 486 -74 500 -74 l 317 -74 q 292 -64 303 -74 q 282 -39 282 -54 l 282 164 q 292 189 282 179 q 317 199 301 199 "},"":{"ha":1099,"x_min":24,"x_max":1074,"o":"m 863 868 l 1024 868 q 1064 844 1054 868 q 1054 799 1074 821 l 924 656 q 994 404 994 556 q 871 94 994 207 q 544 -17 750 -17 q 335 19 415 -17 l 268 -54 q 253 -63 264 -58 q 236 -68 243 -68 l 75 -69 q 34 -46 44 -69 q 44 0 24 -22 l 174 139 q 94 404 94 243 q 217 715 94 603 q 544 828 339 828 q 668 817 613 828 q 768 785 724 806 l 832 854 q 845 863 835 858 q 863 868 856 868 m 393 404 l 393 376 l 569 571 q 558 572 564 571 q 544 572 551 572 q 433 528 474 572 q 393 404 393 483 m 544 238 q 656 282 617 238 q 696 404 696 326 l 696 408 l 538 238 l 544 238 "},"":{"ha":886,"x_min":31,"x_max":856,"o":"m 856 758 l 856 42 q 844 12 856 24 q 815 0 832 0 l 632 0 q 609 7 621 0 q 594 24 597 14 l 572 68 q 445 6 510 28 q 301 -17 381 -17 q 99 56 167 -17 q 31 268 31 129 l 31 758 q 43 787 31 775 q 72 799 56 799 l 310 799 q 339 787 326 799 q 351 758 351 775 l 351 329 q 404 238 351 238 q 433 241 415 238 q 474 253 450 244 l 471 253 q 505 267 489 261 q 535 281 521 274 l 535 758 q 547 787 535 775 q 576 799 560 799 l 814 799 q 843 787 831 799 q 856 758 856 775 m 606 872 l 435 872 q 418 877 428 872 q 404 885 408 882 l 144 1154 q 135 1194 125 1174 q 172 1214 146 1214 l 426 1214 q 445 1208 435 1214 q 460 1197 456 1203 l 639 928 q 642 890 653 908 q 606 872 632 872 "},"":{"ha":886,"x_min":31,"x_max":856,"o":"m 856 758 l 856 42 q 844 12 856 24 q 815 0 832 0 l 632 0 q 609 7 621 0 q 594 24 597 14 l 572 68 q 445 6 510 28 q 301 -17 381 -17 q 99 56 167 -17 q 31 268 31 129 l 31 758 q 43 787 31 775 q 72 799 56 799 l 310 799 q 339 787 326 799 q 351 758 351 775 l 351 329 q 404 238 351 238 q 433 241 415 238 q 474 253 450 244 l 471 253 q 505 267 489 261 q 535 281 521 274 l 535 758 q 547 787 535 775 q 576 799 560 799 l 814 799 q 843 787 831 799 q 856 758 856 775 m 264 928 l 439 1197 q 453 1209 443 1204 q 472 1214 464 1214 l 725 1214 q 763 1194 751 1214 q 756 1154 774 1174 l 500 885 q 485 876 496 881 q 469 872 475 872 l 299 872 q 263 890 274 872 q 264 928 251 908 "},"":{"ha":886,"x_min":31,"x_max":856,"o":"m 856 758 l 856 42 q 844 12 856 24 q 815 0 832 0 l 632 0 q 609 7 621 0 q 594 24 597 14 l 572 68 q 445 6 510 28 q 301 -17 381 -17 q 99 56 167 -17 q 31 268 31 129 l 31 758 q 43 787 31 775 q 72 799 56 799 l 310 799 q 339 787 326 799 q 351 758 351 775 l 351 329 q 404 238 351 238 q 433 241 415 238 q 474 253 450 244 l 471 253 q 505 267 489 261 q 535 281 521 274 l 535 758 q 547 787 535 775 q 576 799 560 799 l 814 799 q 843 787 831 799 q 856 758 856 775 m 113 928 l 299 1197 q 314 1208 303 1203 q 333 1214 325 1214 l 594 1214 q 614 1208 603 1214 q 628 1197 625 1203 l 814 928 q 817 890 828 908 q 781 872 807 872 l 599 872 q 581 878 592 872 q 565 888 569 883 l 465 1011 l 363 888 q 348 877 360 882 q 329 872 336 872 l 149 872 q 110 890 122 872 q 113 928 99 908 "},"":{"ha":886,"x_min":31,"x_max":856,"o":"m 856 758 l 856 42 q 844 12 856 24 q 815 0 832 0 l 632 0 q 609 7 621 0 q 594 24 597 14 l 572 68 q 445 6 510 28 q 301 -17 381 -17 q 99 56 167 -17 q 31 268 31 129 l 31 758 q 43 787 31 775 q 72 799 56 799 l 310 799 q 339 787 326 799 q 351 758 351 775 l 351 329 q 404 238 351 238 q 433 241 415 238 q 474 253 450 244 l 471 253 q 505 267 489 261 q 535 281 521 274 l 535 758 q 547 787 535 775 q 576 799 560 799 l 814 799 q 843 787 831 799 q 856 758 856 775 m 542 1086 l 761 1086 q 790 1076 778 1086 q 803 1053 803 1067 l 803 875 q 791 851 803 861 q 763 842 779 842 l 543 842 q 515 851 528 842 q 501 875 501 861 l 501 1053 q 514 1076 501 1067 q 542 1086 526 1086 m 138 1086 l 356 1086 q 385 1076 372 1086 q 397 1053 397 1067 l 397 875 q 385 851 397 861 q 357 842 374 842 l 139 842 q 110 851 122 842 q 97 875 97 861 l 97 1053 q 109 1076 97 1067 q 138 1086 121 1086 "},"":{"ha":1004,"x_min":25,"x_max":979,"o":"m 707 813 l 932 813 q 968 794 957 813 q 969 754 979 776 l 579 -131 q 563 -148 575 -140 q 540 -156 551 -156 l 313 -156 q 276 -137 289 -156 q 275 -97 264 -119 l 368 115 l 38 751 q 36 794 25 775 q 74 813 47 813 l 349 813 q 372 805 360 813 q 386 788 383 797 l 533 465 l 668 786 q 684 805 672 797 q 707 813 696 813 m 364 886 l 539 1156 q 553 1167 543 1163 q 572 1172 564 1172 l 825 1172 q 862 1152 851 1172 q 854 1113 872 1132 l 599 843 q 584 835 594 839 q 568 831 574 831 l 397 831 q 361 849 372 831 q 364 886 350 867 "},"":{"ha":953,"x_min":31,"x_max":922,"o":"m 554 -17 q 449 0 499 -17 q 354 53 399 17 l 354 -117 q 342 -147 354 -135 q 313 -160 329 -160 l 72 -160 q 43 -147 56 -160 q 31 -117 31 -135 l 31 1058 q 43 1088 31 1075 q 72 1100 56 1100 l 313 1100 q 342 1088 329 1100 q 354 1058 354 1075 l 354 785 q 444 832 397 817 q 540 847 492 847 q 815 728 708 847 l 815 729 q 922 432 922 617 q 898 258 922 336 q 821 114 874 179 q 554 -17 715 -17 m 478 606 q 406 589 438 606 q 353 550 374 572 l 353 300 q 376 269 363 285 q 410 239 390 254 q 449 215 429 224 q 490 207 469 207 q 583 265 550 207 q 617 417 617 322 q 578 553 617 500 q 478 606 540 606 "},"":{"ha":1004,"x_min":25,"x_max":979,"o":"m 707 813 l 932 813 q 968 794 957 813 q 969 754 979 776 l 579 -131 q 563 -148 575 -140 q 540 -156 551 -156 l 313 -156 q 276 -137 289 -156 q 275 -97 264 -119 l 368 115 l 38 751 q 36 794 25 775 q 74 813 47 813 l 349 813 q 372 805 360 813 q 386 788 383 797 l 533 465 l 668 786 q 684 805 672 797 q 707 813 696 813 m 600 1086 l 819 1086 q 848 1076 836 1086 q 860 1053 860 1067 l 860 875 q 848 851 860 861 q 819 842 836 842 l 600 842 q 572 851 585 842 q 560 875 560 861 l 560 1053 q 572 1076 560 1067 q 600 1086 585 1086 m 196 1086 l 414 1086 q 442 1076 431 1086 q 454 1053 454 1067 l 454 875 q 442 851 454 861 q 414 842 431 842 l 196 842 q 167 851 179 842 q 156 875 156 861 l 156 1053 q 167 1076 156 1067 q 196 1086 179 1086 "},"":{"ha":861,"x_min":31,"x_max":831,"o":"m 32 236 l 31 386 q 43 409 31 400 q 72 418 56 418 l 789 418 q 818 409 806 418 q 831 386 831 400 l 831 236 q 819 214 831 224 q 790 204 807 204 l 74 204 q 44 214 57 204 q 32 236 32 224 "},"":{"ha":861,"x_min":31,"x_max":831,"o":"m 32 140 l 31 331 q 43 360 31 347 q 72 372 56 372 l 282 372 l 301 421 l 74 421 q 44 433 57 421 q 31 463 31 446 l 31 653 q 43 682 31 669 q 72 694 56 694 l 404 694 l 426 751 q 442 770 431 763 q 465 778 454 778 l 657 778 q 693 760 681 778 q 696 721 706 742 l 685 694 l 789 694 q 818 682 806 694 q 831 653 831 669 l 831 463 q 819 433 831 446 q 790 421 807 421 l 582 421 l 563 372 l 789 372 q 818 360 806 372 q 831 331 831 347 l 831 140 q 819 111 831 124 q 790 99 807 99 l 458 99 l 438 42 q 422 24 435 32 q 399 17 410 17 l 207 17 q 170 34 183 17 q 167 72 157 51 l 178 99 l 74 99 q 44 111 57 99 q 32 140 32 124 "},"":{"ha":985,"x_min":31,"x_max":954,"o":"m 622 419 q 493 501 567 440 q 364 419 415 440 q 253 396 300 396 q 101 450 168 396 q 31 590 31 508 q 100 732 31 678 q 251 785 167 785 q 313 779 283 785 q 371 760 343 774 l 371 761 q 492 681 417 739 q 610 761 567 743 q 669 780 639 775 q 732 785 700 785 q 882 731 813 785 l 882 732 q 935 669 917 704 q 954 590 954 635 q 883 449 954 507 q 733 396 818 396 q 622 419 685 396 m 178 590 q 197 544 178 561 q 251 528 217 528 q 321 545 288 528 q 386 590 354 563 q 322 636 354 618 q 253 654 289 654 q 200 633 218 654 l 200 635 q 178 590 178 610 m 806 590 q 785 635 806 611 q 733 654 765 654 q 661 636 694 654 q 596 590 628 618 q 661 545 628 563 q 732 528 694 528 q 785 544 765 528 q 806 590 806 561 "},"":{"ha":857,"x_min":31,"x_max":826,"o":"m 72 269 l 557 269 l 57 474 q 38 490 46 478 q 31 514 31 503 l 31 685 q 38 708 31 696 q 57 724 46 719 l 771 1017 q 810 1014 793 1026 q 826 978 826 1001 l 826 768 q 819 744 826 757 q 800 729 811 732 l 486 599 l 800 469 q 819 453 811 465 q 826 429 826 440 l 826 221 l 826 215 l 826 42 q 815 13 826 25 q 786 0 803 0 l 72 0 q 43 13 56 0 q 31 42 31 25 l 31 226 q 43 257 31 244 q 72 269 56 269 "},"":{"ha":861,"x_min":31,"x_max":831,"o":"m 58 469 l 375 599 l 58 729 q 39 744 47 732 q 31 768 31 757 l 31 978 q 49 1013 31 1001 q 88 1017 67 1025 l 804 724 q 823 708 815 719 q 831 685 831 696 l 831 514 q 823 490 831 503 q 806 474 815 478 l 301 269 l 789 269 q 818 257 806 269 q 831 226 831 244 l 831 42 q 819 13 831 25 q 790 0 807 0 l 74 0 q 44 13 57 0 q 31 42 31 25 l 31 215 l 31 221 l 31 429 q 39 453 31 440 q 58 469 47 465 "},"":{"ha":1564,"x_min":31,"x_max":1533,"o":"m 910 43 l 910 121 q 915 138 910 126 q 925 153 919 149 l 1186 368 l 1185 368 q 1228 410 1208 388 q 1249 450 1249 432 q 1233 478 1249 468 q 1190 488 1218 488 q 1085 456 1140 488 q 1010 400 1029 424 q 987 384 1000 388 q 962 385 974 381 q 942 400 950 389 q 933 426 933 411 l 933 576 l 425 -3 q 410 -12 421 -7 q 392 -17 399 -17 l 203 -17 q 161 8 172 -17 q 169 54 150 32 l 1083 1096 q 1099 1105 1088 1100 q 1117 1110 1110 1110 l 1306 1110 q 1331 1103 1319 1110 q 1347 1085 1342 1096 q 1350 1063 1351 1075 q 1339 1039 1349 1050 l 983 636 q 1019 651 999 643 q 1063 668 1039 660 q 1242 700 1150 700 q 1450 646 1372 700 q 1528 496 1528 592 q 1510 409 1528 450 q 1456 329 1492 368 q 1397 271 1424 296 q 1350 226 1369 246 l 1342 218 l 1490 218 q 1521 206 1508 218 q 1533 176 1533 193 l 1533 43 q 1521 13 1533 25 q 1490 0 1508 0 l 953 0 q 922 13 935 0 q 910 43 910 25 m 407 407 l 228 407 q 198 419 211 407 q 185 450 185 432 l 185 832 q 137 815 161 822 q 86 800 113 807 q 47 806 64 794 q 31 842 31 818 l 31 972 q 41 999 31 988 q 67 1014 51 1011 q 128 1027 101 1019 q 175 1042 156 1035 l 172 1040 q 207 1060 188 1047 q 250 1096 226 1074 l 407 1096 q 438 1083 425 1096 q 450 1053 450 1071 l 450 450 q 438 419 450 432 q 407 407 425 407 "},"":{"ha":1576,"x_min":31,"x_max":1546,"o":"m 197 54 l 1111 1096 q 1126 1105 1115 1100 q 1144 1110 1138 1110 l 1333 1110 q 1375 1085 1364 1110 q 1367 1039 1386 1061 l 453 -3 q 438 -12 449 -7 q 419 -17 426 -17 l 231 -17 q 189 8 200 -17 q 197 54 178 32 m 1232 689 l 1407 689 q 1438 676 1425 689 q 1450 646 1450 664 l 1450 311 l 1503 311 q 1533 299 1521 311 q 1546 268 1546 286 l 1546 144 q 1533 114 1546 126 q 1503 101 1521 101 l 1450 100 l 1450 43 q 1438 13 1450 25 q 1407 0 1425 0 l 1226 0 q 1196 13 1208 0 q 1183 43 1183 25 l 1183 100 l 910 100 q 879 113 892 100 q 867 143 867 125 l 867 303 l 1199 674 q 1214 684 1203 679 q 1232 689 1225 689 m 1094 311 l 1183 311 l 1183 410 l 1094 311 m 407 407 l 229 407 q 198 419 211 407 q 185 450 185 432 l 185 832 q 137 815 161 822 q 86 800 113 807 q 47 806 64 794 q 31 842 31 818 l 31 972 q 41 999 31 988 q 67 1014 51 1011 q 175 1042 132 1026 l 172 1040 q 207 1060 188 1047 q 250 1096 226 1074 l 407 1096 q 438 1083 425 1096 q 450 1053 450 1071 l 450 450 q 438 419 450 432 q 407 407 425 407 "},"":{"ha":1628,"x_min":26,"x_max":1596,"o":"m 274 54 l 1189 1096 q 1204 1105 1193 1100 q 1221 1110 1215 1110 l 1411 1110 q 1453 1085 1442 1110 q 1446 1039 1464 1061 l 531 -3 q 515 -12 526 -7 q 497 -17 504 -17 l 307 -17 q 281 -10 292 -17 q 266 8 271 -3 q 263 31 261 18 q 274 54 264 43 m 63 928 l 63 1053 q 75 1083 63 1071 q 106 1096 88 1096 l 578 1096 q 610 1083 596 1096 q 624 1053 624 1071 l 624 951 q 618 935 624 946 q 608 919 613 924 l 500 828 q 623 756 581 806 q 665 631 665 706 q 585 454 665 511 q 349 397 504 397 q 156 432 242 397 q 46 486 64 468 q 31 510 35 494 q 32 538 26 525 l 89 656 q 115 678 97 672 q 150 674 132 683 q 179 660 161 668 q 229 638 197 651 l 226 638 q 283 621 254 626 q 347 615 313 615 q 385 621 371 615 q 399 638 399 626 q 383 660 399 651 q 340 673 371 669 q 260 678 308 676 q 228 690 240 678 q 217 721 217 703 l 217 814 q 222 831 217 821 q 231 844 226 842 l 275 885 l 107 885 q 76 897 89 885 q 63 928 63 910 m 1281 689 l 1454 689 q 1485 676 1472 689 q 1499 646 1499 664 l 1499 311 l 1550 311 q 1582 299 1568 311 q 1596 268 1596 286 l 1596 144 q 1582 114 1596 126 q 1551 101 1568 101 l 1500 100 l 1500 43 q 1487 13 1500 25 q 1456 0 1474 0 l 1275 0 q 1244 13 1257 0 q 1232 43 1232 25 l 1232 100 l 958 100 q 926 113 940 100 q 913 143 913 125 l 913 303 l 1246 674 q 1263 684 1251 679 q 1281 689 1274 689 m 1142 311 l 1232 311 l 1232 410 l 1142 311 "},"":{"ha":785,"x_min":26,"x_max":754,"o":"m 407 228 q 408 283 407 256 q 412 343 410 311 q 417 412 414 375 q 426 493 421 449 l 368 493 l 317 101 q 301 56 311 78 q 277 16 292 33 q 242 -12 263 -1 q 196 -22 222 -22 q 120 10 151 -22 q 89 83 89 42 q 101 135 89 113 q 131 175 114 157 q 165 217 151 197 q 181 257 178 238 l 210 493 l 199 493 q 164 481 181 493 q 128 436 147 468 q 112 422 124 429 q 92 415 100 415 l 71 415 q 38 431 49 415 q 33 468 26 447 q 63 544 47 510 q 100 608 79 579 q 243 679 154 679 l 701 679 q 731 667 718 679 q 743 639 743 656 l 743 533 q 731 505 743 517 q 701 493 718 493 l 582 493 q 580 440 581 468 q 576 379 579 411 q 574 301 575 335 q 572 244 572 268 q 585 191 572 207 q 613 175 599 175 q 635 189 625 175 q 644 226 644 203 q 656 255 644 243 q 685 267 668 267 l 713 267 q 742 255 729 267 q 753 225 754 243 q 735 123 750 168 q 694 47 719 78 q 636 -1 669 15 q 565 -18 603 -18 q 453 45 499 -18 q 407 228 407 108 "},"":{"ha":463,"x_min":31,"x_max":432,"o":"m 319 564 q 312 263 319 390 q 289 53 304 135 q 135 -139 253 -139 q 100 -130 118 -139 q 67 -105 82 -121 q 41 -67 51 -89 q 31 -17 31 -44 q 38 22 31 4 q 58 53 46 40 q 86 75 71 67 q 117 83 101 83 q 172 57 150 83 q 171 88 171 68 q 171 140 171 108 q 167 261 171 179 q 165 405 165 301 q 164 674 164 508 q 168 923 164 817 q 183 1101 172 1029 q 319 1281 208 1281 q 359 1274 339 1281 q 395 1252 379 1267 q 422 1216 411 1238 q 432 1165 432 1194 q 426 1131 432 1149 q 407 1098 419 1113 q 376 1074 394 1083 q 336 1065 358 1065 q 296 1078 310 1065 q 301 1008 299 1050 q 307 910 303 967 q 319 564 319 751 "},"":{"ha":1036,"x_min":31,"x_max":1006,"o":"m 468 239 l 489 46 q 479 13 492 26 q 447 0 467 0 l 72 0 q 43 13 56 0 q 31 42 31 25 l 31 247 q 43 276 31 264 q 72 289 56 289 l 92 289 q 117 279 106 289 q 132 257 129 269 q 147 220 139 229 q 175 211 154 211 l 243 211 q 106 348 156 263 q 56 547 56 433 q 197 849 56 738 q 518 956 333 956 q 690 929 610 956 q 838 850 771 903 q 981 547 981 739 q 900 310 981 419 q 851 254 876 278 q 793 211 825 231 l 861 211 q 890 221 883 211 q 904 257 897 231 q 919 279 907 269 q 944 289 931 289 l 964 289 q 993 276 981 289 q 1006 247 1006 264 l 1006 42 q 993 13 1006 25 q 964 0 981 0 l 589 0 q 557 13 569 0 q 547 46 544 26 l 568 239 q 578 260 569 250 q 597 274 588 271 q 701 357 653 290 q 749 551 749 422 q 687 760 749 689 q 518 832 625 832 q 351 762 414 832 q 289 551 289 692 q 332 360 289 426 q 438 275 375 293 q 458 261 449 272 q 468 239 468 250 "},"":{"ha":765,"x_min":28,"x_max":736,"o":"m 56 567 l 35 610 q 33 642 28 625 q 54 667 39 658 l 233 760 q 265 760 249 767 q 289 739 282 754 l 472 339 l 610 1240 q 626 1269 613 1258 q 656 1276 639 1279 l 699 1271 q 726 1253 715 1268 q 733 1221 736 1239 l 549 -11 q 536 -37 546 -28 q 514 -48 526 -46 q 490 -44 501 -50 q 471 -24 478 -39 l 192 588 l 110 546 q 79 544 94 538 q 56 567 64 551 "},"":{"ha":758,"x_min":29,"x_max":726,"o":"m 632 378 l 721 228 q 726 207 726 221 q 724 188 726 194 q 684 138 707 160 q 634 101 661 115 q 577 78 607 86 q 519 71 547 71 q 459 79 499 71 q 364 106 419 88 q 242 138 264 138 q 221 126 231 138 q 196 86 211 114 q 160 62 183 63 q 125 83 138 61 l 36 238 q 30 260 29 247 q 38 282 31 274 q 158 378 94 356 q 140 384 149 379 q 125 400 131 389 l 36 554 q 30 576 29 563 q 38 599 31 590 q 134 685 83 660 q 244 711 185 711 q 399 678 294 711 q 476 655 447 663 q 514 647 506 647 q 539 658 526 647 q 560 690 551 669 q 594 715 571 714 q 631 693 617 717 l 721 544 q 726 524 726 538 q 724 504 726 511 q 684 453 707 475 q 634 417 661 432 q 577 395 607 403 q 519 388 547 388 q 460 395 499 388 q 364 422 421 403 q 242 454 265 454 q 221 442 231 454 q 196 403 211 431 q 181 388 192 392 q 212 392 196 390 q 244 394 228 394 q 399 361 294 394 q 476 338 447 346 q 514 331 506 331 q 539 342 526 331 q 560 374 551 353 q 594 399 571 397 q 632 378 617 401 "},"":{"ha":974,"x_min":33,"x_max":940,"o":"m 328 0 l 69 0 q 43 13 53 0 q 33 42 33 26 l 33 1047 q 43 1076 33 1063 q 69 1089 53 1089 l 328 1089 q 353 1076 343 1089 q 364 1047 364 1063 l 364 42 q 353 13 364 26 q 328 0 343 0 m 711 518 q 740 483 719 507 q 785 429 760 460 q 838 365 811 399 q 888 302 865 332 q 926 249 911 272 q 940 217 940 226 q 928 190 940 201 q 901 179 917 179 l 665 179 q 648 184 658 179 q 635 193 638 189 l 403 492 q 394 518 394 501 q 403 543 394 532 l 635 842 q 649 852 639 847 q 665 857 658 857 l 901 857 q 928 846 917 857 q 940 818 940 835 q 931 790 940 804 l 711 518 "},"":{"ha":1169,"x_min":0,"x_max":0,"o":""},"":{"ha":682,"x_min":31,"x_max":653,"o":"m 379 0 l 307 0 q 286 7 297 0 q 271 24 275 14 l 36 504 q 32 523 33 511 q 33 542 31 535 l 268 1011 q 284 1028 274 1021 q 304 1035 294 1035 l 376 1035 q 397 1028 386 1035 q 411 1011 407 1021 l 646 542 q 653 522 653 535 q 649 504 653 511 l 414 24 q 399 7 408 14 q 379 0 389 0 m 185 524 l 340 203 l 496 524 l 343 833 l 185 524 "},"":{"ha":772,"x_min":31,"x_max":742,"o":"m 742 875 q 730 851 742 861 q 701 842 718 842 l 482 842 q 453 851 467 842 q 440 875 440 861 l 440 1053 q 452 1076 440 1067 q 481 1086 464 1086 l 700 1086 q 729 1076 717 1086 q 742 1053 742 1067 l 742 875 m 639 974 l 639 1032 q 626 1043 639 1043 l 553 1043 q 540 1032 540 1043 l 540 974 q 553 963 540 963 l 626 963 q 639 974 639 963 m 588 992 q 603 1007 588 1007 q 618 992 618 1007 q 603 976 618 976 q 588 992 588 976 m 335 875 l 336 875 q 324 851 336 861 q 296 842 313 842 l 78 842 q 49 851 61 842 q 36 875 36 861 l 36 1053 q 48 1076 36 1067 q 76 1086 60 1086 l 294 1086 q 323 1076 311 1086 q 335 1053 335 1067 l 335 875 m 236 974 l 236 1032 q 224 1043 236 1043 l 150 1043 q 138 1032 138 1043 l 138 974 q 150 963 138 963 l 224 963 q 236 974 236 963 m 185 996 q 200 1011 185 1011 q 215 996 215 1011 q 200 981 215 981 q 185 996 185 981 m 683 44 q 688 33 689 39 q 683 22 688 26 q 673 17 679 18 q 661 22 667 17 l 500 179 l 500 42 q 490 12 500 24 q 467 0 481 0 l 271 0 q 246 12 256 0 q 236 42 236 24 l 236 254 l 163 185 q 156 166 165 174 q 138 168 147 158 q 124 182 126 171 l 64 242 l 61 32 q 46 17 61 17 q 31 32 31 17 l 35 318 q 50 333 35 333 q 65 318 65 333 l 65 282 q 72 278 67 281 l 142 207 l 224 286 q 235 290 229 290 l 235 756 q 244 785 235 774 q 269 797 254 797 l 465 797 q 489 785 479 797 q 499 756 499 774 l 499 224 l 583 308 q 595 313 589 314 q 606 308 601 313 q 610 298 610 304 q 606 286 611 292 l 521 201 l 683 44 "}}}
